<?xml version="1.0" encoding="UTF-8"?>
<!DOCTYPE svg PUBLIC "-//W3C//DTD SVG 1.1//EN" "http://www.w3.org/Graphics/SVG/1.1/DTD/svg11.dtd">
<!-- Creator: FutureCorp VMX -->
<svg xmlns="http://www.w3.org/2000/svg" xml:space="preserve" shape-rendering="geometricPrecision" text-rendering="geometricPrecision" image-rendering="optimizeQuality" fill-rule="evenodd" clip-rule="evenodd" viewBox="0 0 73 72" enable-background="new 0 0 73 72" 
 xmlns:xlink="http://www.w3.org/1999/xlink">
 <g id="Layer_1">
  <metadata id="FutureCorpID_Layer"/>

  <path fill="#07767D" d="M36.27,0 L36.25,0 L40.17,0.27 C43.16,0.64 45.56,1.21 48.47,2.27 C53.9,4.24 58.17,7.11 62.41,11.64 C64.38,13.75 65.06,14.65 66.84,17.55 C68.11,19.61 68.83,21.11 69.87,23.9 C71.09,27.15 71.68,30.13 71.9,34.03 L71.98,35.37 C72.01,36.07 72.03,35.7 71.89,37.94 C71.73,40.5 71.78,39.98 71.53,41.62 C70.96,45.3 70.15,47.89 68.44,51.51 C67.52,53.45 66.87,54.6 65.77,56.27 C62.68,60.93 57.95,65.15 52.86,67.8 C48.76,69.93 45.18,71.09 40.77,71.71 C38.65,72.01 37.21,72.06 33.73,71.95 C31.16,71.87 26.94,71.02 24.14,70.02 C21.86,69.2 20.89,68.77 18.87,67.68 C14.48,65.31 10.38,61.85 7.52,58.1 C5.56,55.53 4.2,53.27 2.88,50.38 C2.24,48.96 1.54,46.88 1.05,44.88 C-0.25,39.57 -0.35,33.61 0.79,28.46 C1.72,24.22 3.04,20.93 5.42,16.96 C8.37,12.04 12.43,8.07 17.59,5.06 C19.75,3.8 21.42,3.01 23.53,2.27 C26.59,1.18 27.8,0.88 31.04,0.4 C32.18,0.23 31.77,0.27 33.91,0.14 L35.18,0.04 C35.62,0.01 35.92,0 36.27,0 L36.27,0 zM36.37,12.77 L36.37,12.77 C32.45,12.76 29.31,13.49 25.97,15.19 C20.71,17.88 16.38,22.74 14.5,28.07 C12.66,33.32 12.66,38.62 14.52,43.97 C17.31,52.03 24.99,58.24 33.23,59.1 C35.07,59.29 36.03,59.32 37.5,59.21 C41.03,58.95 43.23,58.35 46.01,56.9 C52.63,53.43 57.08,47.51 58.38,40.41 C59.79,32.74 57.62,25.42 52.28,19.9 C47.89,15.35 42.23,12.82 36.37,12.77 L36.37,12.77 z"/>
  <path fill="#FFFFFF" d="M33,61.16 C34.73,61.34 36.28,61.38 37.65,61.28 C41.12,61.02 44.21,60.18 46.93,58.76 C54.44,54.83 58.93,48.84 60.41,40.79 C62.01,32.12 59.79,24.67 53.77,18.44 C48.81,13.31 43.03,10.72 36.42,10.67 L36.42,10.67 C32.34,10.66 28.57,11.54 25.09,13.31 C18.95,16.44 14.78,21.12 12.59,27.34 C10.58,33.07 10.59,38.84 12.61,44.67 C14.13,49.06 16.79,52.79 20.58,55.86 C24.38,58.92 28.52,60.69 33,61.16 L33,61.16 z"/>
  <path fill="#07767D" d="M31.24,27.19 L31.23,27.19 L35.76,14.27 L49.45,51.07 L36.06,46.97 C35.86,46.95 36.32,46.82 32.85,47.88 L22.55,51.02 L31.24,27.19 L31.24,27.19 z"/>
  <path fill="#FFFFFF" d="M35.56,20.34 L35.66,45.03 L25.21,48.48 L35.56,20.34 L35.56,20.34 z"/>
 </g>
</svg>

