<svg width="16" height="20" xmlns="http://www.w3.org/2000/svg" xmlns:xlink="http://www.w3.org/1999/xlink" xml:space="preserve" overflow="hidden"><g transform="translate(-361 -501)"><path d="M7.15429 13.2607 4.54681 10.3982C4.38506 10.2207 4.2778 10.0993 4.22857 10.0308 4.15648 9.93407 4.11429 9.81802 4.10022 9.68088 4.07209 9.29934 4.20923 9.04264 4.50989 8.91077 4.87209 8.75429 5.2589 8.90022 5.67033 9.35209L7.14901 10.9767 11.0664 6.70769C11.2035 6.56703 11.3055 6.47209 11.3723 6.4211 11.4602 6.35604 11.5745 6.31736 11.7134 6.30506 11.8154 6.29626 11.9314 6.33319 12.0615 6.41407 12.1899 6.4967 12.2954 6.60044 12.3763 6.72703L12.3938 6.75165C12.4712 6.88 12.5398 7.01539 12.596 7.15956L7.15429 13.2607 7.15429 13.2607ZM8.5433 19.5692 8.10374 19.7802C7.13143 19.4462 6.37714 19.1314 5.83912 18.836 2.24527 16.8563 0.321758 14.4862 0.0632967 11.7257L0.00175824 5.5455C-0.0175824 3.8189 0.218022 2.82549 0.706813 2.56703 0.775385 2.53363 1.03033 2.48615 1.47165 2.41934L8.05099 0 8.06505 0 9.52615 0.671648C10.9978 1.35033 12.2637 1.8356 13.324 2.12923L14.0009 2.34725C14.1626 2.4 14.4158 2.44044 14.7622 2.47209 15.4532 2.55121 15.8101 2.98198 15.8312 3.76615 15.8593 4.78593 15.8681 6.41055 15.8541 8.64 15.8418 10.8712 15.8171 12.1055 15.782 12.3429 15.4233 14.7516 13.6053 16.8703 10.3297 18.6954L9.58593 19.0734C9.0567 19.3407 8.70857 19.5077 8.5433 19.5692L8.5433 19.5692ZM14.5055 12.3499 14.5477 3.4567C14.2312 3.50769 13.9235 3.50066 13.6211 3.43385 12.9037 3.2422 12.1143 2.98725 11.2545 2.67253 10.393 2.3578 9.68791 2.06593 9.13758 1.79516 8.40791 1.43648 8 1.27297 7.91209 1.30462L7.91033 1.3011 7.48308 1.49978 1.2167 3.76088 1.21319 10.6637C1.22198 11.0593 1.23956 11.3723 1.26593 11.6026 1.29758 11.8892 1.37143 12.2409 1.48396 12.6558 1.75121 13.5631 2.35604 14.5002 3.30198 15.4673 4.24615 16.4325 5.33275 17.229 6.56527 17.8567L7.98769 18.5793C8.09846 18.5125 8.21099 18.4475 8.32527 18.3859L10.4985 17.1991C12.9582 15.6466 14.2945 14.029 14.5055 12.3499L14.5055 12.3499Z" fill="#FFFFFF" fill-rule="evenodd" transform="matrix(1 0 0 1.00664 361 501)"/></g></svg>