<svg width="24" height="24" xmlns="http://www.w3.org/2000/svg" xmlns:xlink="http://www.w3.org/1999/xlink" xml:space="preserve" overflow="hidden"><g transform="translate(-495 -499)"><path d="M514.625 503.375 514.375 501.125 511.625 503.875 511.775 505.175 507.775 509.175C507.425 509 507.025 508.875 506.6 508.875 505.225 508.875 504.1 510 504.1 511.375 504.1 512.75 505.225 513.875 506.6 513.875 507.975 513.875 509.1 512.75 509.1 511.375 509.1 510.95 509 510.575 508.825 510.225L512.825 506.225 514.125 506.375 516.875 503.625 514.625 503.375Z" fill="#FFFFFF"/><path d="M514.825 507.075 514.5 507.425 514.025 507.375 513.5 507.3C514.2 508.5 514.625 509.875 514.625 511.375 514.625 515.775 511.025 519.375 506.625 519.375 502.225 519.375 498.625 515.775 498.625 511.375 498.625 506.975 502.225 503.375 506.625 503.375 508.1 503.375 509.5 503.775 510.7 504.5L510.65 504 510.575 503.5 510.925 503.15 511.1 502.975C509.75 502.275 508.25 501.875 506.625 501.875 501.375 501.875 497.125 506.125 497.125 511.375 497.125 516.625 501.375 520.875 506.625 520.875 511.875 520.875 516.125 516.625 516.125 511.375 516.125 509.75 515.725 508.25 515 506.925L514.825 507.075Z" fill="#FFFFFF"/><path d="M510.8 509.675C511.025 510.2 511.125 510.775 511.125 511.375 511.125 513.85 509.1 515.875 506.625 515.875 504.15 515.875 502.125 513.85 502.125 511.375 502.125 508.9 504.15 506.875 506.625 506.875 507.225 506.875 507.8 507 508.325 507.2L509.45 506.075C508.6 505.625 507.65 505.375 506.625 505.375 503.325 505.375 500.625 508.075 500.625 511.375 500.625 514.675 503.325 517.375 506.625 517.375 509.925 517.375 512.625 514.675 512.625 511.375 512.625 510.35 512.375 509.4 511.925 508.55L510.8 509.675Z" fill="#FFFFFF"/></g></svg>