<svg width="24" height="16" xmlns="http://www.w3.org/2000/svg" xmlns:xlink="http://www.w3.org/1999/xlink" xml:space="preserve" overflow="hidden"><defs><clipPath id="clip0"><rect x="220" y="503" width="24" height="16"/></clipPath></defs><g clip-path="url(#clip0)" transform="translate(-220 -503)"><path d="M7.17363 4.98637C7.08396 6.36835 6.33319 7.16132 4.92308 7.36176 4.39033 7.43736 3.89275 7.36527 3.42857 7.14374 2.19253 6.55297 1.71604 5.59297 2.00264 4.26198 2.14154 3.61846 2.47033 3.09802 2.98725 2.70066 3.50242 2.3033 4.08264 2.12747 4.72615 2.17143 5.46462 2.22066 6.06945 2.5178 6.54066 3.05934 7.01187 3.60088 7.22286 4.2444 7.17363 4.98637L7.17363 4.98637ZM16.6646 3.04176C17.2448 2.37363 17.9657 2.08527 18.8273 2.17319L18.829 2.17319C19.8629 2.28747 20.5837 2.81319 20.9899 3.74857 21.5174 4.96527 21.2712 5.98681 20.2514 6.81143 19.7943 7.18066 19.2651 7.37407 18.6655 7.38989 18.0642 7.40571 17.5279 7.2422 17.0567 6.89758 16.4484 6.45275 16.0967 5.85495 16.0053 5.10418 15.9121 4.3411 16.1319 3.65363 16.6646 3.04176L16.6646 3.04176ZM5.45934 8.35692C5.5789 8.37451 5.70198 8.40264 5.83033 8.43956 5.71429 8.54857 5.58418 8.71209 5.44527 8.92659 4.77538 9.95341 4.44132 11.1121 4.44659 12.4026 4.45187 13.5701 4.42549 14.1837 4.37099 14.2435 4.30242 14.3121 4.06681 14.3473 3.66418 14.3455L0.386813 14.3402C0.117802 14.3385-0.0105495 14.1521 0 13.7776L0.0140659 11.8189C0.0298901 9.69495 1.2044 8.52747 3.5411 8.31648 4.22681 8.25495 4.86506 8.26725 5.45407 8.35692L5.45934 8.35692 5.45934 8.35692ZM5.75648 12.2971C5.75824 11.1244 6.11868 10.1064 6.83429 9.24484 7.82242 8.05451 9.35033 7.45143 11.4145 7.43209 13.3152 7.41626 14.7851 7.85055 15.8207 8.7367 16.8862 9.64571 17.4171 10.8695 17.4119 12.4044L17.4048 15.636C17.3732 15.8189 17.2642 15.9191 17.0778 15.9349L6.50374 15.9437C6.19956 15.9437 6.01319 15.9279 5.94462 15.8945 5.80044 15.8154 5.73538 15.6132 5.74769 15.2879L5.75648 12.2971 5.75648 12.2971ZM17.3697 8.43956C17.5015 8.40088 17.6668 8.36747 17.8673 8.33934L17.8708 8.33758C18.3068 8.2778 18.7833 8.26198 19.2967 8.29011 19.8101 8.32 20.2514 8.38681 20.6242 8.49231 22.3596 8.98286 23.2158 10.2031 23.1947 12.1477L23.1736 14.0923C23.1297 14.2488 23.0154 14.3297 22.8308 14.3402L19.2264 14.342C18.989 14.342 18.829 14.2963 18.7429 14.2013 18.6954 14.1468 18.6743 13.9552 18.676 13.6264L18.6848 12.0422C18.6673 10.9029 18.3174 9.82681 17.6352 8.81231L17.3697 8.43956 17.3697 8.43956ZM8.7244 1.81275C9.27473 0.715604 10.1556 0.116044 11.3705 0.0105495 11.5341-0.00351648 11.6905-0.00351648 11.8435 0.0123077L11.8523 0.0140659C13.3046 0.172308 14.2312 0.949451 14.6338 2.34549 14.8677 3.15077 14.7974 3.92088 14.4246 4.65407 14.0519 5.38901 13.4716 5.90242 12.684 6.19253 11.9226 6.47561 11.1754 6.47561 10.444 6.19604 9.3011 5.75824 8.62945 4.95297 8.43077 3.77846 8.31473 3.09099 8.41319 2.43516 8.7244 1.81275L8.7244 1.81275Z" fill="#FFFFFF" fill-rule="evenodd" transform="matrix(1.03409 0 0 1 220 503)"/></g></svg>