<svg width="18" height="20" xmlns="http://www.w3.org/2000/svg" xmlns:xlink="http://www.w3.org/1999/xlink" xml:space="preserve" overflow="hidden"><defs><clipPath id="clip0"><rect x="84" y="501" width="18" height="20"/></clipPath></defs><g clip-path="url(#clip0)" transform="translate(-84 -501)"><path d="M16.9335 10.3568C16.4226 10.3761 16.1535 9.81097 16.1226 8.66323 16.1071 8.02839 15.9813 7.35484 15.7432 6.64258 15.5071 5.93032 15.209 5.32258 14.8471 4.81935 14.1271 3.81484 13.3239 3.05226 12.4394 2.53161 11.4658 1.99161 10.2794 1.5871 8.88194 1.32387 8.41161 1.22129 8.1929 0.946452 8.22581 0.497419 8.26839 0.0929032 8.59355-0.0658064 9.19935 0.0251613L9.22258 0.0251613C9.82452 0.129677 10.4671 0.3 11.1523 0.536129 11.8355 0.772258 12.391 1.01419 12.8206 1.26581 15.4452 2.79677 16.9781 5.12129 17.4213 8.23935 17.6148 9.60968 17.4523 10.3161 16.9335 10.3568L16.9335 10.3568ZM15.1026 8.92839C15.12 9.43548 14.9845 9.78 14.6981 9.96 14.6265 10.0045 14.5084 9.9929 14.3419 9.9271 14.1755 9.86129 14.0594 9.77806 13.9955 9.68129 13.9606 9.6271 13.9452 9.44129 13.949 9.12581 13.9316 8.81226 13.8465 8.38839 13.6935 7.85226 13.5426 7.31613 13.3935 6.90774 13.2445 6.62903 12.6039 5.42323 11.4929 4.56 9.90968 4.03935 9.17226 3.79548 8.81613 3.52065 8.84129 3.2129 8.85097 3.07355 8.92258 2.95355 9.05226 2.85097 9.18194 2.75032 9.34258 2.69032 9.53226 2.6729L9.53419 2.6729C10.0142 2.64774 10.6123 2.80452 11.3284 3.14129 12.0465 3.47806 12.66 3.89226 13.1729 4.38194 14.1252 5.29548 14.7465 6.40645 15.0368 7.7129 15.06 7.82903 15.0813 8.23355 15.1026 8.92839L15.1026 8.92839ZM17.8239 15.5419C17.8626 16.2019 17.3923 17.0652 16.411 18.1297 15.6406 18.9658 14.5103 19.2155 13.0161 18.8768 10.3665 18.2787 7.94516 16.9413 5.75226 14.8645 4.00839 13.2116 2.61097 11.4097 1.55806 9.46064 1.30645 8.99419 1.06258 8.45806 0.828387 7.85032 0.594194 7.24258 0.423871 6.71419 0.32129 6.26129L0.149032 5.68452C0.0290323 5.28387-0.0193548 4.77871 0.00580645 4.16903 0.0329032 3.55742 0.118065 3.10258 0.267097 2.80258 0.439355 2.46581 0.805161 2.09419 1.36258 1.68387 1.92 1.27548 2.50839 0.946452 3.13161 0.69871 3.89806 0.392903 4.63161 0.762581 5.33419 1.80968 5.40581 1.91613 5.49097 2.05161 5.59161 2.21419 5.69226 2.37871 5.76968 2.51032 5.82387 2.60903L5.82581 2.61097C6.55161 3.98323 6.92323 4.88323 6.94258 5.31484 6.95032 5.62452 6.92516 5.83161 6.86516 5.93806 6.82258 6.01548 6.73355 6.11613 6.59613 6.23806 6.41032 6.40645 5.82581 6.88064 4.84258 7.66258 6.30774 10.1284 8.22774 12.0697 10.6065 13.4845L10.7768 13.5852 12.929 11.7561C13.7458 12.1277 14.5781 12.5961 15.4297 13.1594 16.9665 14.1774 17.7658 14.971 17.8239 15.5419L17.8239 15.5419ZM9.89032 6.64065C9.67742 6.54387 9.44323 6.47419 9.19161 6.43548 8.98065 6.26516 8.86258 6.09484 8.83935 5.92452 8.81613 5.74064 8.89548 5.56645 9.07935 5.4 9.26323 5.23355 9.44516 5.17161 9.62129 5.21419L9.62129 5.21226C11.0903 5.68452 12.0368 6.51677 12.4587 7.71097 12.8942 8.93419 12.7529 9.54387 12.0368 9.53806 11.6535 9.5071 11.3884 9.06774 11.2452 8.21419 11.1832 7.91032 11.0245 7.61032 10.7671 7.31226 10.5116 7.01226 10.2194 6.78968 9.89032 6.64065L9.89032 6.64065Z" fill="#FFFFFF" fill-rule="evenodd" transform="matrix(1 0 0 1.04377 84 501)"/></g></svg>