<?xml version="1.0" encoding="UTF-8"?>
<!DOCTYPE svg PUBLIC "-//W3C//DTD SVG 1.1//EN" "http://www.w3.org/Graphics/SVG/1.1/DTD/svg11.dtd">
<!-- Creator: FutureCorp VMX -->
<svg xmlns="http://www.w3.org/2000/svg" xml:space="preserve" shape-rendering="geometricPrecision" text-rendering="geometricPrecision" image-rendering="optimizeQuality" fill-rule="evenodd" clip-rule="evenodd" viewBox="0 0 244 244" enable-background="new 0 0 244 244" 
 xmlns:xlink="http://www.w3.org/1999/xlink">
 <g id="Layer_1">
  <metadata id="FutureCorpID_Layer"/>

  <path fill="#F6F3EE" d="M234.92,121.8 C234.92,184.29 184.27,234.94 121.78,234.94 C59.29,234.94 8.63,184.29 8.63,121.8 C8.63,59.31 59.29,8.65 121.78,8.65 C184.27,8.65 234.92,59.31 234.92,121.8 L234.92,121.8 z"/>
  <path fill="#07767D" d="M123.22,0 L123.2,0 C145.12,0.28 166.01,6.24 184.48,17.5 C196.58,24.87 205.37,32.35 214.83,43.31 C222.21,51.86 230.04,64.66 234.35,75.23 C247.92,108.46 246.42,146.04 230.27,177.15 C223.48,190.21 214.49,201.97 203.95,211.55 C197.56,217.36 192.35,221.31 185.95,225.19 C175.08,231.79 167.87,235.09 157.18,238.34 C124.25,248.34 88.55,243.94 59.43,226.28 C47.12,218.82 38.09,211.14 28.53,200.01 C22.91,193.47 15.69,182.29 11.81,174.11 C-5.74,137.14 -3.62,93.82 17.44,59.21 C23.18,49.77 29.23,42.08 36.35,35.16 C45.06,26.69 53.54,20.41 64.23,14.5 C81.43,5 102.59,-0.2 123.22,0 L123.22,0 zM123.52,20.3 L123.48,20.28 C120.74,20.24 118.32,20.29 115.89,20.45 C81.01,22.72 50.59,41.81 33.25,72.3 C27.31,82.75 23.28,94.72 21.39,107.5 C18.72,125.61 21.14,144.25 28.36,161.28 C33.06,172.34 38.72,181.09 47.48,190.86 C51.86,195.74 58.77,201.64 65.09,205.89 C90.75,223.15 122.69,227.81 152.1,218.57 C176.94,210.77 197.26,194.26 210.35,171.25 C216.35,160.7 220.39,148.64 222.26,135.66 C224.63,119.2 222.87,102.84 217,86.81 C212.87,75.56 206.15,64.07 198.88,55.87 C193.51,49.8 192.8,49.09 187.54,44.53 C170.37,29.66 146.66,20.69 123.52,20.3 L123.52,20.3 z"/>
  <path fill="#07767D" d="M121.95,25.01 L121.95,25 C122.2,25.18 121.76,21.8 125.06,48.63 C128.2,48.55 127.18,48.47 132.21,49.22 C145.37,51.18 155.7,55.6 167.09,64.12 L169.17,65.68 C179.05,60.78 176.58,62 186.46,57.1 L177.94,74.34 L181.71,79.63 C189.4,90.42 193.65,102.37 194.93,116.82 C195.02,117.82 195,117.57 195.09,118.57 C208.42,120.25 205.09,119.83 218.43,121.5 C218.59,121.61 218.66,121.73 218.63,121.83 C218.53,122.24 221.9,121.78 195.03,125.07 L194.15,133.56 C188.61,166.92 161.96,191.66 128.13,194.83 C126.37,195 126.81,194.96 125.04,195.12 C123.35,208.45 123.77,205.11 122.08,218.44 C122,218.59 121.88,218.66 121.74,218.65 C121.33,218.64 121.79,222 118.52,195.12 L108.56,193.93 C96.54,191.73 86.83,187.31 75.98,179.1 L74.4,177.9 L57.06,186.52 L65.67,169.16 L59.78,160.95 C52.84,149.88 49.67,139.82 48.45,125.07 L25.13,122.1 C24.95,121.99 24.9,121.91 24.92,121.76 C24.99,121.35 21.95,121.77 46.22,118.83 C47.5,118.67 47.17,118.71 48.46,118.56 C49.05,110.81 48.84,112.44 49.93,107.16 C56.63,74.53 83.69,50.99 117.27,48.59 C117.96,48.54 117.84,48.55 118.53,48.5 C120.21,35.16 119.79,38.49 121.47,25.15 C121.6,24.94 121.8,24.88 121.95,25.01 L121.95,25.01 zM114.41,81.84 L114.4,81.84 L117.92,53.3 C117.3,53.32 116.89,53.34 116.27,53.39 C85.69,55.6 59.72,79.05 54.24,109.4 C53.06,115.92 53.19,114.69 53.34,117.99 L89.32,113.57 L81.62,129.15 L53.28,125.66 C53.26,127.28 53.25,126.87 53.4,128.57 C54.33,139.03 58.26,150.12 64.36,159.57 L68.02,164.37 C84.82,130.42 80.63,138.91 97.38,104.95 C100.13,99.39 99.56,99.98 104.29,97.78 L164.25,68.1 C157.2,61.76 144.91,56.2 133.63,54.24 C127.74,53.21 128.89,53.34 125.56,53.38 C127.57,69.57 127.07,65.52 129.07,81.71 C120.16,86.13 122.39,85.02 113.48,89.44 C114.01,85.1 113.88,86.18 114.41,81.84 L114.41,81.84 zM178.4,116.59 L178.4,116.59 C185.1,117.4 183.43,117.2 190.13,118.01 L190.02,114.36 C188.86,104.2 185.32,94.15 179.73,85.17 L175.5,79.28 L147.71,135.34 C142.97,144.9 144.07,143.46 140.05,145.45 L79.24,175.59 L81.57,177.6 C88.94,183.08 99.11,187.41 109.21,189.36 L117.9,190.49 C115.91,174.2 116.41,178.27 114.42,161.98 L130.02,154.23 C127.46,174.89 128.1,169.72 125.54,190.39 C126.22,190.37 126.68,190.35 127.34,190.3 C149.77,188.66 170.71,175.07 181.86,154.92 C186.05,147.35 188.16,140.9 189.85,130.38 L190.11,125.72 L154.08,130.18 L161.79,114.58 L178.4,116.59 L178.4,116.59 zM123.91,105.65 L123.88,105.64 C114.83,104.52 106.75,110.65 105.58,119.54 C104.37,128.73 110.45,136.83 119.45,138.01 C128.58,139.21 136.71,133.03 137.86,124.03 C139.02,114.94 132.88,106.85 123.91,105.65 L123.91,105.65 z"/>
 </g>
</svg>

