<?xml version="1.0" encoding="UTF-8"?>
<!DOCTYPE svg PUBLIC "-//W3C//DTD SVG 1.1//EN" "http://www.w3.org/Graphics/SVG/1.1/DTD/svg11.dtd">
<!-- Creator: FutureCorp VMX -->
<svg xmlns="http://www.w3.org/2000/svg" xml:space="preserve" shape-rendering="geometricPrecision" text-rendering="geometricPrecision" image-rendering="optimizeQuality" fill-rule="evenodd" clip-rule="evenodd" viewBox="0 0 73 72" enable-background="new 0 0 73 72" 
 xmlns:xlink="http://www.w3.org/1999/xlink">
 <g id="Layer_1">
  <metadata id="FutureCorpID_Layer"/>

  <path fill="#07767D" d="M36.53,0 L36.5,0 L40.45,0.27 C43.46,0.63 45.88,1.2 48.82,2.24 C54.28,4.18 58.59,7.02 62.85,11.49 C64.83,13.56 65.52,14.45 67.32,17.31 C68.6,19.34 69.32,20.82 70.37,23.58 C71.59,26.78 72.19,29.72 72.41,33.57 L72.49,34.9 C72.52,35.58 72.54,35.22 72.4,37.43 C72.24,39.95 72.29,39.43 72.03,41.06 C71.47,44.68 70.65,47.24 68.92,50.81 C67.99,52.73 67.35,53.86 66.23,55.51 C63.12,60.11 58.37,64.27 53.23,66.88 C49.11,68.98 45.5,70.13 41.06,70.74 C38.92,71.03 37.48,71.08 33.97,70.97 C31.38,70.9 27.13,70.06 24.31,69.07 C22.01,68.26 21.03,67.84 19.01,66.77 C14.58,64.43 10.45,61.01 7.57,57.32 C5.6,54.78 4.23,52.55 2.9,49.7 C2.25,48.3 1.55,46.25 1.06,44.28 C-0.25,39.03 -0.35,33.15 0.79,28.07 C1.73,23.89 3.07,20.65 5.46,16.73 C8.43,11.88 12.52,7.96 17.71,4.99 C19.89,3.75 21.57,2.97 23.69,2.24 C26.78,1.17 27.99,0.87 31.26,0.39 C32.4,0.23 31.99,0.26 34.15,0.14 L35.43,0.04 C35.87,0.01 36.17,0 36.53,0 L36.53,0 zM36.62,12.6 L36.62,12.6 C32.68,12.59 29.51,13.31 26.16,14.99 C20.85,17.64 16.49,22.43 14.61,27.69 C12.75,32.87 12.75,38.09 14.62,43.37 C17.44,51.33 25.17,57.45 33.47,58.3 C35.32,58.49 36.28,58.51 37.76,58.41 C41.32,58.15 43.54,57.56 46.33,56.13 C53,52.71 57.48,46.86 58.79,39.86 C60.22,32.29 58.03,25.07 52.65,19.63 C48.23,15.15 42.53,12.64 36.62,12.6 L36.62,12.6 z"/>
  <path fill="#FFFFFF" d="M33.24,60.33 C34.97,60.51 36.54,60.54 37.92,60.44 C41.41,60.19 44.52,59.37 47.26,57.96 C54.82,54.09 59.35,48.18 60.84,40.24 C62.44,31.69 60.21,24.34 54.15,18.19 C49.16,13.13 43.34,10.58 36.68,10.53 L36.68,10.53 C32.57,10.52 28.77,11.38 25.27,13.13 C19.08,16.22 14.89,20.83 12.68,26.97 C10.66,32.62 10.66,38.31 12.7,44.06 C14.23,48.4 16.91,52.08 20.73,55.1 C24.55,58.12 28.72,59.87 33.24,60.33 L33.24,60.33 z"/>
  <path fill="#07767D" d="M31.46,26.83 L31.45,26.82 L36.01,14.07 L49.8,50.37 L36.31,46.33 C36.11,46.32 36.57,46.19 33.09,47.23 L22.71,50.33 L31.46,26.83 L31.46,26.83 z"/>
  <path fill="#FFFFFF" d="M35.81,20.06 L35.91,44.42 L25.39,47.82 L35.81,20.06 L35.81,20.06 z"/>
 </g>
</svg>

