<?xml version="1.0" encoding="UTF-8"?>
<!DOCTYPE svg PUBLIC "-//W3C//DTD SVG 1.1//EN" "http://www.w3.org/Graphics/SVG/1.1/DTD/svg11.dtd">
<!-- Creator: FutureCorp VMX -->
<svg xmlns="http://www.w3.org/2000/svg" xml:space="preserve" shape-rendering="geometricPrecision" text-rendering="geometricPrecision" image-rendering="optimizeQuality" fill-rule="evenodd" clip-rule="evenodd" viewBox="0 0 499 98" enable-background="new 0 0 499 98" 
 xmlns:xlink="http://www.w3.org/1999/xlink">
 <g id="Layer_1">
  <metadata id="FutureCorpID_Layer"/>

  <path fill="#076F76" d="M64.6,82.05 L60.16,95.72 L57.83,95.72 L55.32,87.28 L52.79,95.72 L50.47,95.72 L46.03,82.05 L48.83,82.05 L51.72,90.88 L54.21,82.05 L56.4,82.05 L58.89,90.9 L61.81,82.05 L64.6,82.05 L64.6,82.05 z"/>
  <path fill="#076F76" d="M79.53,88.88 C79.53,89.86 79.34,90.78 78.96,91.65 C78.56,92.54 78.05,93.29 77.4,93.91 C76.74,94.55 75.96,95.05 75.09,95.42 C74.21,95.79 73.27,95.97 72.3,95.97 C71.33,95.97 70.39,95.79 69.48,95.43 C68.6,95.05 67.82,94.53 67.17,93.91 C66.53,93.3 66.01,92.55 65.61,91.67 C65.23,90.79 65.04,89.87 65.04,88.88 C65.04,87.89 65.23,86.97 65.62,86.1 C66.01,85.2 66.53,84.46 67.17,83.83 C68.52,82.53 70.37,81.79 72.3,81.79 C73.27,81.79 74.21,81.98 75.09,82.33 C75.97,82.69 76.74,83.2 77.4,83.86 C78.04,84.48 78.56,85.22 78.96,86.12 C79.34,86.97 79.53,87.89 79.53,88.88 L79.53,88.88 zM76.88,88.88 C76.88,88.25 76.77,87.67 76.53,87.12 C76.28,86.55 75.96,86.08 75.53,85.67 C75.14,85.26 74.66,84.93 74.08,84.67 C73.53,84.43 72.94,84.3 72.3,84.3 C71.64,84.3 71.05,84.43 70.49,84.67 C69.92,84.93 69.43,85.26 69.04,85.67 C68.62,86.08 68.29,86.55 68.04,87.12 C67.81,87.67 67.69,88.25 67.69,88.88 C67.69,90.09 68.17,91.24 69.04,92.11 C69.43,92.5 69.91,92.83 70.49,93.1 C71.06,93.34 71.66,93.46 72.3,93.46 C72.92,93.46 73.52,93.34 74.08,93.1 C75.25,92.55 76.06,91.74 76.52,90.64 C76.76,90.08 76.88,89.5 76.88,88.88 L76.88,88.88 z"/>
  <path fill="#076F76" d="M91.87,95.72 L88.95,95.72 L87.98,92.6 C87.75,91.85 87.47,91.35 87.05,90.93 C86.83,90.73 86.58,90.58 86.26,90.45 C85.99,90.34 85.63,90.28 85.2,90.28 L84.21,90.28 L84.21,95.72 L81.6,95.72 L81.6,82.07 L86.98,82.05 C87.56,82.05 88.11,82.15 88.6,82.36 C89.11,82.54 89.54,82.81 89.9,83.18 C90.67,83.95 91.06,84.89 91.06,85.98 C91.06,86.76 90.8,87.56 90.35,88.18 C90.15,88.48 89.89,88.75 89.54,89.04 C89.22,89.28 88.88,89.47 88.52,89.58 C88.94,89.74 89.3,89.97 89.58,90.28 C89.84,90.57 90.05,90.92 90.21,91.36 C90.27,91.5 90.3,91.57 90.51,92.15 C90.75,92.81 90.79,92.93 91.17,94.04 C91.29,94.42 91.41,94.74 91.53,95.02 C91.62,95.26 91.74,95.5 91.87,95.72 L91.87,95.72 zM88.42,86.17 C88.42,85.83 88.36,85.54 88.24,85.29 C88,84.77 87.57,84.37 87.03,84.17 C86.75,84.05 86.46,84 86.13,84 L84.21,84 L84.21,88.25 L86.13,88.25 C86.43,88.25 86.71,88.21 87.03,88.11 C87.32,88.01 87.55,87.87 87.75,87.69 C88.22,87.26 88.42,86.81 88.42,86.17 L88.42,86.17 z"/>
  <path fill="#076F76" d="M105.07,95.72 L101.62,95.72 L96.16,89.67 L96.16,95.72 L93.51,95.72 L93.51,82.05 L96.16,82.05 L96.16,88.15 L101.74,82.05 L104.89,82.05 L98.72,88.76 L105.07,95.72 L105.07,95.72 z"/>
  <path fill="#076F76" d="M115.29,84.34 L108.87,84.34 L108.87,87.52 L115.21,87.52 L115.21,89.67 L108.87,89.67 L108.87,95.72 L106.27,95.72 L106.27,82.07 L115.29,82.07 L115.29,84.34 L115.29,84.34 z"/>
  <path fill="#076F76" d="M126.24,95.72 L117,95.72 L117,82.07 L119.7,82.07 L119.7,93.15 L126.24,93.15 L126.24,95.72 L126.24,95.72 z"/>
  <path fill="#076F76" d="M140.85,88.88 C140.85,89.86 140.66,90.78 140.28,91.65 C139.88,92.54 139.37,93.29 138.72,93.91 C138.06,94.55 137.29,95.05 136.41,95.42 C135.53,95.79 134.59,95.97 133.62,95.97 C132.65,95.97 131.71,95.79 130.81,95.43 C129.92,95.05 129.14,94.53 128.49,93.91 C127.85,93.3 127.33,92.55 126.93,91.67 C126.55,90.79 126.36,89.87 126.36,88.88 C126.36,87.89 126.55,86.97 126.94,86.1 C127.33,85.2 127.85,84.46 128.49,83.83 C129.84,82.53 131.69,81.79 133.62,81.79 C134.59,81.79 135.53,81.98 136.41,82.33 C137.29,82.69 138.06,83.2 138.72,83.86 C139.37,84.48 139.88,85.22 140.28,86.12 C140.66,86.97 140.85,87.89 140.85,88.88 L140.85,88.88 zM138.2,88.88 C138.2,88.25 138.09,87.67 137.85,87.12 C137.61,86.55 137.28,86.08 136.85,85.67 C136.46,85.26 135.98,84.93 135.4,84.67 C134.85,84.43 134.26,84.3 133.62,84.3 C132.96,84.3 132.37,84.43 131.81,84.67 C131.24,84.93 130.75,85.26 130.36,85.67 C129.94,86.08 129.61,86.55 129.37,87.12 C129.13,87.67 129.01,88.25 129.01,88.88 C129.01,90.09 129.49,91.24 130.36,92.11 C130.75,92.5 131.23,92.83 131.81,93.1 C132.38,93.34 132.98,93.46 133.62,93.46 C134.24,93.46 134.84,93.34 135.4,93.1 C136.57,92.55 137.38,91.74 137.84,90.64 C138.09,90.08 138.2,89.5 138.2,88.88 L138.2,88.88 z"/>
  <path fill="#076F76" d="M159.89,82.05 L155.44,95.72 L153.12,95.72 L150.61,87.28 L148.08,95.72 L145.76,95.72 L141.31,82.05 L144.12,82.05 L147,90.88 L149.5,82.05 L151.68,82.05 L154.18,90.9 L157.1,82.05 L159.89,82.05 L159.89,82.05 z"/>
  <path fill="#076F76" d="M170.46,92.13 C170.46,93.17 170.06,94.03 169.2,94.81 C168.83,95.15 168.36,95.43 167.78,95.67 C167.23,95.87 166.63,95.97 165.97,95.97 C164.78,95.97 163.81,95.83 163.04,95.55 C162.63,95.4 162.24,95.21 161.85,94.98 C161.5,94.77 161.13,94.5 160.65,94.13 L162.53,92.23 C163.09,92.7 163.62,93.02 164.14,93.21 C164.66,93.39 165.22,93.48 165.85,93.48 C166.1,93.48 166.34,93.44 166.57,93.38 C166.78,93.29 166.97,93.19 167.15,93.07 C167.3,92.95 167.44,92.79 167.54,92.62 C167.63,92.44 167.68,92.25 167.68,92.06 C167.68,91.83 167.64,91.64 167.56,91.48 C167.46,91.29 167.32,91.13 167.13,90.98 C166.9,90.81 166.6,90.65 166.28,90.51 C165.95,90.35 165.5,90.17 164.88,89.94 C164.38,89.75 163.9,89.55 163.44,89.33 C162.98,89.09 162.57,88.8 162.23,88.47 C161.88,88.16 161.6,87.77 161.39,87.31 C161.17,86.88 161.06,86.35 161.06,85.74 C161.06,85.16 161.18,84.63 161.42,84.13 C161.64,83.65 161.96,83.24 162.38,82.89 C162.77,82.53 163.24,82.25 163.8,82.06 C164.34,81.87 164.93,81.78 165.54,81.78 C166.59,81.78 167.47,81.91 168.19,82.19 C168.91,82.46 169.54,82.85 170.1,83.38 L168.26,85.24 C167.9,84.9 167.52,84.66 167.11,84.49 C166.7,84.31 166.21,84.22 165.63,84.22 C165.35,84.22 165.12,84.26 164.91,84.34 C164.65,84.44 164.46,84.54 164.33,84.66 C164.16,84.79 164.03,84.95 163.95,85.12 C163.85,85.29 163.8,85.48 163.8,85.67 C163.8,85.87 163.84,86.06 163.94,86.27 C164.02,86.44 164.17,86.61 164.4,86.78 C164.64,86.95 164.94,87.12 165.27,87.28 C165.83,87.52 166.19,87.66 166.6,87.8 C167.98,88.29 168.94,88.85 169.56,89.53 C169.85,89.86 170.08,90.25 170.24,90.69 C170.39,91.11 170.46,91.58 170.46,92.13 L170.46,92.13 z"/>
  <path fill="#076F76" d="M222.97,95.71 L220.06,95.71 L218.8,92.98 L212.17,92.98 L210.89,95.71 L207.98,95.71 L214.44,82.04 L216.51,82.04 L222.97,95.71 L222.97,95.71 zM217.75,90.77 L215.48,85.85 L213.18,90.77 L217.75,90.77 L217.75,90.77 z"/>
  <path fill="#076F76" d="M235.34,82.04 L235.34,89.46 C235.34,91.26 234.79,92.85 233.75,94.07 C233.22,94.65 232.58,95.11 231.85,95.45 C231.09,95.78 230.23,95.95 229.29,95.95 C227.5,95.95 225.99,95.32 224.85,94.09 C224.32,93.52 223.91,92.85 223.62,92.07 C223.33,91.29 223.19,90.46 223.19,89.54 L223.19,82.04 L225.84,82.04 L225.84,89.56 C225.84,90.11 225.91,90.6 226.06,91.04 C226.38,92 226.94,92.65 227.78,93.06 C228.23,93.25 228.71,93.35 229.24,93.35 C230.38,93.35 231.15,93.03 231.82,92.29 C232.09,91.95 232.29,91.56 232.45,91.1 C232.59,90.63 232.65,90.14 232.65,89.59 L232.65,82.04 L235.34,82.04 L235.34,82.04 z"/>
  <path fill="#076F76" d="M246.94,84.41 L243.16,84.41 L243.16,95.71 L240.48,95.71 L240.48,84.41 L236.7,84.41 L236.7,82.06 L246.94,82.06 L246.94,84.41 L246.94,84.41 z"/>
  <path fill="#076F76" d="M261.87,88.87 C261.87,89.85 261.68,90.77 261.3,91.64 C260.9,92.54 260.39,93.28 259.74,93.9 C259.08,94.54 258.3,95.05 257.43,95.41 C256.55,95.78 255.61,95.96 254.64,95.96 C253.67,95.96 252.73,95.78 251.82,95.42 C250.94,95.04 250.16,94.52 249.51,93.9 C248.87,93.29 248.35,92.55 247.95,91.66 C247.57,90.79 247.38,89.86 247.38,88.87 C247.38,87.89 247.57,86.96 247.96,86.09 C248.35,85.2 248.86,84.45 249.51,83.83 C250.86,82.52 252.71,81.78 254.64,81.78 C255.61,81.78 256.55,81.97 257.43,82.33 C258.31,82.68 259.08,83.19 259.73,83.85 C260.38,84.47 260.9,85.21 261.3,86.11 C261.68,86.96 261.87,87.88 261.87,88.87 L261.87,88.87 zM259.22,88.87 C259.22,88.25 259.1,87.66 258.87,87.11 C258.62,86.55 258.3,86.07 257.87,85.66 C257.48,85.25 257,84.92 256.42,84.67 C255.87,84.42 255.27,84.3 254.64,84.3 C253.98,84.3 253.39,84.42 252.83,84.67 C252.26,84.92 251.77,85.25 251.38,85.66 C250.95,86.07 250.63,86.55 250.38,87.11 C250.15,87.66 250.03,88.25 250.03,88.87 C250.03,90.08 250.51,91.24 251.38,92.1 C251.77,92.49 252.25,92.82 252.83,93.09 C253.4,93.33 254,93.45 254.64,93.45 C255.26,93.45 255.86,93.33 256.42,93.09 C257.59,92.55 258.4,91.73 258.86,90.63 C259.1,90.07 259.22,89.49 259.22,88.87 L259.22,88.87 z"/>
  <path fill="#076F76" d="M277.57,95.71 L274.98,95.71 L274.98,86.58 L270.67,93.85 L266.53,86.52 L266.53,95.71 L263.94,95.71 L263.94,82.04 L266.93,82.04 L270.72,88.82 L274.68,82.04 L277.57,82.04 L277.57,95.71 L277.57,95.71 z"/>
  <path fill="#076F76" d="M293.92,95.71 L291.02,95.71 L289.75,92.98 L283.12,92.98 L281.84,95.71 L278.94,95.71 L285.4,82.04 L287.46,82.04 L293.92,95.71 L293.92,95.71 zM288.71,90.77 L286.44,85.85 L284.13,90.77 L288.71,90.77 L288.71,90.77 z"/>
  <path fill="#076F76" d="M302.45,84.41 L298.67,84.41 L298.67,95.71 L295.99,95.71 L295.99,84.41 L292.21,84.41 L292.21,82.06 L302.45,82.06 L302.45,84.41 L302.45,84.41 z"/>
  <path fill="#076F76" d="M306.81,95.71 L304.16,95.71 L304.16,82.06 L306.81,82.06 L306.81,95.71 L306.81,95.71 z"/>
  <path fill="#076F76" d="M323.35,88.87 C323.35,89.85 323.15,90.77 322.77,91.64 C322.37,92.54 321.86,93.28 321.22,93.9 C320.55,94.54 319.78,95.05 318.9,95.41 C318.02,95.78 317.08,95.96 316.12,95.96 C315.14,95.96 314.2,95.78 313.3,95.42 C312.42,95.04 311.63,94.52 310.99,93.9 C310.35,93.29 309.83,92.55 309.42,91.66 C309.04,90.79 308.86,89.86 308.86,88.87 C308.86,87.89 309.05,86.96 309.43,86.09 C309.83,85.2 310.34,84.45 310.98,83.83 C312.34,82.52 314.18,81.78 316.12,81.78 C317.08,81.78 318.02,81.97 318.9,82.33 C319.78,82.68 320.55,83.19 321.21,83.85 C321.86,84.47 322.38,85.21 322.78,86.11 C323.16,86.96 323.35,87.88 323.35,88.87 L323.35,88.87 zM320.7,88.87 C320.7,88.25 320.58,87.66 320.34,87.11 C320.1,86.55 319.77,86.07 319.35,85.66 C318.96,85.25 318.47,84.92 317.9,84.67 C317.35,84.42 316.75,84.3 316.12,84.3 C315.46,84.3 314.86,84.42 314.3,84.67 C313.73,84.92 313.25,85.25 312.85,85.66 C312.43,86.07 312.1,86.55 311.86,87.11 C311.62,87.66 311.5,88.25 311.5,88.87 C311.5,90.08 311.99,91.24 312.85,92.1 C313.24,92.49 313.73,92.82 314.31,93.09 C314.87,93.33 315.47,93.45 316.12,93.45 C316.74,93.45 317.33,93.33 317.89,93.09 C319.06,92.55 319.87,91.73 320.34,90.63 C320.58,90.07 320.7,89.49 320.7,88.87 L320.7,88.87 z"/>
  <path fill="#076F76" d="M336.77,95.71 L334.18,95.71 L328.01,86.12 L328.01,95.71 L325.41,95.71 L325.41,82.04 L328.39,82.04 L334.18,90.96 L334.18,82.04 L336.77,82.04 L336.77,95.71 L336.77,95.71 z"/>
  <path fill="#076F76" d="M386.85,95.72 L383.93,95.72 L382.97,92.6 C382.73,91.85 382.46,91.35 382.04,90.93 C381.82,90.73 381.56,90.58 381.25,90.45 C380.97,90.34 380.62,90.28 380.19,90.28 L379.2,90.28 L379.2,95.72 L376.59,95.72 L376.59,82.07 L381.97,82.05 C382.55,82.05 383.1,82.15 383.59,82.36 C384.1,82.54 384.53,82.81 384.89,83.18 C385.66,83.95 386.05,84.89 386.05,85.98 C386.05,86.76 385.79,87.56 385.33,88.18 C385.13,88.48 384.88,88.75 384.53,89.04 C384.21,89.28 383.87,89.47 383.5,89.58 C383.93,89.74 384.29,89.97 384.56,90.28 C384.83,90.57 385.04,90.92 385.2,91.36 C385.26,91.5 385.29,91.57 385.49,92.15 C385.73,92.81 385.78,92.93 386.15,94.04 C386.27,94.42 386.39,94.74 386.51,95.02 C386.61,95.26 386.73,95.5 386.85,95.72 L386.85,95.72 zM383.4,86.17 C383.4,85.83 383.35,85.54 383.23,85.29 C382.99,84.77 382.55,84.37 382.02,84.17 C381.74,84.05 381.45,84 381.11,84 L379.2,84 L379.2,88.25 L381.11,88.25 C381.41,88.25 381.7,88.21 382.02,88.11 C382.3,88.01 382.54,87.87 382.74,87.69 C383.21,87.26 383.4,86.81 383.4,86.17 L383.4,86.17 z"/>
  <path fill="#076F76" d="M397.52,95.72 L388.49,95.72 L388.49,82.07 L397.52,82.07 L397.52,84.25 L391.09,84.25 L391.09,87.52 L397.43,87.52 L397.43,89.65 L391.09,89.65 L391.09,93.41 L397.52,93.41 L397.52,95.72 L397.52,95.72 z"/>
  <path fill="#076F76" d="M408.69,92.13 C408.69,93.17 408.29,94.03 407.43,94.81 C407.06,95.15 406.59,95.43 406.01,95.67 C405.46,95.87 404.86,95.97 404.2,95.97 C403,95.97 402.03,95.83 401.27,95.55 C400.86,95.4 400.47,95.21 400.08,94.98 C399.73,94.77 399.36,94.5 398.88,94.13 L400.76,92.23 C401.32,92.7 401.84,93.02 402.37,93.21 C402.89,93.39 403.45,93.48 404.08,93.48 C404.33,93.48 404.57,93.44 404.79,93.38 C405.01,93.29 405.2,93.19 405.37,93.07 C405.53,92.95 405.67,92.79 405.77,92.62 C405.86,92.44 405.9,92.25 405.9,92.06 C405.9,91.83 405.87,91.64 405.78,91.48 C405.69,91.29 405.55,91.13 405.36,90.98 C405.13,90.81 404.83,90.65 404.5,90.51 C404.17,90.35 403.73,90.17 403.1,89.94 C402.61,89.75 402.13,89.55 401.67,89.33 C401.21,89.09 400.8,88.8 400.45,88.47 C400.11,88.16 399.83,87.77 399.62,87.31 C399.4,86.88 399.29,86.35 399.29,85.74 C399.29,85.16 399.41,84.63 399.65,84.13 C399.87,83.65 400.18,83.24 400.61,82.89 C401,82.53 401.47,82.25 402.02,82.06 C402.57,81.87 403.15,81.78 403.77,81.78 C404.81,81.78 405.7,81.91 406.42,82.19 C407.14,82.46 407.77,82.85 408.33,83.38 L406.49,85.24 C406.13,84.9 405.75,84.66 405.34,84.49 C404.92,84.31 404.43,84.22 403.85,84.22 C403.58,84.22 403.35,84.26 403.14,84.34 C402.88,84.44 402.69,84.54 402.56,84.66 C402.39,84.79 402.26,84.95 402.18,85.12 C402.08,85.29 402.03,85.48 402.03,85.67 C402.03,85.87 402.07,86.06 402.16,86.27 C402.25,86.44 402.4,86.61 402.62,86.78 C402.87,86.95 403.17,87.12 403.5,87.28 C404.05,87.52 404.42,87.66 404.83,87.8 C406.21,88.29 407.17,88.85 407.78,89.53 C408.08,89.86 408.31,90.25 408.47,90.69 C408.62,91.11 408.69,91.58 408.69,92.13 L408.69,92.13 z"/>
  <path fill="#076F76" d="M422.55,82.05 L422.55,89.46 C422.55,91.27 422,92.86 420.96,94.08 C420.43,94.66 419.8,95.12 419.06,95.46 C418.3,95.79 417.44,95.96 416.5,95.96 C414.71,95.96 413.2,95.32 412.06,94.1 C411.53,93.53 411.12,92.85 410.83,92.08 C410.54,91.3 410.4,90.47 410.4,89.55 L410.4,82.05 L413.05,82.05 L413.05,89.57 C413.05,90.12 413.12,90.61 413.27,91.05 C413.59,92.01 414.15,92.66 414.99,93.07 C415.44,93.26 415.92,93.36 416.45,93.36 C417.59,93.36 418.36,93.04 419.03,92.3 C419.3,91.96 419.5,91.57 419.66,91.1 C419.8,90.64 419.86,90.14 419.86,89.6 L419.86,82.05 L422.55,82.05 L422.55,82.05 z"/>
  <path fill="#076F76" d="M434.01,95.72 L424.77,95.72 L424.77,82.07 L427.47,82.07 L427.47,93.15 L434.01,93.15 L434.01,95.72 L434.01,95.72 z"/>
  <path fill="#076F76" d="M442.71,84.42 L438.93,84.42 L438.93,95.72 L436.25,95.72 L436.25,84.42 L432.47,84.42 L432.47,82.07 L442.71,82.07 L442.71,84.42 L442.71,84.42 z"/>
  <path fill="#076F76" d="M453.54,92.13 C453.54,93.17 453.14,94.03 452.28,94.81 C451.91,95.15 451.44,95.43 450.86,95.67 C450.31,95.87 449.71,95.97 449.05,95.97 C447.86,95.97 446.88,95.83 446.12,95.55 C445.71,95.4 445.32,95.21 444.93,94.98 C444.58,94.77 444.21,94.5 443.73,94.13 L445.61,92.23 C446.17,92.7 446.7,93.02 447.22,93.21 C447.74,93.39 448.3,93.48 448.93,93.48 C449.18,93.48 449.42,93.44 449.64,93.38 C449.86,93.29 450.05,93.19 450.23,93.07 C450.38,92.95 450.52,92.79 450.62,92.62 C450.71,92.44 450.75,92.25 450.75,92.06 C450.75,91.83 450.72,91.64 450.64,91.48 C450.54,91.29 450.4,91.13 450.21,90.98 C449.98,90.81 449.68,90.65 449.35,90.51 C449.03,90.35 448.58,90.17 447.95,89.94 C447.46,89.75 446.98,89.55 446.52,89.33 C446.06,89.09 445.65,88.8 445.3,88.47 C444.96,88.16 444.68,87.77 444.47,87.31 C444.25,86.88 444.14,86.35 444.14,85.74 C444.14,85.16 444.26,84.63 444.5,84.13 C444.72,83.65 445.03,83.24 445.46,82.89 C445.85,82.53 446.32,82.25 446.88,82.06 C447.42,81.87 448,81.78 448.62,81.78 C449.66,81.78 450.55,81.91 451.27,82.19 C451.99,82.46 452.62,82.85 453.18,83.38 L451.34,85.24 C450.98,84.9 450.6,84.66 450.19,84.49 C449.77,84.31 449.28,84.22 448.7,84.22 C448.43,84.22 448.2,84.26 447.99,84.34 C447.73,84.44 447.54,84.54 447.41,84.66 C447.24,84.79 447.11,84.95 447.03,85.12 C446.93,85.29 446.88,85.48 446.88,85.67 C446.88,85.87 446.92,86.06 447.01,86.27 C447.1,86.44 447.25,86.61 447.47,86.78 C447.72,86.95 448.02,87.12 448.35,87.28 C448.9,87.52 449.27,87.66 449.68,87.8 C451.06,88.29 452.02,88.85 452.63,89.53 C452.93,89.86 453.16,90.25 453.32,90.69 C453.47,91.11 453.54,91.58 453.54,92.13 L453.54,92.13 z"/>
  <path fill="#076F76" d="M188.4,97.25 L186.47,97.25 L186.47,80.5 L188.4,80.5 L188.4,97.25 L188.4,97.25 z"/>
  <path fill="#076F76" d="M359.74,97.25 L357.81,97.25 L357.81,80.5 L359.74,80.5 L359.74,97.25 L359.74,97.25 z"/>
  <path fill="#076F76" d="M-0,89.64 L-0,87.71 L29,87.71 L29,89.64 L-0,89.64 L-0,89.64 z"/>
  <path fill="#076F76" d="M469.54,89.64 L469.54,87.71 L498.54,87.71 L498.54,89.64 L469.54,89.64 L469.54,89.64 z"/>
  <path fill="#1F497D" d="M65.51,42.47 L65.51,42.47 C66.35,39.92 77.6,5.86 78.44,3.31 C78.83,2.13 78.73,2.42 79.12,1.24 L93.06,1.24 C81.75,36.06 84.57,27.36 73.26,62.18 L70.79,69.78 C64.15,69.78 65.81,69.78 59.16,69.78 C52.13,46.18 53.89,52.08 46.86,28.48 C46.69,27.91 46.74,28.05 46.57,27.49 L33.89,69.78 C27.25,69.78 28.91,69.78 22.27,69.78 C13.35,42.33 15.58,49.19 6.67,21.74 L0.29,2.08 C0.26,1.99 0.04,1.33 0.02,1.24 L14.02,1.24 L24.77,34.11 C26.91,40.66 26.38,39.02 28.52,45.58 C35.21,21.86 33.54,27.79 40.23,4.08 L41.03,1.24 C47.27,1.24 45.71,1.24 51.95,1.24 L62.85,39.94 C64.61,46.18 64.38,45.4 64.44,45.41 C64.54,45.42 64.51,45.49 65.51,42.47 L65.51,42.47 z"/>
  <path fill="#1F497D" d="M141.43,32.41 L159.07,69.78 L144.54,69.78 C140.92,61.95 141.82,63.91 138.2,56.08 C119.24,56.08 123.98,56.08 105.01,56.08 C101.35,63.91 102.26,61.95 98.6,69.78 C90.3,69.78 92.37,69.78 84.07,69.78 L116.43,1.24 C122.31,1.24 120.84,1.24 126.71,1.24 C133.92,16.51 132.12,12.69 139.33,27.96 L141.43,32.41 L141.43,32.41 zM125.22,28.18 L125.22,28.18 C123.16,23.73 123.67,24.84 121.62,20.39 L110.07,45.02 C123.17,45.02 119.89,45.02 132.99,45.02 C128.55,35.4 129.66,37.81 125.22,28.18 L125.22,28.18 z"/>
  <path fill="#1F497D" d="M180.23,25.25 L180.23,25.26 L194.59,3.03 C195.18,2.11 195.03,2.34 195.62,1.43 L211.59,1.43 L183.73,41.78 C183.73,57.85 183.73,53.83 183.73,69.91 L170.29,69.9 C170.28,53.87 170.28,57.88 170.26,41.84 C170.19,41.43 170.39,41.76 168.91,39.52 C155.8,19.57 159.08,24.56 145.97,4.6 C144.79,2.79 145.08,3.24 143.9,1.43 L159.28,1.43 C169.06,17.23 166.61,13.28 176.39,29.09 L177.06,30.17 C178.87,27.36 178.42,28.06 180.23,25.25 L180.23,25.25 z"/>
  <path fill="#1F497D" d="M260.16,8.13 L260.16,8.13 C262.77,10.69 264.92,14.31 265.95,17.84 C267.56,23.39 267.08,29.2 264.6,34.34 C262.08,39.58 258.05,43.42 252.76,45.64 C249.88,46.84 246.98,47.37 243.07,47.38 C236.82,47.4 238.38,47.4 232.14,47.4 C232.14,60.19 232.14,56.99 232.14,69.78 L218.9,69.78 C218.9,30.72 218.9,40.48 218.9,1.43 C234.01,1.46 230.23,1.45 245.34,1.49 C247.1,1.56 249.43,2.05 251.45,2.76 C254.88,3.97 257.63,5.66 260.16,8.13 L260.16,8.13 zM249.84,15.11 L249.84,15.11 C249.43,14.71 248.82,14.2 248.29,13.83 C245.9,12.11 243.68,11.43 240.41,11.42 L232.13,11.37 C232.14,26.16 232.14,22.46 232.14,37.25 C237.18,37.26 235.92,37.26 240.95,37.23 C244.26,37.22 247.25,36 249.54,33.75 C250.56,32.74 251.42,31.58 252.22,30.13 C253.66,27.52 254.03,23.89 253.17,20.67 C252.65,18.72 251.39,16.6 249.84,15.11 L249.84,15.11 z"/>
  <path fill="#1F497D" d="M368.97,1.43 C368.97,40.48 368.97,30.72 368.96,69.78 C361.39,69.78 363.29,69.78 355.72,69.78 C355.72,30.94 355.72,40.65 355.72,1.82 L355.72,1.43 L368.97,1.43 L368.97,1.43 z"/>
  <path fill="#1F497D" d="M438.72,4.45 C438.72,41.78 438.72,32.45 438.72,69.78 L425.71,69.78 L394.81,21.76 C394.81,49.2 394.81,42.34 394.81,69.78 L381.82,69.78 L381.82,1.24 L396.64,1.24 C413.23,26.8 409.08,20.41 425.67,45.97 C425.67,24.49 425.67,29.86 425.67,8.37 L425.67,1.24 C433.13,1.24 431.27,1.24 438.72,1.24 L438.72,4.45 L438.72,4.45 z"/>
  <path fill="#1F497D" d="M498.52,1.43 L498.52,13.2 L479.61,13.2 C479.62,45.34 479.62,37.31 479.62,69.45 L479.62,69.78 C471.94,69.78 473.86,69.78 466.18,69.78 C466.18,37.44 466.18,45.53 466.18,13.19 L447.21,13.2 C447.21,6.47 447.21,8.15 447.21,1.43 C465.62,1.43 461.02,1.43 479.42,1.43 L498.52,1.43 L498.52,1.43 z"/>
  <path fill="#07767D" d="M309.38,0 L309.35,0 L313.3,0.27 C316.31,0.63 318.73,1.2 321.66,2.24 C327.12,4.18 331.43,7.02 335.7,11.49 C337.68,13.56 338.36,14.45 340.16,17.31 C341.44,19.35 342.16,20.82 343.21,23.58 C344.44,26.78 345.04,29.72 345.26,33.57 L345.33,34.9 C345.37,35.58 345.38,35.22 345.24,37.43 C345.08,39.95 345.13,39.43 344.88,41.06 C344.31,44.68 343.49,47.24 341.77,50.81 C340.84,52.73 340.19,53.86 339.08,55.51 C335.97,60.11 331.21,64.27 326.08,66.88 C321.96,68.98 318.35,70.13 313.91,70.74 C311.77,71.03 310.32,71.08 306.81,70.97 C304.23,70.9 299.98,70.06 297.15,69.07 C294.86,68.26 293.88,67.84 291.85,66.77 C287.43,64.43 283.3,61.01 280.42,57.32 C278.44,54.78 277.07,52.55 275.75,49.7 C275.1,48.3 274.4,46.25 273.91,44.28 C272.59,39.03 272.49,33.15 273.64,28.07 C274.58,23.89 275.91,20.65 278.31,16.73 C281.27,11.88 285.36,7.96 290.56,4.99 C292.74,3.75 294.42,2.97 296.54,2.24 C299.62,1.17 300.84,0.87 304.1,0.39 C305.25,0.23 304.84,0.26 307,0.14 L308.28,0.04 C308.72,0.01 309.02,0 309.38,0 L309.38,0 zM309.47,12.6 L309.47,12.6 C305.53,12.59 302.36,13.31 299,14.99 C293.7,17.64 289.34,22.43 287.45,27.69 C285.59,32.87 285.6,38.09 287.46,43.37 C290.28,51.33 298.02,57.45 306.31,58.3 C308.17,58.49 309.13,58.51 310.61,58.41 C314.17,58.15 316.38,57.56 319.18,56.13 C325.85,52.71 330.33,46.86 331.64,39.86 C333.06,32.29 330.87,25.07 325.5,19.63 C321.08,15.15 315.37,12.64 309.47,12.6 L309.47,12.6 z"/>
  <path fill="#FFFFFF" d="M306.08,60.33 C307.82,60.51 309.38,60.54 310.77,60.44 C314.25,60.19 317.37,59.37 320.11,57.96 C327.67,54.09 332.19,48.18 333.68,40.24 C335.29,31.69 333.06,24.34 326.99,18.19 C322,13.13 316.18,10.58 309.52,10.53 L309.52,10.53 C305.42,10.52 301.61,11.38 298.12,13.13 C291.93,16.22 287.73,20.83 285.53,26.97 C283.5,32.62 283.51,38.31 285.54,44.06 C287.08,48.4 289.76,52.08 293.57,55.1 C297.39,58.12 301.56,59.87 306.08,60.33 L306.08,60.33 z"/>
  <path fill="#07767D" d="M304.3,26.83 L304.3,26.82 L308.85,14.08 L322.65,50.38 L309.16,46.33 C308.96,46.32 309.42,46.19 305.93,47.23 L295.55,50.33 L304.3,26.83 L304.3,26.83 z"/>
  <path fill="#FFFFFF" d="M308.66,20.06 L308.76,44.42 L298.24,47.82 L308.66,20.06 L308.66,20.06 z"/>
 </g>
</svg>

