<?xml version="1.0" encoding="UTF-8"?>
<!DOCTYPE svg PUBLIC "-//W3C//DTD SVG 1.1//EN" "http://www.w3.org/Graphics/SVG/1.1/DTD/svg11.dtd">
<!-- Creator: FutureCorp VMX -->
<svg xmlns="http://www.w3.org/2000/svg" xml:space="preserve" shape-rendering="geometricPrecision" text-rendering="geometricPrecision" image-rendering="optimizeQuality" fill-rule="evenodd" clip-rule="evenodd" viewBox="0 0 954 825" enable-background="new 0 0 954 825" 
 xmlns:xlink="http://www.w3.org/1999/xlink">
 <g id="Layer_1">
  <metadata id="FutureCorpID_Layer"/>

  <path fill="#07767D" d="M148,446.65 C152.02,430.52 161.31,418.4 175.88,410.3 C190.44,402.19 205.79,400.59 221.92,405.5 C225.3,406.53 228.67,407.69 232.02,408.99 L329.8,317.95 C327.19,308.29 325.88,300.1 325.87,293.39 C325.85,275.57 332.38,260.89 345.48,249.36 C358.58,237.82 374.1,233.07 392.05,235.1 C407.82,236.89 420.82,243.63 431.03,255.33 C441.25,267.03 445.86,280.45 444.88,295.59 C444.63,299.3 444.1,303 443.27,306.68 L533.08,357.18 C540.57,352.29 547.41,349.07 553.6,347.53 C562.51,345.3 570.69,345.01 578.12,346.66 C582.03,347.52 585.9,348.67 589.74,350.1 L695.07,233.01 C691.85,225.33 689.89,218.3 689.2,211.93 C687.06,192.07 692.98,175.23 706.96,161.4 C720.93,147.57 737.53,142.13 756.75,145.1 L756.89,145.09 C774.65,148.13 788.45,156.93 798.27,171.51 C808.1,186.09 810.92,201.94 806.74,219.06 C802.81,235.19 793.93,247.5 780.11,255.99 C766.3,264.48 750.88,267.1 733.88,263.84 C730.39,263.17 726.92,262.3 723.47,261.22 L620.27,376.62 L626.08,397.58 C628.32,413.49 623.85,428.08 612.65,441.34 C601.45,454.61 587.63,461.7 571.18,462.63 C554.35,463.59 539.84,458.59 527.63,447.65 C515.42,436.71 509.28,423.2 509.2,407.11 L509.49,392.27 L422.3,342 L402.85,351.77 C390.57,355.95 378.09,355.89 365.42,351.58 C362.36,350.54 359.34,349.38 356.35,348.1 L260.27,438.01 L263.31,464.19 C262.81,481.62 256.14,495.72 243.31,506.49 C230.48,517.26 215.14,521.64 197.29,519.62 C179.3,517.59 165.46,509.41 155.79,495.09 C146.11,480.76 143.51,464.62 148,446.65 L148,446.65 zM724.33,205.02 C724.53,210.85 726.57,215.91 730.44,220.2 C734.3,224.5 739.19,227.12 745.1,228.06 C751.4,228.85 757.3,227.06 762.8,222.69 C768.3,218.33 771.48,212.92 772.32,206.46 C772.92,200.09 771.13,194.39 766.96,189.36 C762.79,184.33 757.4,181.37 750.79,180.49 L751.21,180.61 C749.06,180.35 746.91,180.33 744.77,180.54 C730.63,182.39 723.82,190.55 724.33,205.02 L724.33,205.02 zM0.27,58.43 C3.1,22.46 23.76,3.08 62.26,0.3 L682.99,0 L706.83,0.49 L706.95,0.52 L895.36,0.9 C932.34,3.38 951.79,25.02 953.72,65.82 L953.46,635.16 C950.32,672.6 929.18,691.68 890.05,692.41 L580.98,692.28 L581.06,759.71 L696.21,759.95 C718.5,762.6 728.06,775.18 724.92,797.71 C722.24,814.35 710.55,823.17 689.84,824.17 L254.02,823.63 C245.61,822.39 238.94,818.46 233.99,811.84 C229.05,805.22 226.96,797.41 227.73,788.4 C229.63,770.35 239.85,760.84 258.36,759.87 L368.53,759.71 L368.54,692.29 L53.41,691.83 C38.55,690.15 26.05,683.69 15.89,672.47 C5.73,661.24 0.44,648.01 -0,632.78 L0.27,58.43 L0.27,58.43 zM227.07,465.47 C228.17,459.28 226.94,453.64 223.39,448.55 C219.85,443.47 214.93,440.26 208.61,438.93 C202.39,437.79 196.7,438.82 191.54,442.04 C186.37,445.26 183.11,449.81 181.78,455.68 C180.46,462.65 181.48,468.81 184.83,474.17 C188.18,479.53 193.17,482.95 199.78,484.43 C206.2,485.62 212.01,484.4 217.21,480.79 C222.41,477.18 225.7,472.07 227.07,465.47 L227.07,465.47 zM545.51,401.17 C543.7,416.52 550.05,425.21 564.54,427.22 C570.89,427.94 576.49,426.44 581.35,422.72 C586.21,418.99 589.11,413.98 590.04,407.67 C590.83,401.13 589.36,395.43 585.64,390.57 C581.95,385.74 576.94,382.91 570.61,382.08 L570.45,382.06 C555.87,380.59 547.56,386.96 545.51,401.17 L545.51,401.17 zM371.46,274.34 C366.36,278.04 363.14,283.29 361.79,290.09 C360.74,296.38 362.07,302.19 365.77,307.52 C369.47,312.84 374.54,316.24 380.99,317.71 C386.58,318.76 392.03,317.44 397.34,313.76 C402.66,310.08 405.91,305.36 407.11,299.61 C409.98,283.07 403.93,273.32 388.97,270.36 C382.4,269.3 376.56,270.63 371.46,274.34 L371.46,274.34 zM67.52,69.72 L66.88,587.25 L887.78,586.76 L887.97,69.34 L871.6,69.35 L871.81,69.4 L67.52,69.72 L67.52,69.72 z"/>
 </g>
</svg>

