<?xml version="1.0" encoding="UTF-8"?>
<!DOCTYPE svg PUBLIC "-//W3C//DTD SVG 1.1//EN" "http://www.w3.org/Graphics/SVG/1.1/DTD/svg11.dtd">
<!-- Creator: FutureCorp VMX -->
<svg xmlns="http://www.w3.org/2000/svg" xml:space="preserve" shape-rendering="geometricPrecision" text-rendering="geometricPrecision" image-rendering="optimizeQuality" fill-rule="evenodd" clip-rule="evenodd" viewBox="0 0 475 572" enable-background="new 0 0 475 572" 
 xmlns:xlink="http://www.w3.org/1999/xlink">
 <g id="Layer_1">
  <metadata id="FutureCorpID_Layer"/>

  <path fill="#07767D" d="M2.97,287.57 L2.96,287.57 C0.61,282.08 -0.02,278.01 0,268.42 C0.07,236.19 0.06,244.24 0.07,212.01 C0.82,201.03 4.17,193.75 11.2,187.81 C15.6,184.1 19.38,182.4 26.45,180.94 C28.05,168.65 27.63,171.28 29.42,162.5 C35.67,131.88 50.75,101.1 71.57,76.47 C86.52,58.78 101.01,46.12 120.28,33.89 C147.52,16.61 176.77,6.31 211.36,1.82 C219.7,0.74 219.65,0.74 231.47,0.22 C238.34,-0.08 235.83,-0.1 249.05,0.34 C263.96,0.83 276.44,2.48 292.14,6.03 C316.07,11.45 339.16,21.16 358.69,34.04 C383.18,50.2 402.3,69.89 418.76,95.91 C421.79,100.7 424.41,105.39 427.96,112.37 C435.7,127.62 441.5,143.76 445.14,160.2 C446.42,166.01 447.67,173.55 448.23,178.87 C448.25,179.01 448.44,180.82 448.45,180.95 C454.1,182.2 453.02,181.88 456.02,183.2 C466.73,187.9 473.05,197.37 474.21,210.46 C474.44,213.03 474.41,209.09 474.41,238.09 C474.41,281.53 474.52,275.73 473.63,280.49 C471.31,292.92 462.25,302.28 450.04,304.86 L446.64,305.4 L445.32,317.35 C442.27,335.58 434.57,351.44 423.13,363.02 C407.15,379.2 385.92,386.99 357.09,387.26 C351.7,387.32 353.05,387.3 347.66,387.38 L345.6,390.77 C341.94,395.43 337.47,397.17 329.46,397.07 C326.22,397.03 327.45,397.01 320.87,397.17 C315.29,397.11 316.68,397.12 311.1,397.09 C299.09,397.02 299.34,397.05 296.08,395.65 C289.95,393.04 285.82,387.05 285.22,379.9 C284.37,369.86 289.6,361.39 298.31,358.71 C301.38,357.76 299.59,357.85 316.24,357.85 C337.9,357.85 335.15,357.72 338.35,358.86 C341.72,360.05 344.45,362.17 346.44,365.13 L347.35,366.5 L365.39,366.2 C386.88,365.08 404.01,356.51 414.39,341.69 C420.97,332.28 425.22,319.42 425.87,306.88 L426.03,303.78 L421.66,301.27 C416.29,297.1 413.21,291.44 412.78,284.94 L412.74,253.95 C412.66,191.49 412.56,199.71 413.43,196.38 C414.72,191.46 418.08,186.83 422.45,183.95 C423.28,183.4 423.07,183.54 423.89,182.99 L422.5,174.55 C418.2,148.54 408.42,124.76 393.05,102.96 C375.08,77.48 350.65,56.79 323.91,44.42 C301.85,34.21 279.03,28.47 253.96,26.82 C232.66,25.42 214.68,26.77 193.63,31.33 C168.19,36.85 144.95,46.97 125.03,61.19 C101.28,78.15 82.78,99.2 69.52,124.35 C60.7,141.08 54,162.02 51.52,180.57 L51.28,183.28 C55.42,186.1 54.66,185.48 56.58,187.63 C61.07,192.62 62.26,196.85 62.23,207.6 C62.1,250.4 62.13,239.7 62.01,282.5 C61.97,293.73 55.53,302.06 44.8,304.75 C41.13,305.67 28.67,305.67 23.92,304.75 C14.93,303 6.73,296.28 2.97,287.57 L2.97,287.57 z"/>
  <path fill="#07767D" d="M389.66,428.74 L389.67,428.74 C423.89,448.26 445.48,480.01 450.78,518.65 C451.67,525.15 452.05,531.37 452.02,539.19 C451.97,551.73 452.08,549.74 451.27,553.11 C448.77,563.56 440.14,571.15 430.48,571.41 L224.97,571.51 C216.73,571.51 218.79,571.51 210.56,571.52 L50.6,571.63 C41.6,571.64 39.42,571.24 35.05,568.77 C27.52,564.53 23.03,556.63 22.77,547.19 C22.56,539.44 22.77,530.52 23.3,524.86 C25.23,504.03 31.05,486.71 41.54,470.57 C54.33,450.9 74.94,434.43 99.9,423.96 C115.29,417.5 132.36,412.98 154.47,409.51 L162.79,408.2 C163.64,411.05 163.33,410.34 164.91,413.18 C170.71,423.64 182.56,429.48 198.74,429.84 L279.81,429.72 C295.68,428.84 307,421.88 311.82,410.02 C312.09,409.36 312.29,408.84 312.53,408.17 C315.33,408.21 314.63,408.2 317.42,408.26 C329.93,408.52 349.04,412.22 363.98,417.26 C373.65,420.53 381.06,423.84 389.66,428.74 L389.66,428.74 z"/>
  <path fill="#07767D" d="M249.76,94.47 L249.75,94.48 L246.43,96.04 L246.57,128.29 C270.42,128.3 264.46,128.3 288.31,128.31 C298.31,128.09 320.82,128.37 324.31,128.75 C336.54,130.08 346.91,133.52 357.27,139.69 C375.49,150.55 389.17,167.44 395.54,186.97 C398.38,195.68 399.8,204.4 399.81,213.07 L399.82,263.37 C399.82,266.87 399.82,266 399.83,269.5 L399.85,280.25 C399.9,298.05 398.9,306.44 395.39,317.72 C391.21,331.17 383.33,344.55 374.3,353.54 C373.95,353.9 373.69,354.16 373.35,354.52 L353.11,356.26 L349.28,352.8 C344.63,349.46 340.13,348.21 332.6,348.2 L308.29,348.16 L299.34,348.39 C285.77,350.13 275.07,362.6 275,376.78 L274.8,381.18 C209.61,381.11 225.91,381.13 160.72,381.06 C129.82,379.32 102.1,361.75 87,334.34 C78.36,318.66 74.95,304.3 75,283.82 C75.09,242.6 75.02,252.9 75.46,211.69 C75.72,187.16 87.98,162.26 107.4,146.83 C123.33,134.17 140.9,128.08 161.26,128.18 L189.46,128.32 C194.15,128.35 192.97,128.34 197.66,128.41 L204.12,128.28 L229.08,128.29 L229.13,95.95 C225.9,94.68 226.61,95.04 224.19,93.43 C215.43,87.61 211.34,76.98 213.95,66.78 C216.76,55.77 226.93,47.86 238.09,47.97 C249.41,48.09 259.11,56.07 261.81,67.48 C264.21,77.64 259.55,88.57 250.46,94.07 C250.2,94.23 250.06,94.31 249.76,94.47 L249.76,94.47 zM317.48,183.95 L155.59,183.98 C144.4,183.98 135.39,186.93 127.25,193.27 C116.47,201.67 110.3,213.7 109.61,227.67 L109.39,248.22 C109.48,253.9 109.46,252.48 109.54,258.16 C109.38,267.23 109.43,272.62 109.73,276.26 C110.82,289.46 116.72,301.63 126.42,310.64 C134.8,318.44 145.18,322.95 156.81,323.84 L306.6,323.94 C319.38,323.95 321.24,323.82 326.54,322.62 C345.36,318.35 360.24,302.65 364.33,282.76 C365.45,277.28 365.55,276.01 365.55,266.08 C365.54,221.77 365.61,227.89 365.09,223.27 C363.97,213.25 358.31,202.29 350.9,195.81 C340.89,187.04 332.08,183.92 317.48,183.95 L317.48,183.95 z"/>
  <path fill="#07767D" d="M174.63,225.81 L174.61,225.81 C185.33,227.19 192.69,236.48 192.06,247.84 C191.44,258.82 182.06,267.23 171.28,266.46 C161,265.74 153.05,256.95 153,246.25 C152.96,237.49 158.87,229.11 166.88,226.58 C169.59,225.72 171.99,225.48 174.63,225.81 L174.63,225.81 z"/>
  <path fill="#07767D" d="M276.69,391.58 C278.58,396.15 278.11,395.27 279.96,397.69 C283.88,402.8 287.9,405.57 294.06,407.41 L296.22,408.05 L293.66,411.32 C289.33,415.77 283.36,417.91 275.3,417.9 C230.07,417.83 241.38,417.85 196.15,417.77 C184.53,416.7 176.42,408.38 176.55,397.66 L176.53,395.17 L176.69,391.74 L276.69,391.58 L276.69,391.58 z"/>
  <path fill="#07767D" d="M268.53,286.06 C270.55,286.51 271.31,288.03 270.72,290.4 C268.58,299.02 259.51,308.06 249.83,311.21 C240.99,314.08 232.16,313.78 223.95,310.32 C214.78,306.45 207.51,298.55 205.22,289.96 C204.66,287.72 205.91,286.22 208.48,286.04 L268.53,286.06 L268.53,286.06 z"/>
  <path fill="#07767D" d="M305.61,225.78 L305.58,225.78 C315.69,227.1 323.18,235.95 323.15,246.58 C323.14,251.78 321.08,256.88 317.52,260.52 C310.92,267.26 301.41,268.5 293.45,263.66 C285.49,258.82 281.95,248.74 285.01,239.64 C288.12,230.41 296.61,224.7 305.61,225.78 L305.61,225.78 z"/>
 </g>
</svg>

