<?xml version="1.0" encoding="UTF-8"?>
<!DOCTYPE svg PUBLIC "-//W3C//DTD SVG 1.1//EN" "http://www.w3.org/Graphics/SVG/1.1/DTD/svg11.dtd">
<!-- Creator: FutureCorp VMX -->
<svg xmlns="http://www.w3.org/2000/svg" xml:space="preserve" shape-rendering="geometricPrecision" text-rendering="geometricPrecision" image-rendering="optimizeQuality" fill-rule="evenodd" clip-rule="evenodd" viewBox="0 0 94 113" enable-background="new 0 0 94 113" 
 xmlns:xlink="http://www.w3.org/1999/xlink">
 <g id="Layer_1">
  <metadata id="FutureCorpID_Layer"/>

  <path fill="#036872" d="M0.58,56.59 L0.58,56.6 C0.12,55.51 -0,54.71 0,52.83 C0.01,46.48 0.01,48.07 0.01,41.72 C0.16,39.56 0.82,38.13 2.21,36.96 C3.07,36.23 3.81,35.9 5.21,35.61 C5.52,33.19 5.44,33.71 5.79,31.98 C7.02,25.96 9.99,19.9 14.09,15.05 C17.03,11.57 19.88,9.08 23.67,6.67 C29.03,3.27 34.79,1.24 41.6,0.36 C43.24,0.15 43.23,0.15 45.55,0.04 C46.91,-0.02 46.41,-0.02 49.01,0.07 C51.95,0.16 54.4,0.49 57.49,1.19 C62.2,2.25 66.75,4.17 70.59,6.7 C75.41,9.88 79.17,13.75 82.41,18.88 C83.01,19.82 83.53,20.74 84.22,22.12 C85.75,25.12 86.89,28.29 87.6,31.53 C87.86,32.67 88.1,34.16 88.21,35.2 C88.22,35.23 88.25,35.59 88.26,35.61 C89.37,35.86 89.16,35.8 89.75,36.05 C91.85,36.98 93.1,38.84 93.33,41.42 C93.37,41.93 93.37,41.15 93.37,46.86 C93.37,55.41 93.39,54.26 93.21,55.2 C92.76,57.65 90.97,59.49 88.57,60 L87.9,60.1 L87.64,62.46 C87.04,66.04 85.52,69.17 83.27,71.44 C80.13,74.63 75.95,76.16 70.28,76.22 C69.22,76.23 69.48,76.22 68.42,76.24 L68.01,76.91 C67.3,77.82 66.42,78.17 64.84,78.15 C64.2,78.14 64.44,78.13 63.15,78.17 C62.05,78.15 62.32,78.16 61.23,78.15 C58.86,78.14 58.91,78.14 58.27,77.87 C57.06,77.35 56.25,76.17 56.13,74.77 C55.96,72.79 56.99,71.12 58.71,70.6 C59.31,70.41 58.96,70.43 62.24,70.43 C66.5,70.43 65.96,70.4 66.59,70.62 C67.25,70.86 67.79,71.28 68.18,71.86 L68.36,72.13 L71.91,72.07 C76.14,71.85 79.51,70.16 81.55,67.25 C82.85,65.4 83.68,62.86 83.81,60.4 L83.85,59.78 L82.98,59.29 C81.93,58.47 81.32,57.36 81.24,56.08 L81.23,49.98 C81.21,37.69 81.19,39.3 81.36,38.65 C81.62,37.68 82.28,36.77 83.14,36.2 C83.3,36.09 83.26,36.12 83.42,36.01 L83.15,34.35 C82.3,29.23 80.38,24.55 77.35,20.26 C73.82,15.25 69.01,11.18 63.75,8.74 C59.41,6.73 54.91,5.6 49.98,5.28 C45.79,5 42.25,5.27 38.11,6.17 C33.1,7.25 28.53,9.24 24.61,12.04 C19.93,15.38 16.29,19.52 13.68,24.47 C11.95,27.77 10.63,31.89 10.14,35.54 L10.09,36.07 C10.91,36.63 10.76,36.5 11.14,36.93 C12.02,37.91 12.25,38.74 12.25,40.86 C12.22,49.28 12.23,47.18 12.2,55.6 C12.2,57.81 10.93,59.45 8.82,59.98 C8.09,60.16 5.64,60.16 4.71,59.98 C2.94,59.63 1.32,58.31 0.58,56.59 L0.58,56.59 z"/>
  <path fill="#036872" d="M76.69,84.38 L76.69,84.38 C83.42,88.22 87.67,94.47 88.72,102.07 C88.89,103.35 88.97,104.58 88.96,106.12 C88.95,108.58 88.97,108.19 88.81,108.86 C88.32,110.91 86.62,112.4 84.72,112.46 L44.27,112.48 C42.65,112.48 43.06,112.48 41.44,112.48 L9.96,112.5 C8.19,112.5 7.76,112.42 6.9,111.94 C5.42,111.1 4.53,109.55 4.48,107.69 C4.44,106.17 4.48,104.41 4.59,103.3 C4.97,99.2 6.11,95.79 8.18,92.61 C10.69,88.74 14.75,85.5 19.66,83.44 C22.69,82.17 26.05,81.28 30.4,80.59 L32.04,80.34 C32.2,80.9 32.15,80.76 32.46,81.32 C33.6,83.38 35.93,84.52 39.11,84.6 L55.07,84.57 C58.19,84.4 60.42,83.03 61.37,80.69 C61.42,80.56 61.46,80.46 61.51,80.33 C62.06,80.34 61.92,80.34 62.47,80.35 C64.93,80.4 68.69,81.13 71.63,82.12 C73.54,82.76 74.99,83.41 76.69,84.38 L76.69,84.38 z"/>
  <path fill="#036872" d="M49.15,18.59 L49.15,18.59 L48.5,18.9 L48.53,25.25 C53.22,25.25 52.05,25.25 56.74,25.25 C58.71,25.21 63.14,25.26 63.83,25.34 C66.23,25.6 68.27,26.28 70.31,27.49 C73.9,29.63 76.59,32.95 77.84,36.8 C78.4,38.51 78.68,40.23 78.68,41.93 L78.69,51.83 C78.69,52.52 78.69,52.35 78.69,53.04 L78.69,55.15 C78.7,58.66 78.5,60.31 77.81,62.53 C76.99,65.18 75.44,67.81 73.66,69.58 C73.59,69.65 73.54,69.7 73.48,69.77 L69.49,70.11 L68.74,69.43 C67.83,68.78 66.94,68.53 65.46,68.53 L60.67,68.52 L58.91,68.56 C56.24,68.91 54.14,71.36 54.12,74.15 L54.08,75.02 C41.25,75 44.46,75.01 31.63,74.99 C25.55,74.65 20.09,71.19 17.12,65.8 C15.42,62.71 14.75,59.89 14.76,55.86 C14.78,47.74 14.76,49.77 14.85,41.66 C14.9,36.83 17.32,31.93 21.14,28.9 C24.27,26.4 27.73,25.21 31.74,25.23 L37.29,25.26 C38.21,25.26 37.98,25.26 38.9,25.27 L40.17,25.25 L45.08,25.25 L45.09,18.88 C44.46,18.63 44.6,18.7 44.12,18.39 C42.4,17.24 41.59,15.15 42.11,13.14 C42.66,10.98 44.66,9.42 46.86,9.44 C49.09,9.46 50.99,11.03 51.53,13.28 C52,15.28 51.08,17.43 49.29,18.51 C49.24,18.54 49.21,18.56 49.15,18.59 L49.15,18.59 zM62.48,36.2 L30.62,36.21 C28.42,36.21 26.64,36.79 25.04,38.04 C22.92,39.69 21.71,42.06 21.57,44.81 L21.53,48.85 C21.55,49.97 21.54,49.69 21.56,50.81 C21.53,52.59 21.54,53.65 21.6,54.37 C21.81,56.97 22.97,59.36 24.88,61.14 C26.53,62.67 28.57,63.56 30.86,63.73 L60.34,63.75 C62.86,63.75 63.22,63.73 64.26,63.49 C67.97,62.65 70.9,59.56 71.7,55.65 C71.92,54.57 71.94,54.32 71.94,52.37 C71.94,43.65 71.95,44.85 71.85,43.94 C71.63,41.97 70.52,39.81 69.06,38.54 C67.09,36.81 65.35,36.2 62.48,36.2 L62.48,36.2 z"/>
  <path fill="#036872" d="M34.37,44.44 L34.36,44.44 C36.47,44.71 37.92,46.54 37.8,48.78 C37.68,50.94 35.83,52.59 33.71,52.44 C31.69,52.3 30.12,50.57 30.11,48.46 C30.1,46.74 31.27,45.09 32.84,44.59 C33.38,44.42 33.85,44.38 34.37,44.44 L34.37,44.44 z"/>
  <path fill="#036872" d="M54.45,77.06 C54.83,77.96 54.73,77.79 55.1,78.27 C55.87,79.27 56.66,79.82 57.87,80.18 L58.3,80.31 L57.79,80.95 C56.94,81.83 55.77,82.25 54.18,82.24 C45.28,82.23 47.5,82.23 38.6,82.22 C36.32,82.01 34.72,80.37 34.75,78.26 L34.74,77.77 L34.77,77.1 L54.45,77.06 L54.45,77.06 z"/>
  <path fill="#036872" d="M52.85,56.3 C53.24,56.39 53.39,56.69 53.28,57.15 C52.86,58.85 51.07,60.63 49.17,61.25 C47.43,61.81 45.69,61.75 44.08,61.07 C42.27,60.31 40.84,58.76 40.39,57.07 C40.28,56.63 40.52,56.33 41.03,56.29 L52.85,56.3 L52.85,56.3 z"/>
  <path fill="#036872" d="M60.14,44.44 L60.14,44.44 C62.13,44.69 63.6,46.44 63.6,48.53 C63.6,49.55 63.19,50.56 62.49,51.27 C61.19,52.6 59.32,52.84 57.75,51.89 C56.19,50.94 55.49,48.95 56.09,47.16 C56.7,45.35 58.37,44.22 60.14,44.44 L60.14,44.44 z"/>
 </g>
</svg>

