<?xml version="1.0" encoding="UTF-8"?>
<!DOCTYPE svg PUBLIC "-//W3C//DTD SVG 1.1//EN" "http://www.w3.org/Graphics/SVG/1.1/DTD/svg11.dtd">
<!-- Creator: FutureCorp VMX -->
<svg xmlns="http://www.w3.org/2000/svg" xml:space="preserve" shape-rendering="geometricPrecision" text-rendering="geometricPrecision" image-rendering="optimizeQuality" fill-rule="evenodd" clip-rule="evenodd" viewBox="0 0 499 72" enable-background="new 0 0 499 72" 
 xmlns:xlink="http://www.w3.org/1999/xlink">
 <g id="Layer_1">
  <metadata id="FutureCorpID_Layer"/>

  <path fill="#1F497D" d="M65.49,42.48 L65.49,42.47 C66.33,39.93 77.58,5.86 78.42,3.31 C78.81,2.13 78.72,2.43 79.11,1.25 L93.04,1.24 C81.73,36.07 84.56,27.36 73.25,62.19 L70.78,69.78 C64.13,69.78 65.79,69.78 59.14,69.78 C52.12,46.18 53.87,52.08 46.85,28.48 C46.68,27.92 46.72,28.06 46.55,27.5 L33.88,69.78 C27.23,69.78 28.89,69.78 22.25,69.78 C13.34,42.33 15.57,49.19 6.65,21.74 L0.27,2.09 C0.24,2 0.03,1.33 -0,1.24 L14.01,1.24 L24.75,34.11 C26.9,40.67 26.36,39.03 28.5,45.58 C35.19,21.87 33.52,27.8 40.21,4.08 L41.01,1.24 C47.25,1.24 45.69,1.24 51.93,1.24 L62.84,39.95 C64.59,46.19 64.37,45.4 64.43,45.41 C64.52,45.42 64.5,45.49 65.49,42.48 L65.49,42.48 z"/>
  <path fill="#1F497D" d="M141.41,32.42 L159.06,69.78 L144.52,69.78 C140.9,61.96 141.81,63.91 138.19,56.09 C119.22,56.09 123.96,56.09 104.99,56.09 C101.33,63.91 102.25,61.96 98.59,69.78 C90.28,69.78 92.36,69.78 84.05,69.78 L116.41,1.24 C122.29,1.24 120.82,1.24 126.7,1.25 C133.91,16.51 132.1,12.7 139.31,27.96 L141.41,32.42 L141.41,32.42 zM125.2,28.19 L125.2,28.19 C123.15,23.74 123.66,24.85 121.6,20.4 L110.05,45.03 C123.15,45.03 119.88,45.03 132.98,45.03 C128.54,35.4 129.65,37.81 125.2,28.19 L125.2,28.19 z"/>
  <path fill="#1F497D" d="M180.21,25.1 L180.21,25.1 L194.57,2.87 C195.16,1.96 195.01,2.19 195.6,1.27 L211.57,1.28 L183.71,41.62 C183.71,57.7 183.71,53.68 183.72,69.75 L170.28,69.75 C170.26,53.71 170.26,57.72 170.25,41.69 C170.18,41.28 170.37,41.61 168.9,39.37 C155.79,19.41 159.06,24.4 145.96,4.44 C144.77,2.63 145.07,3.09 143.88,1.28 L159.27,1.27 C169.04,17.08 166.6,13.13 176.37,28.94 L177.04,30.02 C178.85,27.21 178.4,27.91 180.21,25.1 L180.21,25.1 z"/>
  <path fill="#1F497D" d="M260.14,8.04 L260.14,8.04 C262.75,10.6 264.91,14.21 265.93,17.75 C267.54,23.29 267.07,29.11 264.59,34.25 C262.06,39.48 258.04,43.32 252.75,45.54 C249.87,46.75 246.96,47.27 243.05,47.29 C236.81,47.31 238.37,47.31 232.13,47.31 C232.13,60.1 232.13,56.9 232.13,69.69 L218.88,69.68 C218.88,30.63 218.88,40.39 218.88,1.34 C233.99,1.37 230.21,1.36 245.32,1.39 C247.08,1.47 249.42,1.96 251.44,2.67 C254.87,3.87 257.61,5.57 260.14,8.04 L260.14,8.04 zM249.83,15.01 L249.83,15.01 C249.42,14.62 248.8,14.11 248.28,13.74 C245.88,12.02 243.66,11.34 240.4,11.32 L232.12,11.28 C232.12,26.06 232.12,22.37 232.12,37.15 C237.16,37.17 235.9,37.17 240.94,37.14 C244.25,37.13 247.24,35.91 249.52,33.65 C250.54,32.65 251.4,31.49 252.21,30.03 C253.65,27.43 254.01,23.8 253.15,20.57 C252.64,18.62 251.37,16.51 249.83,15.01 L249.83,15.01 z"/>
  <path fill="#1F497D" d="M368.95,1.34 C368.95,40.39 368.95,30.63 368.95,69.69 C361.38,69.69 363.27,69.69 355.7,69.69 C355.7,30.85 355.7,40.56 355.7,1.73 L355.7,1.34 L368.95,1.34 L368.95,1.34 z"/>
  <path fill="#1F497D" d="M438.71,4.46 C438.71,41.79 438.71,32.45 438.71,69.78 L425.69,69.78 L394.79,21.77 C394.79,49.21 394.79,42.35 394.79,69.78 L381.81,69.78 L381.81,1.24 L396.62,1.25 C413.21,26.81 409.07,20.42 425.66,45.97 C425.66,24.49 425.66,29.86 425.66,8.38 L425.66,1.24 C433.11,1.24 431.25,1.24 438.71,1.24 L438.71,4.46 L438.71,4.46 z"/>
  <path fill="#1F497D" d="M498.51,1.34 L498.5,13.11 L479.6,13.11 C479.6,45.25 479.6,37.22 479.6,69.36 L479.6,69.69 C471.92,69.69 473.84,69.69 466.16,69.69 C466.16,37.35 466.16,45.44 466.16,13.1 L447.2,13.11 C447.2,6.38 447.2,8.06 447.2,1.34 C465.6,1.34 461,1.34 479.41,1.34 L498.51,1.34 L498.51,1.34 z"/>
  <path fill="#07767D" d="M305.5,27.72 L305.49,27.71 L310.05,14.97 L323.84,51.27 L310.35,47.23 C310.15,47.21 310.61,47.08 307.12,48.12 L296.74,51.22 L305.5,27.72 L305.5,27.72 zM309.85,20.95 L309.95,45.31 L299.43,48.71 L309.85,20.95 L309.85,20.95 z"/>
  <path fill="#076F76" d="M310.68,0 L310.65,0 L314.6,0.27 C317.62,0.63 320.03,1.2 322.97,2.24 C328.43,4.18 332.74,7.02 337,11.49 C338.98,13.56 339.67,14.45 341.47,17.31 C342.75,19.34 343.47,20.82 344.52,23.58 C345.74,26.78 346.34,29.72 346.56,33.57 L346.64,34.9 C346.68,35.58 346.69,35.22 346.55,37.43 C346.39,39.95 346.44,39.43 346.18,41.06 C345.62,44.68 344.8,47.24 343.07,50.81 C342.15,52.73 341.5,53.86 340.38,55.5 C337.27,60.11 332.52,64.27 327.39,66.88 C323.26,68.98 319.65,70.13 315.21,70.74 C313.08,71.03 311.63,71.08 308.12,70.97 C305.53,70.9 301.28,70.06 298.46,69.07 C296.16,68.26 295.19,67.84 293.16,66.77 C288.74,64.43 284.6,61.01 281.72,57.32 C279.75,54.78 278.38,52.55 277.06,49.7 C276.4,48.3 275.71,46.25 275.21,44.28 C273.9,39.03 273.8,33.15 274.94,28.07 C275.88,23.89 277.22,20.65 279.61,16.73 C282.58,11.88 286.67,7.96 291.86,4.99 C294.05,3.75 295.72,2.97 297.85,2.24 C300.93,1.17 302.15,0.87 305.41,0.39 C306.56,0.23 306.14,0.26 308.3,0.14 L309.59,0.04 C310.02,0.01 310.32,0 310.68,0 L310.68,0 zM307.39,60.33 C309.13,60.51 310.69,60.54 312.07,60.44 C315.56,60.19 318.67,59.37 321.41,57.96 C328.97,54.09 333.5,48.18 334.99,40.24 C336.6,31.69 334.37,24.34 328.3,18.19 C323.31,13.13 317.49,10.58 310.83,10.53 L310.83,10.53 C306.72,10.52 302.92,11.38 299.42,13.13 C293.23,16.22 289.04,20.83 286.83,26.97 C284.81,32.62 284.81,38.31 286.85,44.06 C288.38,48.4 291.06,52.08 294.88,55.1 C298.7,58.12 302.87,59.87 307.39,60.33 L307.39,60.33 z"/>
 </g>
</svg>

