<?xml version="1.0" encoding="UTF-8"?>
<!DOCTYPE svg PUBLIC "-//W3C//DTD SVG 1.1//EN" "http://www.w3.org/Graphics/SVG/1.1/DTD/svg11.dtd">
<!-- Creator: FutureCorp VMX -->
<svg xmlns="http://www.w3.org/2000/svg" xml:space="preserve" shape-rendering="geometricPrecision" text-rendering="geometricPrecision" image-rendering="optimizeQuality" fill-rule="evenodd" clip-rule="evenodd" viewBox="0 0 499 116" enable-background="new 0 0 499 116" 
 xmlns:xlink="http://www.w3.org/1999/xlink">
 <g id="Layer_1">
  <metadata id="FutureCorpID_Layer"/>

  <path fill="#1F497D" d="M65.49,42.48 L65.49,42.47 C66.33,39.93 77.58,5.86 78.42,3.31 C78.81,2.13 78.72,2.43 79.11,1.25 L93.04,1.24 C81.73,36.07 84.56,27.36 73.25,62.19 L70.78,69.78 C64.13,69.78 65.79,69.78 59.14,69.78 C52.12,46.18 53.87,52.08 46.85,28.48 C46.68,27.92 46.72,28.06 46.55,27.5 L33.88,69.78 C27.23,69.78 28.89,69.78 22.25,69.78 C13.34,42.33 15.57,49.19 6.65,21.74 L0.27,2.09 C0.24,2 0.03,1.33 -0,1.24 L14.01,1.24 L24.75,34.11 C26.9,40.67 26.36,39.03 28.5,45.58 C35.19,21.87 33.52,27.8 40.21,4.08 L41.01,1.24 C47.25,1.24 45.69,1.24 51.93,1.24 L62.84,39.95 C64.59,46.19 64.37,45.4 64.43,45.41 C64.52,45.42 64.5,45.49 65.49,42.48 L65.49,42.48 z"/>
  <path fill="#1F497D" d="M141.41,32.42 L159.06,69.78 L144.52,69.78 C140.9,61.96 141.81,63.91 138.19,56.09 C119.22,56.09 123.96,56.09 104.99,56.09 C101.33,63.91 102.25,61.96 98.59,69.78 C90.28,69.78 92.36,69.78 84.05,69.78 L116.41,1.24 C122.29,1.24 120.82,1.24 126.7,1.25 C133.91,16.51 132.1,12.7 139.31,27.96 L141.41,32.42 L141.41,32.42 zM125.2,28.19 L125.2,28.19 C123.15,23.74 123.66,24.85 121.6,20.4 L110.05,45.03 C123.15,45.03 119.88,45.03 132.98,45.03 C128.54,35.4 129.65,37.81 125.2,28.19 L125.2,28.19 z"/>
  <path fill="#1F497D" d="M180.21,25.1 L180.21,25.1 L194.57,2.87 C195.16,1.96 195.01,2.19 195.6,1.27 L211.57,1.28 L183.71,41.62 C183.71,57.7 183.71,53.68 183.72,69.75 L170.28,69.75 C170.26,53.71 170.26,57.72 170.25,41.69 C170.18,41.28 170.37,41.61 168.9,39.37 C155.79,19.41 159.06,24.4 145.96,4.44 C144.77,2.63 145.07,3.09 143.88,1.28 L159.27,1.27 C169.04,17.08 166.6,13.13 176.37,28.94 L177.04,30.02 C178.85,27.21 178.4,27.91 180.21,25.1 L180.21,25.1 z"/>
  <path fill="#1F497D" d="M260.14,8.04 L260.14,8.04 C262.75,10.6 264.91,14.21 265.93,17.75 C267.54,23.29 267.07,29.11 264.59,34.25 C262.06,39.48 258.04,43.32 252.75,45.54 C249.87,46.75 246.96,47.27 243.05,47.29 C236.81,47.31 238.37,47.31 232.13,47.31 C232.13,60.1 232.13,56.9 232.13,69.69 L218.88,69.68 C218.88,30.63 218.88,40.39 218.88,1.34 C233.99,1.37 230.21,1.36 245.32,1.39 C247.08,1.47 249.42,1.96 251.44,2.67 C254.87,3.87 257.61,5.57 260.14,8.04 L260.14,8.04 zM249.83,15.01 L249.83,15.01 C249.42,14.62 248.8,14.11 248.28,13.74 C245.88,12.02 243.66,11.34 240.4,11.32 L232.12,11.28 C232.12,26.06 232.12,22.37 232.12,37.15 C237.16,37.17 235.9,37.17 240.94,37.14 C244.25,37.13 247.24,35.91 249.52,33.65 C250.54,32.65 251.4,31.49 252.21,30.03 C253.65,27.43 254.01,23.8 253.15,20.57 C252.64,18.62 251.37,16.51 249.83,15.01 L249.83,15.01 z"/>
  <path fill="#1F497D" d="M368.95,1.34 C368.95,40.39 368.95,30.63 368.95,69.69 C361.38,69.69 363.27,69.69 355.7,69.69 C355.7,30.85 355.7,40.56 355.7,1.73 L355.7,1.34 L368.95,1.34 L368.95,1.34 z"/>
  <path fill="#1F497D" d="M438.71,4.46 C438.71,41.79 438.71,32.45 438.71,69.78 L425.69,69.78 L394.79,21.77 C394.79,49.21 394.79,42.35 394.79,69.78 L381.81,69.78 L381.81,1.24 L396.62,1.25 C413.21,26.81 409.07,20.42 425.66,45.97 C425.66,24.49 425.66,29.86 425.66,8.38 L425.66,1.24 C433.11,1.24 431.25,1.24 438.71,1.24 L438.71,4.46 L438.71,4.46 z"/>
  <path fill="#1F497D" d="M498.51,1.34 L498.5,13.11 L479.6,13.11 C479.6,45.25 479.6,37.22 479.6,69.36 L479.6,69.69 C471.92,69.69 473.84,69.69 466.16,69.69 C466.16,37.35 466.16,45.44 466.16,13.1 L447.2,13.11 C447.2,6.38 447.2,8.06 447.2,1.34 C465.6,1.34 461,1.34 479.41,1.34 L498.51,1.34 L498.51,1.34 z"/>
  <path fill="#07767D" d="M305.5,27.72 L305.49,27.71 L310.05,14.97 L323.84,51.27 L310.35,47.23 C310.15,47.21 310.61,47.08 307.12,48.12 L296.74,51.22 L305.5,27.72 L305.5,27.72 zM309.85,20.95 L309.95,45.31 L299.43,48.71 L309.85,20.95 L309.85,20.95 z"/>
  <path fill="#076F76" d="M310.68,0 L310.65,0 L314.6,0.27 C317.62,0.63 320.03,1.2 322.97,2.24 C328.43,4.18 332.74,7.02 337,11.49 C338.98,13.56 339.67,14.45 341.47,17.31 C342.75,19.34 343.47,20.82 344.52,23.58 C345.74,26.78 346.34,29.72 346.56,33.57 L346.64,34.9 C346.68,35.58 346.69,35.22 346.55,37.43 C346.39,39.95 346.44,39.43 346.18,41.06 C345.62,44.68 344.8,47.24 343.07,50.81 C342.15,52.73 341.5,53.86 340.38,55.5 C337.27,60.11 332.52,64.27 327.39,66.88 C323.26,68.98 319.65,70.13 315.21,70.74 C313.08,71.03 311.63,71.08 308.12,70.97 C305.53,70.9 301.28,70.06 298.46,69.07 C296.16,68.26 295.19,67.84 293.16,66.77 C288.74,64.43 284.6,61.01 281.72,57.32 C279.75,54.78 278.38,52.55 277.06,49.7 C276.4,48.3 275.71,46.25 275.21,44.28 C273.9,39.03 273.8,33.15 274.94,28.07 C275.88,23.89 277.22,20.65 279.61,16.73 C282.58,11.88 286.67,7.96 291.86,4.99 C294.05,3.75 295.72,2.97 297.85,2.24 C300.93,1.17 302.15,0.87 305.41,0.39 C306.56,0.23 306.14,0.26 308.3,0.14 L309.59,0.04 C310.02,0.01 310.32,0 310.68,0 L310.68,0 zM307.39,60.33 C309.13,60.51 310.69,60.54 312.07,60.44 C315.56,60.19 318.67,59.37 321.41,57.96 C328.97,54.09 333.5,48.18 334.99,40.24 C336.6,31.69 334.37,24.34 328.3,18.19 C323.31,13.13 317.49,10.58 310.83,10.53 L310.83,10.53 C306.72,10.52 302.92,11.38 299.42,13.13 C293.23,16.22 289.04,20.83 286.83,26.97 C284.81,32.62 284.81,38.31 286.85,44.06 C288.38,48.4 291.06,52.08 294.88,55.1 C298.7,58.12 302.87,59.87 307.39,60.33 L307.39,60.33 z"/>
  <path fill="#07767D" d="M260.6,84.57 L250.61,115.29 L245.39,115.29 L239.75,96.32 L234.06,115.29 L228.84,115.29 L218.86,84.57 L225.15,84.57 L231.64,104.42 L237.25,84.57 L242.16,84.57 L247.77,104.46 L254.34,84.57 L260.6,84.57 L260.6,84.57 z"/>
  <path fill="#07767D" d="M294.15,99.93 C294.15,102.12 293.72,104.19 292.86,106.14 C291.97,108.16 290.82,109.84 289.37,111.23 C287.88,112.66 286.14,113.8 284.16,114.62 C282.19,115.44 280.08,115.86 277.91,115.86 C275.72,115.86 273.6,115.45 271.58,114.64 C269.59,113.78 267.83,112.62 266.38,111.23 C264.94,109.85 263.78,108.18 262.86,106.19 C262.01,104.22 261.59,102.15 261.59,99.93 C261.59,97.71 262.02,95.64 262.88,93.68 C263.78,91.66 264.93,89.98 266.37,88.58 C269.42,85.65 273.57,83.99 277.91,83.99 C280.08,83.99 282.2,84.41 284.17,85.21 C286.14,86.02 287.88,87.16 289.35,88.64 C290.81,90.03 291.98,91.7 292.87,93.71 C293.73,95.63 294.15,97.7 294.15,99.93 L294.15,99.93 zM288.2,99.93 C288.2,98.51 287.94,97.21 287.41,95.97 C286.86,94.7 286.12,93.63 285.17,92.71 C284.29,91.79 283.2,91.04 281.91,90.47 C280.67,89.92 279.33,89.64 277.91,89.64 C276.43,89.64 275.09,89.91 273.84,90.47 C272.55,91.04 271.46,91.79 270.58,92.71 C269.62,93.63 268.89,94.7 268.34,95.97 C267.81,97.21 267.54,98.51 267.54,99.93 C267.54,102.64 268.63,105.24 270.58,107.19 C271.45,108.06 272.54,108.8 273.84,109.41 C275.11,109.95 276.46,110.22 277.91,110.22 C279.3,110.22 280.64,109.95 281.91,109.41 C284.53,108.18 286.35,106.35 287.4,103.88 C287.94,102.61 288.2,101.3 288.2,99.93 L288.2,99.93 z"/>
  <path fill="#07767D" d="M321.88,115.29 L315.31,115.29 L313.14,108.29 C312.62,106.6 312,105.48 311.05,104.54 C310.56,104.08 309.99,103.73 309.28,103.46 C308.66,103.2 307.87,103.08 306.9,103.08 L304.67,103.08 L304.67,115.29 L298.8,115.29 L298.8,84.61 L310.9,84.58 C312.21,84.57 313.43,84.8 314.54,85.26 C315.68,85.68 316.64,86.29 317.46,87.1 C319.19,88.83 320.07,90.96 320.07,93.4 C320.07,95.16 319.48,96.96 318.46,98.35 C318.01,99.01 317.43,99.63 316.65,100.27 C315.94,100.83 315.17,101.24 314.35,101.5 C315.3,101.85 316.11,102.38 316.73,103.08 C317.33,103.71 317.8,104.51 318.15,105.5 C318.3,105.82 318.35,105.96 318.82,107.26 C319.36,108.75 319.45,109.03 320.3,111.53 C320.57,112.37 320.84,113.1 321.11,113.71 C321.32,114.25 321.59,114.79 321.88,115.29 L321.88,115.29 zM314.12,93.82 C314.12,93.06 313.99,92.42 313.74,91.87 C313.19,90.69 312.21,89.78 311.01,89.33 C310.38,89.07 309.73,88.95 308.98,88.95 L304.67,88.95 L304.67,98.51 L308.98,98.51 C309.65,98.51 310.3,98.41 311.01,98.2 C311.65,97.96 312.18,97.65 312.62,97.24 C313.68,96.27 314.12,95.27 314.12,93.82 L314.12,93.82 z"/>
  <path fill="#07767D" d="M351.56,115.29 L343.8,115.29 L331.52,101.7 L331.52,115.29 L325.56,115.29 L325.56,84.57 L331.52,84.57 L331.52,98.28 L344.07,84.57 L351.14,84.57 L337.27,99.66 L351.56,115.29 L351.56,115.29 z"/>
  <path fill="#07767D" d="M374.52,89.72 L360.08,89.72 L360.08,96.86 L374.33,96.86 L374.33,101.7 L360.08,101.7 L360.08,115.29 L354.25,115.29 L354.25,84.61 L374.52,84.61 L374.52,89.72 L374.52,89.72 z"/>
  <path fill="#07767D" d="M399.13,115.29 L378.36,115.29 L378.36,84.61 L384.43,84.61 L384.43,109.53 L399.13,109.53 L399.13,115.29 L399.13,115.29 z"/>
  <path fill="#07767D" d="M431.96,99.93 C431.96,102.12 431.53,104.19 430.67,106.14 C429.78,108.16 428.63,109.84 427.18,111.23 C425.69,112.66 423.95,113.8 421.97,114.62 C420,115.44 417.89,115.86 415.72,115.86 C413.53,115.86 411.41,115.45 409.38,114.64 C407.4,113.78 405.64,112.62 404.19,111.23 C402.75,109.85 401.58,108.18 400.67,106.19 C399.82,104.22 399.4,102.15 399.4,99.93 C399.4,97.71 399.83,95.64 400.69,93.68 C401.58,91.66 402.74,89.98 404.18,88.58 C407.22,85.65 411.38,83.99 415.72,83.99 C417.89,83.99 420,84.41 421.98,85.21 C423.95,86.02 425.68,87.16 427.16,88.64 C428.62,90.03 429.78,91.7 430.68,93.71 C431.54,95.63 431.96,97.7 431.96,99.93 L431.96,99.93 zM426.01,99.93 C426.01,98.51 425.75,97.21 425.21,95.97 C424.67,94.7 423.93,93.63 422.98,92.71 C422.1,91.79 421.01,91.04 419.72,90.47 C418.48,89.92 417.14,89.64 415.72,89.64 C414.24,89.64 412.89,89.91 411.64,90.47 C410.36,91.04 409.27,91.79 408.39,92.71 C407.43,93.63 406.7,94.7 406.15,95.97 C405.62,97.21 405.35,98.51 405.35,99.93 C405.35,102.64 406.44,105.24 408.39,107.19 C409.26,108.06 410.35,108.8 411.65,109.41 C412.92,109.95 414.27,110.22 415.72,110.22 C417.11,110.22 418.45,109.95 419.71,109.41 C422.34,108.18 424.16,106.35 425.2,103.88 C425.74,102.61 426.01,101.3 426.01,99.93 L426.01,99.93 z"/>
  <path fill="#07767D" d="M474.74,84.57 L464.75,115.29 L459.53,115.29 L453.89,96.32 L448.2,115.29 L442.98,115.29 L433,84.57 L439.3,84.57 L445.79,104.42 L451.39,84.57 L456.31,84.57 L461.91,104.46 L468.48,84.57 L474.74,84.57 L474.74,84.57 z"/>
  <path fill="#07767D" d="M498.51,107.22 C498.51,109.56 497.6,111.49 495.66,113.25 C494.83,114.01 493.79,114.64 492.48,115.17 C491.24,115.64 489.9,115.86 488.41,115.86 C485.73,115.86 483.55,115.55 481.84,114.92 C480.91,114.57 480.02,114.15 479.16,113.63 C478.37,113.16 477.53,112.56 476.47,111.72 L480.69,107.45 C481.93,108.51 483.12,109.23 484.3,109.64 C485.46,110.06 486.72,110.26 488.14,110.26 C488.71,110.26 489.25,110.18 489.75,110.03 C490.23,109.84 490.65,109.62 491.06,109.34 C491.4,109.07 491.71,108.72 491.94,108.34 C492.14,107.93 492.25,107.51 492.25,107.07 C492.25,106.55 492.16,106.13 491.98,105.77 C491.77,105.35 491.45,104.97 491.02,104.65 C490.51,104.27 489.84,103.89 489.1,103.58 C488.36,103.23 487.35,102.82 485.95,102.3 C484.84,101.88 483.76,101.43 482.72,100.93 C481.7,100.4 480.77,99.74 480,99.01 C479.22,98.31 478.6,97.44 478.12,96.4 C477.63,95.42 477.39,94.25 477.39,92.86 C477.39,91.56 477.65,90.37 478.19,89.25 C478.68,88.18 479.39,87.25 480.34,86.45 C481.22,85.66 482.28,85.03 483.53,84.6 C484.75,84.17 486.06,83.96 487.45,83.96 C489.8,83.96 491.79,84.26 493.4,84.88 C495.02,85.5 496.44,86.38 497.7,87.57 L493.55,91.75 C492.75,90.99 491.9,90.43 490.98,90.06 C490.04,89.65 488.94,89.45 487.64,89.45 C487.02,89.45 486.5,89.53 486.03,89.72 C485.45,89.94 485.03,90.17 484.72,90.44 C484.34,90.74 484.05,91.09 483.88,91.48 C483.65,91.86 483.53,92.28 483.53,92.71 C483.53,93.17 483.63,93.59 483.84,94.05 C484.03,94.44 484.37,94.82 484.87,95.21 C485.43,95.59 486.09,95.97 486.83,96.32 C488.09,96.86 488.91,97.18 489.83,97.51 C492.93,98.59 495.1,99.86 496.47,101.39 C497.13,102.12 497.64,102.99 498.01,104 C498.34,104.93 498.51,105.99 498.51,107.22 L498.51,107.22 z"/>
 </g>
</svg>

