<?xml version="1.0" encoding="UTF-8"?>
<!DOCTYPE svg PUBLIC "-//W3C//DTD SVG 1.1//EN" "http://www.w3.org/Graphics/SVG/1.1/DTD/svg11.dtd">
<!-- Creator: FutureCorp VMX -->
<svg xmlns="http://www.w3.org/2000/svg" xml:space="preserve" shape-rendering="geometricPrecision" text-rendering="geometricPrecision" image-rendering="optimizeQuality" fill-rule="evenodd" clip-rule="evenodd" viewBox="0 0 905 824" enable-background="new 0 0 905 824" 
 xmlns:xlink="http://www.w3.org/1999/xlink">
 <g id="Layer_1">
  <metadata id="FutureCorpID_Layer"/>

  <path fill="#07767D" d="M821.53,595.99 L821.52,595.99 C822.77,595.67 823.24,594.8 823.24,592.81 C823.25,553.64 823.24,563.44 823.27,524.27 C823.28,520.79 823.12,520.25 821.96,519.77 C821.21,519.5 822.13,519.53 815.53,519.5 L813.94,519.5 L813.94,513.95 C823.69,513.9 822.29,513.84 823.72,514.36 C827.16,515.6 828.72,518.22 828.72,522.73 L828.63,594.68 C828.18,598.93 825.23,601.52 820.7,601.67 L766.35,601.65 C761.9,601.35 759.14,598.3 759,593.52 L759.04,520.99 C759.35,516.77 762.14,514.12 766.45,513.92 C770.63,513.94 769.59,513.94 773.77,513.95 L773.77,519.48 L766.97,519.49 C764.99,519.53 764.24,520.64 764.41,523.29 L764.43,589.86 C764.43,594.68 764.38,593.97 764.74,594.8 C765.32,596 765.67,596.1 769.23,596.1 C799,596.07 791.56,596.08 821.33,596.04 C821.44,596.01 821.42,596.02 821.53,595.99 L821.53,595.99 z"/>
  <path fill="#07767D" d="M781.07,540.08 L781.07,540.08 C783.96,536.95 783.75,537.13 784.4,537.21 C785.59,537.36 786.37,538.63 785.87,539.65 L778.34,548.01 C777.16,548.49 776.9,548.36 775,546.41 C773.11,544.46 773.58,544.95 771.68,543 C772.99,541.1 772.73,541.36 773.5,541.13 C774.37,540.93 774.49,541.01 776.41,542.97 L777.43,544.01 C779.51,541.76 778.99,542.32 781.07,540.08 L781.07,540.08 z"/>
  <path fill="#07767D" d="M781.13,559.1 L781.13,559.1 C784.09,555.96 783.8,556.22 784.41,556.28 C785.39,556.38 786.17,557.42 786,558.38 C785.89,558.85 786.91,557.68 778.85,566.58 C777.73,567.67 777.03,567.58 775.67,566.17 C771.55,561.91 771.91,562.37 772.08,561.51 C772.18,561.01 772.76,560.4 773.32,560.23 C774.33,559.96 774.46,560.04 776.41,562.03 L777.4,563.05 C779.53,560.79 779,561.36 781.13,559.1 L781.13,559.1 z"/>
  <path fill="#07767D" d="M780.96,578.33 L780.96,578.33 C784.15,574.97 783.78,575.29 784.41,575.35 C785.56,575.45 786.34,576.75 785.88,577.79 L778.22,586.15 C777.37,586.54 776.88,586.36 775.84,585.3 L771.71,581.06 L772.57,579.81 C773.19,578.93 774.41,579 775.36,579.98 C776.52,581.18 776.23,580.88 777.39,582.08 L780.96,578.33 L780.96,578.33 z"/>
  <path fill="#07767D" d="M802.82,508.64 L802.83,508.63 L803.4,510.71 C803.43,510.93 803.44,511.01 803.45,511.23 C809.86,511.22 808.94,511.13 809.92,511.84 C811.2,512.81 811.29,513.22 811.23,517.69 L811.25,519.93 C811.28,522.57 810.85,523.56 809.39,524.27 C808.79,524.53 812.29,524.5 784.89,524.5 C777.58,524.51 778.61,524.6 777.62,523.83 C776.41,522.85 776.43,523.01 776.48,516.9 L776.46,514.86 C776.43,512.33 777.62,511.19 780.27,511.21 L784.23,511.23 C784.29,509.91 784.21,510.24 784.76,508.96 C786.18,505.64 788.39,503.77 791.92,502.92 C794.04,502.4 796.17,502.71 798.37,503.84 C800.16,504.77 801.86,506.6 802.82,508.64 L802.82,508.64 zM793.94,509.39 C791.73,509.36 790.22,510.77 790.13,512.95 C790.08,514.95 791.62,516.6 793.65,516.74 C795.56,516.8 797.31,515.21 797.39,513.36 C797.45,510.94 796.2,509.49 793.98,509.39 L793.94,509.39 L793.94,509.39 z"/>
  <path fill="#07767D" d="M814.04,560.37 L814.02,560.38 C814.99,560.61 815.7,561.67 815.48,562.55 C815.09,563.82 814.57,564.09 812.58,564.09 C791.37,564.13 794.09,564.18 793.54,563.73 C792.71,562.94 792.58,562.01 793.18,561.16 C793.8,560.34 793.76,560.35 795.56,560.37 C798.34,560.31 797.65,560.32 800.44,560.26 C807.11,560.25 805.44,560.25 812.11,560.23 C813.32,560.22 813.54,560.24 814.04,560.37 L814.04,560.37 z"/>
  <path fill="#07767D" d="M813.73,579.37 L813.73,579.39 C814.78,579.57 815.57,580.44 815.53,581.35 C815.49,582.24 814.65,583.1 813.78,583.14 C811.4,583.23 794.67,583.2 794.24,583.11 C793.16,582.86 792.56,581.74 792.93,580.68 C793.41,579.5 794.03,579.26 796.4,579.35 L805.86,579.39 C810.92,579.26 812.92,579.26 813.73,579.37 L813.73,579.37 z"/>
  <path fill="#07767D" d="M814.06,541.27 L814.04,541.29 C814.71,541.45 815.18,541.9 815.46,542.64 C815.63,543.21 815.56,543.5 815.02,544.31 C814.85,544.57 814.76,544.69 814.58,544.92 L794.16,544.85 C793.15,544.61 792.6,543.52 792.94,542.44 C793.27,541.56 794,541.21 795.33,541.28 C805.49,541.22 802.95,541.23 813.11,541.18 C813.55,541.18 813.75,541.2 814.06,541.27 L814.06,541.27 z"/>
  <path fill="#07767D" d="M72.75,298.18 L72.75,298.18 C72.36,297.27 72.25,296.59 72.26,294.98 C72.27,289.59 72.27,290.94 72.27,285.55 C72.39,283.71 72.95,282.5 74.13,281.5 C74.86,280.88 75.5,280.6 76.68,280.35 C76.95,278.3 76.88,278.74 77.18,277.27 C78.22,272.15 80.74,267.01 84.22,262.89 C86.72,259.93 89.15,257.81 92.37,255.77 C96.92,252.88 101.81,251.16 107.6,250.41 C108.99,250.22 108.98,250.23 110.96,250.14 C112.11,250.09 111.69,250.08 113.9,250.16 C116.39,250.24 118.48,250.52 121.1,251.11 C125.11,252.02 128.97,253.64 132.23,255.79 C136.33,258.49 139.52,261.79 142.28,266.14 C142.78,266.94 143.22,267.72 143.81,268.89 C145.11,271.44 146.08,274.14 146.69,276.89 C146.9,277.86 147.11,279.12 147.2,280.01 C147.21,280.03 147.24,280.33 147.24,280.36 C148.18,280.57 148,280.51 148.51,280.73 C150.3,281.52 151.35,283.1 151.55,285.29 C151.59,285.72 151.58,285.06 151.58,289.91 C151.58,297.17 151.6,296.2 151.45,297 C151.06,299.08 149.55,300.64 147.51,301.08 L146.94,301.17 L146.72,303.16 C146.21,306.21 144.92,308.86 143.01,310.8 C140.33,313.5 136.78,314.81 131.96,314.85 C131.06,314.86 131.29,314.86 130.39,314.87 L130.04,315.44 C129.43,316.22 128.68,316.51 127.34,316.49 C126.8,316.49 127.01,316.48 125.91,316.51 C124.97,316.5 125.21,316.5 124.27,316.5 C122.27,316.49 122.31,316.49 121.76,316.26 C120.74,315.82 120.05,314.82 119.95,313.62 C119.8,311.94 120.68,310.53 122.14,310.08 C122.65,309.92 122.35,309.93 125.13,309.93 C128.76,309.93 128.3,309.91 128.83,310.1 C129.39,310.3 129.85,310.66 130.18,311.15 L130.34,311.38 L133.35,311.33 C136.94,311.14 139.81,309.71 141.54,307.23 C142.65,305.66 143.36,303.51 143.46,301.41 L143.49,300.89 L142.76,300.47 C141.86,299.78 141.35,298.83 141.28,297.74 L141.27,292.56 C141.25,282.12 141.24,283.49 141.38,282.94 C141.6,282.11 142.16,281.34 142.89,280.86 C143.03,280.77 143,280.79 143.13,280.7 L142.9,279.29 C142.18,274.94 140.55,270.96 137.98,267.32 C134.97,263.06 130.89,259.6 126.42,257.53 C122.73,255.82 118.91,254.86 114.72,254.59 C111.16,254.35 108.15,254.58 104.63,255.34 C100.38,256.26 96.49,257.95 93.16,260.33 C89.19,263.17 86.1,266.69 83.88,270.89 C82.41,273.69 81.29,277.19 80.87,280.29 L80.83,280.75 C81.52,281.22 81.4,281.11 81.72,281.47 C82.47,282.31 82.67,283.01 82.66,284.81 C82.64,291.97 82.65,290.18 82.62,297.34 C82.62,299.21 81.54,300.61 79.75,301.06 C79.13,301.21 77.05,301.21 76.26,301.06 C74.75,300.76 73.38,299.64 72.75,298.18 L72.75,298.18 z"/>
  <path fill="#07767D" d="M137.41,321.79 L137.41,321.79 C143.13,325.05 146.74,330.36 147.63,336.82 C147.78,337.91 147.84,338.95 147.84,340.26 C147.83,342.35 147.85,342.02 147.71,342.58 C147.29,344.33 145.85,345.6 144.23,345.64 L109.87,345.66 C108.5,345.66 108.84,345.66 107.46,345.66 L80.72,345.68 C79.21,345.68 78.85,345.61 78.12,345.2 C76.86,344.49 76.11,343.17 76.06,341.59 C76.03,340.3 76.06,338.81 76.15,337.86 C76.48,334.38 77.45,331.48 79.2,328.78 C81.34,325.49 84.79,322.74 88.96,320.99 C91.53,319.91 94.39,319.15 98.09,318.57 L99.48,318.35 C99.62,318.83 99.57,318.71 99.83,319.19 C100.8,320.94 102.78,321.91 105.49,321.97 L119.04,321.95 C121.7,321.81 123.59,320.64 124.4,318.66 C124.44,318.55 124.47,318.46 124.51,318.35 C124.98,318.36 124.86,318.35 125.33,318.36 C127.42,318.41 130.62,319.03 133.12,319.87 C134.73,320.42 135.97,320.97 137.41,321.79 L137.41,321.79 z"/>
  <path fill="#07767D" d="M114.02,265.9 L114.02,265.9 L113.46,266.16 L113.48,271.55 C117.47,271.55 116.48,271.55 120.46,271.55 C122.14,271.52 125.9,271.56 126.48,271.63 C128.53,271.85 130.26,272.43 131.99,273.46 C135.04,275.27 137.33,278.1 138.39,281.36 C138.87,282.82 139.11,284.28 139.11,285.73 L139.11,294.14 C139.11,294.72 139.11,294.58 139.11,295.16 L139.11,296.96 C139.12,299.94 138.95,301.34 138.37,303.23 C137.67,305.47 136.35,307.71 134.84,309.21 C134.78,309.27 134.74,309.32 134.68,309.38 L131.3,309.67 L130.66,309.09 C129.88,308.53 129.13,308.32 127.87,308.32 L123.8,308.31 L122.31,308.35 C120.04,308.65 118.25,310.73 118.24,313.1 L118.2,313.84 C107.3,313.82 110.03,313.83 99.13,313.82 C93.96,313.53 89.33,310.59 86.8,306 C85.36,303.38 84.79,300.98 84.8,297.56 C84.81,290.66 84.8,292.39 84.87,285.5 C84.92,281.4 86.97,277.23 90.21,274.65 C92.88,272.53 95.82,271.52 99.22,271.53 L103.93,271.56 C104.72,271.56 104.52,271.56 105.31,271.57 L106.39,271.55 L110.56,271.55 L110.57,266.14 C110.03,265.93 110.15,265.99 109.74,265.72 C108.28,264.75 107.59,262.97 108.03,261.27 C108.5,259.43 110.2,258.1 112.07,258.12 C113.96,258.14 115.58,259.48 116.03,261.38 C116.43,263.08 115.65,264.91 114.14,265.83 C114.09,265.86 114.07,265.87 114.02,265.9 L114.02,265.9 zM125.34,280.86 L98.27,280.86 C96.4,280.86 94.89,281.36 93.53,282.42 C91.73,283.82 90.7,285.83 90.58,288.17 L90.55,291.6 C90.56,292.55 90.56,292.32 90.57,293.27 C90.54,294.78 90.55,295.68 90.6,296.29 C90.79,298.5 91.77,300.53 93.39,302.04 C94.8,303.35 96.53,304.1 98.48,304.25 L123.52,304.27 C125.66,304.27 125.97,304.25 126.85,304.05 C130,303.33 132.49,300.71 133.17,297.38 C133.36,296.46 133.38,296.25 133.38,294.59 C133.38,287.18 133.39,288.21 133.3,287.43 C133.11,285.76 132.17,283.92 130.93,282.84 C129.25,281.38 127.78,280.85 125.34,280.86 L125.34,280.86 z"/>
  <path fill="#07767D" d="M101.46,287.86 L101.45,287.86 C103.25,288.09 104.48,289.64 104.37,291.54 C104.27,293.38 102.7,294.78 100.9,294.66 C99.18,294.53 97.85,293.06 97.84,291.28 C97.83,289.81 98.82,288.41 100.16,287.99 C100.61,287.84 101.01,287.8 101.46,287.86 L101.46,287.86 z"/>
  <path fill="#07767D" d="M118.52,315.57 C118.84,316.34 118.76,316.19 119.07,316.6 C119.72,317.45 120.39,317.91 121.43,318.22 L121.79,318.33 L121.36,318.88 C120.63,319.62 119.64,319.98 118.29,319.98 C110.73,319.96 112.62,319.97 105.05,319.95 C103.11,319.78 101.75,318.38 101.78,316.59 L101.77,316.17 L101.8,315.6 L118.52,315.57 L118.52,315.57 z"/>
  <path fill="#07767D" d="M117.16,297.93 C117.49,298.01 117.62,298.26 117.52,298.66 C117.16,300.1 115.65,301.61 114.03,302.14 C112.55,302.62 111.07,302.57 109.7,301.99 C108.17,301.34 106.95,300.02 106.57,298.58 C106.48,298.21 106.69,297.96 107.12,297.93 L117.16,297.93 L117.16,297.93 z"/>
  <path fill="#07767D" d="M123.36,287.85 L123.35,287.85 C125.04,288.07 126.29,289.55 126.29,291.33 C126.29,292.2 125.94,293.05 125.35,293.66 C124.24,294.79 122.65,295 121.32,294.19 C119.99,293.38 119.4,291.69 119.91,290.17 C120.43,288.63 121.85,287.67 123.36,287.85 L123.36,287.85 z"/>
  <path fill="#07767D" d="M753.17,294.01 C752.74,300.53 749.2,304.26 742.55,305.21 C740.04,305.57 737.69,305.22 735.5,304.18 C729.67,301.4 727.43,296.87 728.78,290.59 C729.43,287.55 730.98,285.1 733.42,283.23 C735.85,281.36 738.59,280.52 741.62,280.73 C745.1,280.97 747.95,282.36 750.18,284.92 C752.4,287.47 753.39,290.5 753.17,294.01 L753.17,294.01 zM797.92,284.83 C800.66,281.69 804.06,280.32 808.12,280.74 L808.13,280.74 C813.01,281.28 816.4,283.76 818.32,288.17 C820.81,293.91 819.65,298.72 814.84,302.61 C812.68,304.35 810.19,305.26 807.35,305.34 C804.52,305.42 801.99,304.64 799.77,303.02 C796.9,300.92 795.24,298.1 794.81,294.56 C794.37,290.96 795.4,287.72 797.92,284.83 L797.92,284.83 zM745.08,309.9 C745.64,309.99 746.22,310.12 746.83,310.29 C746.28,310.81 745.67,311.57 745.01,312.59 C741.85,317.43 740.28,322.89 740.3,328.98 C740.33,334.48 740.2,337.38 739.94,337.66 C739.62,337.99 738.51,338.15 736.61,338.14 L721.15,338.11 C719.89,338.11 719.28,337.23 719.33,335.47 L719.4,326.23 C719.47,316.21 725.01,310.7 736.03,309.71 C739.27,309.42 742.27,309.48 745.05,309.9 L745.08,309.9 L745.08,309.9 zM746.47,328.48 C746.49,322.95 748.19,318.15 751.56,314.08 C756.23,308.48 763.42,305.63 773.16,305.54 C782.13,305.46 789.05,307.51 793.94,311.69 C798.96,315.98 801.47,321.75 801.45,328.99 L801.41,344.23 C801.26,345.09 800.75,345.56 799.87,345.64 L750.01,345.68 C748.57,345.68 747.69,345.6 747.37,345.45 C746.69,345.08 746.37,344.12 746.43,342.59 L746.47,328.48 L746.47,328.48 zM801.25,310.29 C801.87,310.11 802.65,309.95 803.59,309.82 L803.61,309.81 C805.67,309.53 807.91,309.45 810.33,309.59 C812.75,309.72 814.84,310.04 816.59,310.54 C824.78,312.86 828.82,318.6 828.72,327.78 L828.61,336.95 C828.41,337.68 827.87,338.07 827,338.11 L810,338.13 C808.89,338.13 808.12,337.91 807.72,337.46 C807.5,337.21 807.4,336.3 807.41,334.75 L807.44,327.28 C807.36,321.91 805.71,316.83 802.5,312.04 L801.25,310.29 L801.25,310.29 zM760.48,279.04 C763.07,273.87 767.23,271.03 772.96,270.54 C773.72,270.47 774.47,270.47 775.19,270.55 L775.22,270.55 C782.07,271.3 786.45,274.96 788.35,281.55 C789.44,285.35 789.11,288.98 787.36,292.44 C785.6,295.9 782.87,298.32 779.15,299.7 C775.56,301.02 772.03,301.03 768.58,299.71 C763.19,297.64 760.03,293.84 759.09,288.31 C758.54,285.07 759.01,281.98 760.48,279.04 L760.48,279.04 z"/>
  <path fill="#07767D" d="M159.33,391.28 L64.43,391.29 C65.42,392.24 67.19,393.8 69.72,395.95 L106.34,427.04 C108.88,429.2 110.24,430.33 110.43,430.43 C111.83,431.13 113.27,430.85 114.74,429.59 L159.33,391.28 L159.33,391.28 zM164.87,460.06 C163.33,461.49 161.45,462.26 159.23,462.36 L63.81,462.32 C61.81,462.13 60.1,461.3 58.7,459.82 C57.29,458.34 56.53,456.59 56.42,454.57 L56.37,396.78 L56.51,392.79 C57.29,388.2 60.18,385.84 65.16,385.7 L159.46,385.73 L159.6,385.75 L159.63,385.75 C164.73,386.22 167.35,389.18 167.46,394.64 L167.42,454.71 C167.25,456.84 166.4,458.63 164.87,460.06 L164.87,460.06 zM118.19,433.91 C114.65,436.96 110.97,437.23 107.15,434.74 L61.83,396.35 L61.83,453.12 L91.26,428.15 L95.25,431.77 L65.69,456.95 L158.98,456.94 L128.95,431.57 L133.1,427.94 L161.86,452.32 L161.86,396.26 L161.58,396.54 L118.19,433.91 L118.19,433.91 z"/>
  <path fill="#046876" d="M784.83,694.12 C782.51,693.79 781.49,692.47 781.76,690.16 C781.87,689.18 782.3,688.42 783.02,687.88 C783.75,687.34 784.63,687.13 785.67,687.24 L785.68,687.24 C786.64,687.37 787.4,687.81 787.96,688.57 C788.53,689.33 788.75,690.21 788.63,691.21 C788.51,692.08 788.06,692.8 787.29,693.39 C786.52,693.98 785.7,694.22 784.83,694.12 L784.83,694.12 zM801.09,688.53 C801.65,689.28 801.89,690.14 801.79,691.11 C801.68,692 801.26,692.74 800.53,693.34 C799.8,693.93 798.98,694.2 798.08,694.14 C795.69,693.89 794.61,692.6 794.85,690.26 C795.08,687.99 796.42,686.98 798.86,687.24 L798.88,687.24 C799.79,687.35 800.53,687.78 801.09,688.53 L801.09,688.53 zM800.23,664.7 C810.8,665.19 818.84,669.35 824.34,677.17 C828.01,682.38 829.37,687.92 828.43,693.78 C827.63,698.71 825.28,703.13 821.37,707.02 L820.74,707.64 C821.31,710.07 821.89,712.11 822.47,713.76 L823.98,717.84 C824.45,719.09 824.26,720.04 823.43,720.68 C822.72,721.18 821.59,721.11 820.02,720.46 C816.04,718.81 812.13,717.04 808.29,715.15 L807.45,714.74 L803.77,715.58 C795.01,717.07 787.02,715.7 779.81,711.45 C772.75,707.29 768.52,701.71 767.09,694.7 C765.23,685.54 768.51,677.73 776.92,671.26 C777.92,670.49 779.05,669.76 780.29,669.06 L780.3,669.06 C786.16,665.81 792.8,664.36 800.23,664.7 L800.23,664.7 zM787.32,637.46 C791.9,639.56 795.79,642.47 798.96,646.19 C803.04,650.95 805.38,656.22 806,661.98 L806.11,663.08 L801.63,662.57 L800.9,659.22 C800.6,658.22 800.21,657.15 799.73,656.01 L799.72,656 C797.49,650.73 793.8,646.51 788.64,643.36 C783.27,640.08 777.37,638.66 770.93,639.12 C762.44,639.72 755.55,643.11 750.26,649.29 C746.63,653.54 744.52,658.37 743.94,663.78 C743.71,665.93 743.73,668.03 744.02,670.06 C744.7,674.88 746.7,679.27 750.01,683.25 L750.81,684.17 C751.21,684.63 751.12,685.78 750.53,687.62 L749.01,692.42 L747.94,695.21 L749.97,694.82 C752.4,694.07 755.11,692.78 758.09,690.95 C759.02,690.38 760.15,690.33 761.48,690.8 C761.81,690.92 762.15,691.03 762.5,691.13 C761.93,693.38 761.65,694.69 761.65,695.06 C761.65,695.14 761.62,695.21 761.58,695.26 C761.54,695.31 761.48,695.34 761.42,695.35 C761.38,695.35 761.19,695.29 760.84,695.16 C760.35,694.97 759.55,695.23 758.45,695.91 C755.22,697.94 751.35,699.41 746.82,700.33 C744.96,700.71 743.78,700.84 743.28,700.71 C742.63,700.51 742.19,699.99 741.95,699.17 C741.83,698.7 742.2,697.51 743.05,695.61 C743.53,694.52 744.07,693.15 744.67,691.5 C745.26,689.84 745.78,688.26 746.23,686.75 L746.44,686.02 C744.72,683.69 743.57,681.99 742.98,680.91 C740.94,677.13 739.75,673.16 739.42,668.99 C739.22,666.51 739.3,664.12 739.66,661.81 C740.66,655.39 743.41,649.82 747.92,645.09 C754.07,638.65 761.73,635.1 770.89,634.44 C776.56,634.04 782.03,635.04 787.32,637.46 L787.32,637.46 zM795.1,669.29 C790.38,669.71 786.05,671.03 782.12,673.26 C780.74,674.05 779.45,674.96 778.25,676.01 C774.33,679.45 772.03,683.5 771.35,688.16 C770.95,690.86 771.19,693.49 772.06,696.04 C774.43,702.95 779.9,707.68 788.48,710.22 C794.08,711.88 799.67,712.02 805.23,710.66 C807.05,710.22 808.81,710.43 810.51,711.3 C813.44,712.8 816.04,714.02 818.3,714.94 L817.86,713.4 C817.1,710.97 816.58,709.25 816.33,708.24 C815.96,706.79 816.08,705.79 816.69,705.24 C818.47,703.63 819.78,702.23 820.61,701.05 C823.9,696.36 824.89,691.38 823.59,686.1 C821.64,678.16 815.94,672.89 806.52,670.31 C802.8,669.29 798.99,668.95 795.1,669.29 L795.1,669.29 zM809.29,687.83 C810.04,687.3 810.95,687.11 811.99,687.25 L812.02,687.26 C812.97,687.41 813.72,687.85 814.25,688.56 C814.78,689.28 814.98,690.13 814.85,691.12 C814.71,692.1 814.25,692.88 813.48,693.46 C812.71,694.03 811.84,694.25 810.87,694.11 C809.87,693.95 809.09,693.49 808.54,692.75 C807.99,692 807.78,691.13 807.91,690.13 C808.07,689.13 808.53,688.37 809.29,687.83 L809.29,687.83 z"/>
  <path fill="#07767D" d="M808.44,411.09 C809.04,411.35 809.41,411.81 809.53,412.48 C809.57,412.81 809.51,413.1 809.34,413.35 C809.22,413.53 808.95,413.85 808.54,414.31 L794.73,429.94 L795,432.08 C794.89,434.08 794.1,435.68 792.63,436.88 C791.16,438.08 789.43,438.54 787.43,438.28 C785.46,438.01 783.92,437.13 782.81,435.62 C781.7,434.12 781.33,432.42 781.71,430.53 C782.41,427.08 784.52,425.27 788.05,425.09 L789.8,425.29 L789.88,425.31 L805.35,412.82 L805.34,412.81 C806.96,411.5 807.99,410.92 808.44,411.09 L808.44,411.09 zM744.7,442.47 C744.33,442.97 743.87,443.23 743.31,443.27 C742.95,443.28 742.08,443.29 740.69,443.28 L731.68,443.25 C730.49,443.24 729.86,443.23 729.79,443.22 C729.28,443.07 728.88,442.76 728.59,442.29 C728.31,441.83 728.22,441.33 728.31,440.79 C728.57,439.57 729.35,438.96 730.63,438.96 L741.82,439.02 L741.82,438.98 C743.79,438.91 744.9,439.53 745.13,440.84 C745.22,441.43 745.08,441.97 744.7,442.47 L744.7,442.47 zM772.77,469.14 C764.57,465.55 758.27,459.98 753.86,452.42 C750.25,446.22 748.42,439.65 748.37,432.72 C748.27,419.32 753.39,408.54 763.73,400.38 C772.22,393.68 781.61,390.87 791.89,391.95 C797.36,392.53 802.56,394.1 807.5,396.67 L807.51,396.67 C809.75,397.83 812.3,399.62 815.17,402.02 L816,402.72 L819.67,399.3 C819.07,398.7 818.67,398.21 818.46,397.82 C817.7,396.32 818.23,395.06 820.04,394.04 C821.22,393.4 822.42,393.72 823.65,394.98 C826.97,398.36 828.65,400.39 828.7,401.05 C828.77,402.46 828.02,403.51 826.44,404.2 C825.58,404.56 824.72,404.36 823.85,403.61 C823.53,403.34 823.22,403.05 822.94,402.74 L819.35,406.4 L822.11,410.26 C825.18,415.09 827.17,420.1 828.07,425.29 C830.06,436.67 827.46,447.09 820.28,456.56 C814.3,464.45 806.33,469.46 796.37,471.59 C788.31,473.32 780.45,472.5 772.77,469.14 L772.77,469.14 zM771.9,414.27 C771.77,414.87 771.37,415.32 770.7,415.63 C770.01,415.9 769.18,415.53 768.2,414.52 C767.31,413.6 766.91,412.81 767.01,412.14 C767.11,411.67 767.39,411.27 767.84,410.96 C768.3,410.65 768.72,410.56 769.12,410.7 L769.13,410.7 C769.46,410.83 769.99,411.28 770.7,412.03 L771.35,412.65 C771.85,413.13 772.03,413.67 771.9,414.27 L771.9,414.27 zM788.37,375.65 C789.87,375.64 791.08,375.62 792.02,375.59 L792.04,375.59 C795.16,375.5 797.18,376.03 798.1,377.18 C798.85,378.14 799.14,379.76 798.98,382.06 C798.81,384.47 797.59,385.72 795.3,385.81 C793.04,385.9 790.03,385.93 786.27,385.9 C782.52,385.88 780.42,385.81 779.98,385.69 C778.15,385.17 777.23,383.7 777.24,381.28 C777.24,378.93 777.71,377.36 778.64,376.56 C779.43,375.88 781.46,375.58 784.74,375.64 C785.65,375.66 786.86,375.66 788.37,375.65 L788.37,375.65 zM786.96,461.3 C786.72,461.03 786.62,459.57 786.64,456.94 C786.73,456.38 786.99,455.96 787.43,455.65 C787.87,455.35 788.34,455.27 788.85,455.42 L788.97,455.47 C789.76,455.84 790.15,456.75 790.13,458.22 C790.1,460.18 789.83,461.33 789.3,461.69 C788.93,461.92 788.54,461.99 788.1,461.92 C787.67,461.85 787.29,461.64 786.96,461.3 L786.96,461.3 zM818.11,417.35 C812.41,405.63 802.89,399.56 789.57,399.16 L789.6,399.17 C785.22,399.05 781.12,399.66 777.3,401.02 C772.17,402.84 767.77,405.72 764.1,409.67 C758.86,415.31 755.97,421.96 755.43,429.63 C755.09,434.44 755.92,439.47 757.92,444.71 C758.26,445.61 758.81,446.73 759.56,448.08 C760.31,449.43 761.04,450.59 761.73,451.55 C766.43,458.04 772.96,462.27 781.31,464.24 C791.96,466.75 801.6,464.3 810.23,456.88 C816.99,451.06 820.73,443.71 821.45,434.83 C821.94,428.75 820.83,422.92 818.11,417.35 L818.11,417.35 zM742.67,429.48 C742.43,430.47 741.77,430.96 740.69,430.96 L722.47,430.92 C721.95,430.77 721.55,430.46 721.27,429.98 C720.99,429.5 720.92,428.99 721.04,428.46 C721.35,427.31 722.67,426.74 724.99,426.74 L739.75,426.76 C740.23,426.79 740.64,426.84 740.98,426.91 L740.99,426.91 C741.6,427.04 742.07,427.34 742.39,427.83 C742.7,428.31 742.8,428.86 742.67,429.48 L742.67,429.48 zM728.7,416.18 C729.27,415.31 730.41,414.94 732.11,415.07 L742.09,415.06 C742.63,415.06 743.09,415.09 743.46,415.15 L743.49,415.16 C744.1,415.25 744.58,415.55 744.93,416.06 C745.29,416.58 745.41,417.14 745.28,417.74 C745.02,418.81 744.28,419.34 743.08,419.34 L731.63,419.33 C730.92,419.33 730.44,419.32 730.2,419.3 C729.86,419.27 729.56,419.16 729.3,418.97 C728.85,418.62 728.57,418.18 728.45,417.65 C728.34,417.12 728.42,416.63 728.7,416.18 L728.7,416.18 zM770.84,451.68 L770.23,452.35 C769.44,453.22 768.6,453.35 767.71,452.75 C766.91,452.16 766.75,451.41 767.22,450.52 C767.32,450.36 767.66,449.98 768.26,449.37 C769.2,448.43 769.97,448.01 770.57,448.12 L770.61,448.13 C771.1,448.27 771.48,448.57 771.74,449.05 C772.01,449.52 772.06,449.99 771.89,450.44 C771.81,450.63 771.46,451.04 770.84,451.68 L770.84,451.68 zM805.96,451.83 C805.27,451.13 804.87,450.59 804.77,450.21 C804.63,449.63 804.79,449.12 805.25,448.66 C805.7,448.21 806.25,448.03 806.88,448.11 L806.88,448.11 C807.18,448.17 807.81,448.7 808.77,449.69 C809.57,450.52 809.86,451.27 809.66,451.95 C809.51,452.33 809.22,452.63 808.8,452.86 C808.37,453.09 807.96,453.15 807.58,453.06 C807.19,452.93 806.65,452.52 805.96,451.83 L805.96,451.83 zM762.54,433.57 C760.05,433.72 758.8,433.14 758.81,431.82 C758.88,430.61 759.73,430.03 761.37,430.07 L762.69,430.08 C762.92,430.08 763.12,430.1 763.29,430.12 L763.3,430.14 C763.74,430.21 764.11,430.44 764.39,430.84 C764.68,431.24 764.78,431.68 764.7,432.14 C764.51,433.02 763.79,433.49 762.54,433.57 L762.54,433.57 zM788.78,402.48 C789.72,402.67 790.17,403.39 790.14,404.66 C790.08,406.73 789.84,407.92 789.42,408.25 C789.08,408.49 788.69,408.59 788.26,408.55 C787.83,408.51 787.45,408.35 787.13,408.06 C786.76,407.7 786.58,406.81 786.61,405.37 C786.64,404.11 786.77,403.36 787.01,403.12 C787.54,402.6 788.13,402.39 788.76,402.48 L788.78,402.48 L788.78,402.48 zM784.79,388.43 C784.81,388.29 784.83,388.17 784.86,388.07 C784.88,387.96 784.91,387.89 784.94,387.86 C785.02,387.77 786.65,387.74 789.83,387.76 C790.33,387.81 790.64,387.87 790.77,387.95 C790.91,388.04 791.03,388.2 791.13,388.45 C791.22,388.69 791.24,388.87 791.18,388.97 C791.07,389.17 789.98,389.28 787.92,389.32 L785.96,389.36 C785.27,389.4 784.87,389.3 784.78,389.04 C784.76,389 784.75,388.92 784.76,388.81 C784.76,388.7 784.77,388.57 784.79,388.43 L784.79,388.43 zM814.36,433.58 C812.84,433.6 812.11,432.99 812.17,431.75 C812.28,430.69 812.92,430.15 814.09,430.14 C815.74,430.12 816.66,430.13 816.84,430.16 L816.83,430.17 C817.28,430.25 817.64,430.49 817.9,430.87 C818.15,431.26 818.24,431.68 818.15,432.15 C817.92,433.14 817.1,433.61 815.71,433.57 L814.36,433.58 L814.36,433.58 z"/>
  <path fill="#07767D" d="M89.35,573.26 L89.34,582.37 L79.58,582.34 L79.53,573.26 L81.97,573.26 L81.97,573.28 L89.35,573.26 L89.35,573.26 zM96.79,582.46 L96.83,573.26 L105.79,573.28 L105.77,573.27 L106.52,573.27 L106.55,582.32 L96.79,582.46 L96.79,582.46 zM136.1,506.88 L136.11,506.88 C138.14,507.16 139.16,508.42 139.15,510.64 L139.1,521.32 C138.99,522.26 138.53,523.01 137.72,523.57 C136.91,524.14 136,524.33 135,524.16 C133.02,523.76 132.08,522.5 132.18,520.36 C132.2,519.97 132.18,518.55 132.12,516.09 C132.01,511.2 132.5,508.35 133.59,507.55 C134.36,507.01 135.19,506.78 136.1,506.88 L136.1,506.88 zM88.47,518.42 C88.47,520.85 88.11,522.47 87.39,523.26 C86.88,523.81 86.21,524.13 85.4,524.22 C84.59,524.31 83.83,524.15 83.12,523.74 C81.87,522.98 81.29,520.95 81.38,517.65 L81.4,511.14 C81.41,508.37 82.54,506.91 84.8,506.76 C87.1,506.67 88.31,508 88.46,510.75 L88.47,518.42 L88.47,518.42 zM106,542.54 L106.55,542.54 L106.57,551.79 L96.82,551.78 L96.81,542.61 L105.99,542.55 L106,542.54 L106,542.54 zM106.21,557.95 L106.51,557.94 L106.56,567.1 L96.81,567.13 L96.81,557.93 L106.24,557.95 L106.21,557.95 L106.21,557.95 zM88.98,557.95 L89.28,557.95 L89.33,567.12 L79.6,567.11 L79.64,557.95 L88.98,557.94 L88.98,557.95 L88.98,557.95 zM114.08,542.64 L123.26,542.5 L123.27,542.49 L123.86,542.48 L123.81,551.79 L114.06,551.78 L114.08,542.64 L114.08,542.64 zM79.56,551.79 L79.56,542.46 L88.58,542.61 L88.57,542.63 L89.37,542.64 L89.32,551.79 L79.56,551.79 L79.56,551.79 zM141.07,551.77 L131.39,551.81 L131.43,542.63 L140.25,542.52 L140.25,542.49 L141.08,542.48 L141.07,551.77 L141.07,551.77 zM154.21,594.9 C152.32,596.61 150,597.51 147.25,597.59 L72.64,597.54 C70.15,597.34 68.06,596.36 66.38,594.6 C64.69,592.84 63.79,590.69 63.66,588.14 L63.61,527.38 C63.61,523.32 63.92,520.63 64.54,519.31 C66.16,515.89 69.01,514.1 73.1,513.96 L77.54,513.98 C78.05,513.98 78.56,513.97 79.08,513.94 L79.13,521.45 C79.35,523.2 80.09,524.57 81.36,525.54 C82.62,526.52 84.11,526.88 85.82,526.62 C89.23,526.12 90.91,523.94 90.87,520.09 L90.85,517.43 L90.98,513.98 L129.79,513.98 L129.86,521.57 C130.32,525.05 132.37,526.74 136.01,526.64 L136.08,526.64 C139.63,526.45 141.47,524.38 141.59,520.42 L141.57,514.05 C145.01,513.94 147.31,513.94 148.49,514.05 C154.27,514.56 157.24,517.7 157.39,523.48 L157.34,588.4 C157.13,591.02 156.09,593.18 154.21,594.9 L154.21,594.9 zM140.41,573.29 L141.08,573.29 L141.08,582.41 L131.4,582.47 L131.44,573.27 L140.42,573.25 L140.41,573.29 L140.41,573.29 zM123.85,573.27 L123.81,582.33 L114.08,582.45 L114.06,573.27 L122.93,573.24 L123.01,573.27 L123.85,573.27 L123.85,573.27 zM131.42,557.94 L140.51,557.93 L140.49,557.95 L141.07,557.95 L141.08,567.11 L131.4,567.14 L131.42,557.94 L131.42,557.94 zM114.08,557.93 L123.35,557.95 L123.33,557.94 L123.81,557.94 L123.84,567.12 L114.05,567.13 L114.08,557.93 L114.08,557.93 zM70.72,534.19 L70.69,586.28 C70.78,588.93 72.19,590.25 74.94,590.25 L145.49,590.31 C148.21,590.31 149.77,589.33 150.15,587.36 L150.16,534.14 L147.69,534.14 L147.7,534.14 L70.72,534.19 L70.72,534.19 z"/>
  <path fill="#07767D" d="M126.46,663.6 L126.4,663.6 C165.04,664.62 160.05,664.33 161.34,665.65 C163.18,667.69 162.82,668.93 159.68,671.48 C145.36,683.09 148.94,680.19 134.63,691.8 L143.99,721.92 C144.06,723.3 143.53,724.35 142.43,725.01 C141.4,725.57 138.9,725.21 137.5,724.29 L111.84,707.34 L85.59,724.72 C83.74,725.7 81.4,725.57 80.37,724.41 C79.12,722.91 79.18,722.23 80.97,716.89 L88.78,690.85 L61.87,669.85 C61.47,669.27 61.32,668.35 61.41,666.88 C61.46,665.98 61.54,665.47 61.79,664.61 L97.27,663.61 L101.87,650.38 C104.6,641.91 107.75,632.78 108.18,632.14 C109.37,630.35 110.94,629.63 112.52,630.14 C114.58,630.94 114.43,630.67 116.9,637.74 C122.08,652.52 120.78,648.82 126,663.59 L126.46,663.6 L126.46,663.6 z"/>
  <path fill="#07767D" d="M37.93,127.73 C29.73,127.73 25.05,130.3 22.3,136.35 C20.56,140.16 19.92,150.97 20.84,160.73 C21.67,169.43 25.97,174.2 33.74,175.03 L864.76,175.45 C878.5,175.21 883.71,170.46 883.99,157.94 C884.21,148.22 883.9,141.78 883.06,138.64 C881.16,131.52 876.09,128.37 866.53,128.36 L37.93,127.73 L37.93,127.73 zM84.48,42.54 L84.52,42.55 C82.22,42.35 80.1,42.46 77.67,42.9 C63.69,45.45 55.35,58.4 58.47,72.69 C60.78,83.25 69.25,90.57 80.27,91.53 C93.73,92.7 105.1,83.03 106.39,69.32 C107.7,55.42 98.29,43.92 84.48,42.54 L84.48,42.54 zM161.56,42.47 L161.55,42.47 C152.93,41.58 144.04,45.63 139.2,52.66 C134.1,60.08 133.4,70.5 137.47,78.6 C141.45,86.53 149.58,91.48 158.8,91.61 C172.64,91.81 183.78,80.64 183.49,66.85 C183.22,53.66 174.46,43.92 161.56,42.47 L161.56,42.47 zM237.7,42.45 L237.76,42.46 C224.35,41.52 212.91,51.4 211.92,64.77 C210.84,79.46 220.1,90.43 234.47,91.48 C248.15,92.48 259.37,82.65 260.4,68.76 C261.43,54.87 251.63,43.51 237.7,42.45 L237.7,42.45 zM862.03,0 C877.11,0.77 888.62,7.69 896.57,20.78 C902.7,30.87 904.97,41.68 904.93,60.55 L903.5,772.84 C902.16,798.25 888.93,817.39 869.52,821.99 L868.07,822.4 C865.54,823.22 865.54,823.22 809.68,823.13 L44.54,821.85 C31.15,821.83 21.13,817.33 12.58,807.49 C5.17,798.97 0.68,786.97 -0,773.9 L0.07,46.73 C1.76,17.69 20.32,0.32 49.69,0.31 L862.03,0 L862.03,0 zM21.7,238.08 C21.7,230.62 27.75,224.58 35.2,224.58 L869.73,224.58 C877.19,224.58 883.23,230.62 883.23,238.08 L883.23,733.21 C883.23,740.67 877.19,746.71 869.73,746.71 L35.2,746.71 C27.75,746.71 21.7,740.67 21.7,733.21 L21.7,238.08 L21.7,238.08 z"/>
  <path fill="#07767D" d="M382.57,584.08 L410.09,399.77 L495.36,399.77 L522.9,584.3 L524.29,584.61 C534.18,587.47 539.12,590.62 539.12,594.06 L539.12,610.94 L365.42,610.94 L365.42,594.06 C365.42,590.62 370.36,587.47 380.25,584.61 L382.57,584.08 L382.57,584.08 zM430.8,578.02 L452.27,577.19 L474.64,578.06 L474.64,566.3 C474.64,559.72 472.5,554.09 468.22,549.43 C463.93,544.77 458.76,542.44 452.71,542.44 C446.66,542.44 441.5,544.77 437.22,549.43 C432.94,554.09 430.8,559.71 430.8,566.3 L430.8,578.02 L430.8,578.02 zM495.37,312.5 L495.37,346.01 L503.67,346.01 C504.31,346.01 504.84,346.23 505.28,346.67 C505.72,347.12 505.94,347.66 505.94,348.3 L505.94,357.38 C505.94,358.01 505.72,358.55 505.28,358.99 C504.85,359.42 504.31,359.64 503.67,359.64 L495.4,359.64 L495.4,382.24 L507.58,382.24 C508.21,382.24 508.74,382.46 509.19,382.91 C509.63,383.35 509.85,383.89 509.85,384.53 L509.85,393.61 C509.85,394.25 509.63,394.78 509.19,395.22 C508.75,395.66 508.21,395.88 507.58,395.88 L397.38,395.88 C396.74,395.88 396.2,395.66 395.75,395.22 C395.31,394.78 395.09,394.24 395.09,393.61 L395.09,384.53 C395.09,383.9 395.31,383.36 395.76,382.91 C396.2,382.46 396.75,382.24 397.38,382.24 L409.53,382.24 L409.53,359.64 L401.67,359.64 C401.04,359.64 400.49,359.42 400.05,358.98 C399.6,358.54 399.38,358.01 399.38,357.38 L399.38,348.3 C399.38,347.66 399.6,347.12 400.05,346.68 C400.5,346.23 401.04,346.01 401.67,346.01 L409.57,346.01 L409.57,312.5 L395.09,312.5 L445.74,274.67 C445.02,273.47 444.66,272.12 444.66,270.62 C444.66,268.42 445.44,266.53 447,264.97 C448.57,263.41 450.45,262.63 452.66,262.63 C454.88,262.63 456.76,263.41 458.32,264.97 C459.88,266.53 460.66,268.41 460.66,270.62 C460.66,272.21 460.26,273.63 459.47,274.87 L509.85,312.5 L495.37,312.5 L495.37,312.5 zM463.86,445.75 C464.88,445.75 465.76,445.39 466.48,444.67 C467.21,443.95 467.57,443.08 467.57,442.07 L467.57,427.26 C467.57,426.24 467.21,425.37 466.48,424.65 C465.76,423.92 464.88,423.56 463.86,423.56 L441.56,423.56 C440.54,423.56 439.66,423.92 438.94,424.65 C438.21,425.37 437.85,426.24 437.85,427.26 L437.85,442.07 C437.85,443.08 438.22,443.95 438.94,444.67 C439.67,445.39 440.54,445.75 441.56,445.75 L463.86,445.75 L463.86,445.75 zM359.69,326.36 L332.24,317.18 L332.24,303.54 L404.06,326.36 L359.69,326.36 L359.69,326.36 zM545.42,332.96 L572.69,342.14 L572.69,355.75 L501.26,332.96 L545.42,332.96 L545.42,332.96 zM441.15,346.01 C441.15,338.48 442.25,332.06 444.46,326.73 C446.23,322.47 448.29,319.91 450.64,319.06 L450.64,312.5 L416.43,312.5 L416.43,346.01 L441.15,346.01 L441.15,346.01 zM488.5,346.01 L488.5,312.5 L454.29,312.5 L454.29,319.06 C456.65,319.91 458.71,322.46 460.47,326.72 C462.68,332.04 463.79,338.47 463.79,346.01 L488.5,346.01 L488.5,346.01 zM545.42,326.36 L501.26,326.36 L572.69,303.54 L572.69,317.18 L545.42,326.36 L545.42,326.36 zM404.06,332.96 L332.24,355.75 L332.24,342.14 L359.69,332.96 L404.06,332.96 L404.06,332.96 z"/>
  <path fill="#07767D" d="M390.53,702.99 L390.53,702.99 C387.79,705.95 384.19,707.76 380.39,708.1 C379.48,708.18 380.47,708.18 370.41,708.18 C369.56,708.18 369.77,708.18 368.93,708.18 L368.98,685.37 L376.43,685.37 L377.86,676.07 L368.97,676.07 L368.99,670.08 C369,666.85 370.66,665.17 373.98,665.03 C376.43,665.03 375.82,665.03 378.26,665.02 L378.28,657.11 C375.95,656.75 376.52,656.82 374.28,656.63 C369.14,656.19 366.01,656.8 363.34,658.76 C360.52,660.84 359.05,664.06 358.9,668.55 C358.89,671.9 358.89,671.06 358.88,674.42 C358.87,675.75 358.86,675.52 358.96,676.07 C354.26,676.07 355.43,676.07 350.73,676.07 C350.73,681.38 350.73,680.05 350.73,685.37 C355.4,685.37 354.23,685.37 358.9,685.37 C358.91,698.4 358.91,695.14 358.91,708.18 L345.63,708.14 C338.38,707.68 332.45,702.39 331.09,695.18 C330.79,693.62 330.82,696.55 330.87,674.66 L330.91,658.76 C331.2,655.11 332.85,651.63 335.55,648.95 C338.51,646.02 342.13,644.5 346.46,644.37 L379.88,644.4 C386.74,644.77 392.73,649.92 394.26,656.73 C394.64,658.43 394.59,657.2 394.59,665.36 L394.61,693.37 C394.43,696.87 392.94,700.36 390.53,702.99 L390.53,702.99 z"/>
  <path fill="#07767D" d="M466,645.7 L466,645.7 C467.72,645.93 467.9,645.96 468.66,646.21 L469.25,646.37 C470.58,646.75 471.65,647.21 473.32,648.14 C473.83,648.43 475.14,649.38 475.43,649.68 C475.55,649.8 475.48,649.74 475.87,650.04 C476.3,650.37 478.59,652.73 478.88,653.14 C479.17,653.57 479.1,653.47 479.41,653.83 L479.99,654.67 C480.5,655.6 480.37,655.37 480.87,656.3 C481.37,657.23 481.94,658.81 482.19,659.96 L482.46,660.94 C482.53,661.21 482.53,661.13 482.46,661.46 L482.67,662.28 C482.71,662.61 482.71,661.92 482.71,667.14 L482.69,692.27 C482.66,692.56 482.69,692.43 482.52,693.16 C482.48,693.32 482.48,693.24 482.48,693.69 C482.48,693.89 481.98,695.7 481.78,696.23 C481,698.32 481.18,697.91 480.51,699.07 C480.39,699.32 480.42,699.26 480.31,699.5 L479.53,700.73 L478.28,702.3 C476.48,704.16 476.32,704.31 475.12,705.17 C473.93,706.03 472.94,706.57 471.15,707.33 C470.39,707.65 468.65,708.12 467.79,708.23 C467.36,708.29 467.51,708.27 466.75,708.41 C466.28,708.5 466.61,708.49 464.47,708.49 L437.15,708.47 L434.92,708.1 C433.33,707.69 431.37,706.94 430.4,706.36 C429.46,705.8 429.69,705.94 428.75,705.37 C427.88,704.8 427.03,704.08 425.94,702.98 C424.82,701.86 425,702.06 424.64,701.59 C424.57,701.51 424.61,701.54 424.38,701.35 L422.66,698.88 C422.51,698.5 422.23,697.98 421.87,697.4 C421.86,697.37 421.29,695.88 421.21,695.67 C420.92,694.85 420.51,693.24 420.5,692.89 C420.4,692.36 420.43,692.49 420.33,691.96 C420.26,691.54 420.26,692.85 420.27,682.78 C420.28,670.8 420.27,673.8 420.29,661.82 C420.4,661.24 420.37,661.38 420.49,660.8 C420.51,660.69 420.51,660.75 420.5,660.41 C420.49,660.34 420.46,660.48 420.73,659.47 L420.85,658.98 C421,658.32 421.43,657.13 421.75,656.47 C421.77,656.42 421.76,656.47 421.83,656.17 L422.36,655.14 C422.82,654.38 422.7,654.57 423.17,653.82 C424.06,652.39 425.45,650.83 426.77,649.78 C428.28,648.57 428.95,648.13 430.26,647.48 C431.3,646.97 432.64,646.44 433.24,646.32 C433.51,646.26 433.38,646.3 434.13,646.07 C434.49,645.96 434.24,646.01 435.88,645.77 C436.74,645.65 434.74,645.66 449.87,645.67 C459.05,645.68 456.75,645.68 465.93,645.69 L466,645.7 L466,645.7 zM464.7,650.7 L464.74,650.69 L464.7,650.69 L437.87,650.67 C437.37,650.73 437.5,650.71 437,650.77 C436.12,650.8 436.33,650.78 435.57,650.94 C434.51,651.15 434.69,651.11 434.32,651.24 C432.93,651.73 432.12,652.15 430.75,653.09 C429.71,653.8 429.03,654.43 428.17,655.5 C427.53,656.29 427.63,656.15 427.12,657.05 L426.66,657.88 C425.71,660 425.48,660.89 425.28,663.24 L425.24,688.36 C425.23,690.12 425.35,691.63 425.56,692.41 L425.69,693.3 L425.96,693.81 C426.1,694.27 426.04,694.12 426.36,694.89 C426.73,695.78 426.67,695.65 426.77,695.82 L427.3,696.72 C427.55,697.18 428.15,698.03 428.36,698.22 L428.6,698.43 L429.73,699.61 C430.65,700.53 430.45,700.35 431.14,700.89 C432.1,701.65 434.57,702.86 435.44,703 C435.89,703.07 435.78,703.05 436.19,703.17 C437.45,703.34 437.14,703.3 438.4,703.46 L463.92,703.5 C465.05,703.5 466.7,703.35 467.33,703.18 C467.59,703.11 467.52,703.13 467.78,703.06 L468.39,702.94 C469.13,702.76 470.72,702.05 471.35,701.62 C471.94,701.22 471.83,701.29 472.12,701.12 C472.57,700.85 473.86,699.74 474.21,699.31 L474.73,698.66 C475.24,698.1 475.15,698.23 475.42,697.76 C475.92,696.91 475.8,697.12 476.3,696.28 L476.95,694.72 C477.04,694.45 477.02,694.52 477.11,694.25 C477.3,693.48 477.25,693.67 477.45,692.9 C477.51,692.49 477.5,692.6 477.56,692.18 L477.69,690.98 C477.71,676.47 477.7,680.1 477.73,665.59 C477.73,664.06 477.62,662.46 477.46,661.87 C477.39,661.63 477.41,661.69 477.34,661.45 C477.26,661.04 477.28,661.14 477.2,660.74 C476.99,660.33 477.02,660.4 477,660.27 C476.93,659.85 476.95,659.92 476.9,659.82 C476.8,659.65 476.78,659.61 476.73,659.49 L476.4,658.64 L475.64,657.34 C475.21,656.61 475.41,656.88 474.27,655.49 C473.62,654.7 472.1,653.33 471.44,652.95 C471.06,652.72 471.11,652.76 471.03,652.7 C470.26,652.13 469.67,651.85 468.01,651.26 C467.41,651.05 466.27,650.81 465.77,650.78 C464.93,650.74 465.08,650.76 464.7,650.7 L464.7,650.7 z"/>
  <path fill="#07767D" d="M452.77,660.87 L452.77,660.87 C453.48,660.88 453.27,660.85 454.24,661.06 L454.72,661.12 C455.13,661.19 457.05,661.77 457.51,661.98 C457.97,662.17 457.85,662.12 458.31,662.32 C458.89,662.58 460.07,663.28 460.64,663.71 C460.72,663.78 460.66,663.74 461.04,663.97 C461.54,664.28 463.16,665.83 463.64,666.46 L464.04,666.85 L464.98,668.18 C465.27,668.57 465.17,668.41 465.67,669.33 C466.03,669.99 465.97,669.87 466.08,670.17 L466.79,672.04 C466.87,672.3 466.84,672.23 466.98,672.55 C467.07,672.91 467.06,672.83 467.07,673.09 C467.21,673.57 467.17,673.45 467.31,673.93 C467.37,674.16 467.37,674.05 467.37,674.67 C467.44,675.32 467.42,675.16 467.49,675.8 L467.49,678.38 C467.41,678.85 467.42,678.7 467.41,679.47 C467.4,679.73 467.44,679.55 467.12,680.73 C467.08,681.02 467.09,680.94 467.05,681.23 L466.68,682.42 L466.06,684.04 L465.08,685.78 L464.23,686.99 L463.68,687.65 C463.23,688.24 462.25,689.18 461.39,689.85 C459.84,691.03 460.03,690.91 458.97,691.41 L457.78,692.03 C457.27,692.21 457.4,692.17 456.89,692.35 L456.32,692.56 C456.24,692.58 456.28,692.57 456.01,692.61 L455.47,692.82 C454.99,692.91 455.11,692.89 454.63,692.98 L454.31,693.06 C453.99,693.14 454.13,693.12 453.32,693.14 C453.13,693.15 453.22,693.13 452.75,693.22 C452.07,693.33 450.77,693.32 450.05,693.18 C449.91,693.15 450.03,693.16 449.16,693.13 C448.95,693.13 449.07,693.15 448.32,692.97 C448.05,692.94 448.12,692.95 447.84,692.91 L447.11,692.66 C446.88,692.61 446.93,692.62 446.7,692.57 L445.24,692.06 C444.55,691.7 444.72,691.79 444.03,691.43 L443.65,691.26 C443.07,691.01 441.21,689.62 440.46,688.88 C439.55,687.97 439.74,688.18 439.15,687.46 C438.44,686.61 438.56,686.77 438.31,686.34 L437.95,685.85 L437.16,684.51 C436.9,684.07 436.29,682.49 436.13,681.86 C436.09,681.68 436.11,681.74 435.99,681.47 L435.59,679.7 L435.47,677.67 C435.46,676.8 435.46,677.01 435.46,676.14 C435.53,675.54 435.51,675.69 435.58,675.09 C435.62,674.8 435.62,674.89 435.58,674.45 C435.58,674.38 435.53,674.56 435.9,673.15 C435.93,672.76 435.91,672.87 436.08,672.35 C436.53,670.95 436.84,670.19 437.34,669.28 L437.82,668.41 C438.38,667.64 438.25,667.83 438.75,667.09 L439.8,665.92 C440.35,665.34 440.11,665.56 441.48,664.33 C441.84,664.01 441.73,664.09 442.21,663.8 L442.73,663.43 C443.89,662.61 445.48,661.88 447.05,661.45 L447.83,661.22 C448.33,661.13 448.21,661.15 448.71,661.05 C449.7,660.86 449.35,660.88 451.21,660.89 L452.77,660.87 L452.77,660.87 zM451.8,665.87 L451.79,665.86 C451.08,665.85 450.53,665.88 450.12,665.96 C449.26,666.12 449.48,666.08 448.61,666.24 C447.48,666.5 445.99,667.22 444.94,668.03 C443.74,668.96 443.95,668.79 443.51,669.24 C443,669.77 442.19,670.93 441.74,671.79 L441.13,673.18 C441.11,673.29 441.11,673.32 441.09,673.39 C440.77,674.41 440.81,674.28 440.8,674.32 C440.78,674.68 440.79,674.62 440.75,674.74 C440.52,675.56 440.54,675.4 440.57,675.99 C440.58,676.25 440.58,676.18 440.6,676.44 L440.45,677.07 C440.63,677.65 440.61,677.53 440.6,677.92 C440.56,678.82 440.55,678.66 440.68,679.07 L440.82,679.97 C441.03,680.37 441,680.29 441.06,680.53 C441.19,681.11 441.09,680.85 441.77,682.37 L442.22,683.18 L442.52,683.55 C443.01,684.33 442.83,684.11 443.81,685.07 C444.72,685.97 444.59,685.85 444.71,685.93 C444.99,686.11 444.92,686.06 445.2,686.24 C445.64,686.61 446.17,686.92 446.75,687.16 C447.77,687.58 447.62,687.51 447.8,687.68 C448.1,687.67 448.03,687.66 448.29,687.75 C448.85,687.95 449.59,688.11 450.13,688.13 C450.79,688.16 450.68,688.16 450.91,688.19 C451.66,688.29 451.54,688.28 451.74,688.25 C452.24,688.14 452.18,688.15 452.35,688.14 C453.26,688.11 453.87,688.02 454.4,687.85 C454.64,687.77 454.58,687.79 454.82,687.71 C455.13,687.68 455.1,687.69 455.24,687.61 C455.58,687.4 455.51,687.44 455.71,687.36 C456.63,687 456.45,687.08 456.97,686.78 C457.28,686.6 457.2,686.65 457.51,686.47 C457.87,686.21 457.78,686.27 458.13,686.01 C458.22,685.96 457.94,686.24 460.11,684.04 L460.84,683.05 C460.95,682.77 460.92,682.81 461.01,682.71 C461.09,682.62 460.99,682.84 461.66,681.16 C462.23,679.73 462.16,679.93 462.18,679.77 C462.22,679.34 462.21,679.41 462.25,679.25 C462.39,678.61 462.37,678.72 462.38,678.5 C462.38,677.48 462.38,677.64 462.44,677.36 C462.56,676.94 462.55,677.01 462.49,676.88 C462.39,676.63 462.41,676.83 462.35,675.47 C462.32,674.94 462.27,674.68 461.9,673.44 C461.82,673.06 461.82,673.06 461.77,672.98 L461.6,672.7 C461.32,671.89 461.12,671.47 460.81,671.05 L460.55,670.68 C459.69,669.43 459.84,669.63 459.53,669.3 C458.97,668.71 457.88,667.85 457.19,667.45 C455.94,666.72 454.66,666.22 453.84,666.13 C453.57,666.11 453.62,666.11 453.49,666.09 C452.25,665.85 452.49,665.88 451.8,665.87 L451.8,665.87 z"/>
  <path fill="#07767D" d="M468.2,656.04 L468.16,656.03 C469.05,656.1 469.98,656.51 470.78,657.18 C471.68,657.95 472.28,659.58 472.09,660.81 C471.97,661.6 471.7,662.35 471.39,662.69 L471.08,663.14 C470.59,663.78 469.44,664.44 468.6,664.54 C467.77,664.64 467.35,664.63 466.61,664.49 C465.79,664.3 464.7,663.52 464.22,662.77 C463.7,661.97 463.57,661.68 463.54,661.18 L463.43,660.73 C463.37,660.42 463.38,660.36 463.52,659.67 C463.54,659.55 463.54,659.59 463.54,659.35 C463.58,658.65 464.4,657.41 465.19,656.87 C466.18,656.18 467.04,655.94 468.2,656.04 L468.2,656.04 z"/>
  <path fill="#07767D" d="M559.37,646.07 L559.38,646.07 C563.43,646.21 565.37,646.65 567.62,647.96 C571.44,650.17 573.6,653.81 573.96,658.67 C574.11,660.61 574.09,659.64 574.09,665.47 C574.06,683.91 574.07,679.3 574.04,697.73 C573.9,701.27 573.36,703.39 572.1,705.45 C569.88,709.08 566.43,711.19 562.05,711.6 C559.81,711.8 563.45,711.78 536.57,711.74 L522.34,711.72 C518.15,711.55 515.73,710.77 513.23,708.77 C510.47,706.56 508.86,703.42 508.53,699.59 C508.34,697.35 508.36,700.75 508.36,675.76 C508.36,657.48 508.33,659.57 508.65,657.21 C509.46,651.26 514.19,646.81 520.3,646.24 C522.64,646.02 518.8,646.05 547.21,646.06 L559.37,646.07 L559.37,646.07 zM545.1,664.45 L545.11,664.45 C542.21,664.36 536.38,664.44 531.94,664.62 L529.51,664.72 C525.54,664.88 523.75,665.48 522.51,667.08 C521.36,668.55 521.06,669.93 520.87,674.74 C520.65,679.98 520.66,681.46 520.89,684.61 C521.17,688.49 521.78,690.29 523.17,691.43 C524.55,692.55 526.05,692.89 530.52,693.09 C538.55,693.45 536.89,693.41 543.68,693.4 L552.31,693.07 C556.89,692.9 558.73,692.32 560.06,690.64 C561.08,689.36 561.65,686.13 561.72,681.27 C561.76,678.67 561.64,674.61 561.44,672.06 C561.07,667.3 559.57,665.5 555.49,664.94 C552.71,664.78 553.4,664.82 550.63,664.65 C547.47,664.54 548.26,664.56 545.1,664.45 L545.1,664.45 z"/>
  <path fill="#07767D" d="M543.61,676.58 L543.61,676.58 C545.88,677.91 545.31,677.58 547.58,678.9 L537.06,685.06 C537.08,678.03 537.07,679.79 537.09,672.77 C540.82,674.95 539.89,674.4 543.61,676.58 L543.61,676.58 z"/>
 </g>
</svg>

