<?xml version="1.0" encoding="UTF-8"?>
<!DOCTYPE svg PUBLIC "-//W3C//DTD SVG 1.1//EN" "http://www.w3.org/Graphics/SVG/1.1/DTD/svg11.dtd">
<!-- Creator: FutureCorp VMX -->
<svg xmlns="http://www.w3.org/2000/svg" xml:space="preserve" shape-rendering="geometricPrecision" text-rendering="geometricPrecision" image-rendering="optimizeQuality" fill-rule="evenodd" clip-rule="evenodd" viewBox="0 0 118 102" enable-background="new 0 0 118 102" 
 xmlns:xlink="http://www.w3.org/1999/xlink">
 <g id="Layer_1">
  <metadata id="FutureCorpID_Layer"/>

  <path fill="#056873" d="M18.18,54.87 C18.68,52.89 19.82,51.4 21.61,50.4 C23.4,49.41 25.28,49.21 27.26,49.82 C27.68,49.94 28.09,50.08 28.5,50.24 L40.52,39.06 C40.2,37.87 40.03,36.87 40.03,36.04 C40.03,33.85 40.83,32.05 42.44,30.63 C44.05,29.22 45.96,28.63 48.16,28.88 C50.1,29.1 51.7,29.93 52.95,31.37 C54.21,32.8 54.77,34.45 54.65,36.31 C54.62,36.77 54.56,37.22 54.46,37.68 L65.49,43.88 C66.41,43.28 67.25,42.88 68.01,42.69 C69.1,42.42 70.11,42.38 71.02,42.59 C71.5,42.69 71.98,42.83 72.45,43.01 L85.39,28.62 C84.99,27.68 84.75,26.82 84.67,26.04 C84.4,23.6 85.13,21.53 86.85,19.83 C88.57,18.13 90.6,17.46 92.97,17.83 L92.98,17.82 C95.17,18.2 96.86,19.28 98.07,21.07 C99.27,22.86 99.62,24.81 99.11,26.91 C98.62,28.89 97.53,30.4 95.84,31.45 C94.14,32.49 92.25,32.81 90.16,32.41 C89.73,32.33 89.3,32.22 88.88,32.09 L76.2,46.27 L76.91,48.84 C77.19,50.8 76.64,52.59 75.26,54.22 C73.89,55.85 72.19,56.72 70.17,56.83 C68.1,56.95 66.32,56.34 64.82,54.99 C63.32,53.65 62.56,51.99 62.55,50.01 L62.59,48.19 L51.88,42.01 L49.49,43.21 C47.98,43.73 46.45,43.72 44.89,43.19 C44.52,43.06 44.14,42.92 43.78,42.76 L31.97,53.81 L32.35,57.03 C32.29,59.17 31.47,60.9 29.89,62.22 C28.31,63.55 26.43,64.08 24.24,63.83 C22.03,63.58 20.33,62.58 19.14,60.82 C17.95,59.06 17.63,57.08 18.18,54.87 L18.18,54.87 zM88.98,25.19 C89.01,25.9 89.26,26.52 89.73,27.05 C90.21,27.58 90.81,27.9 91.53,28.02 C92.31,28.11 93.03,27.89 93.71,27.36 C94.39,26.82 94.78,26.16 94.88,25.36 C94.95,24.58 94.73,23.88 94.22,23.26 C93.71,22.64 93.05,22.28 92.23,22.17 L92.28,22.19 C92.02,22.16 91.76,22.15 91.49,22.18 C89.76,22.41 88.92,23.41 88.98,25.19 L88.98,25.19 zM0.03,7.18 C0.38,2.76 2.92,0.38 7.65,0.04 L83.9,0 L86.83,0.06 L86.85,0.06 L109.99,0.11 C114.54,0.42 116.93,3.07 117.16,8.09 L117.13,78.03 C116.75,82.63 114.15,84.97 109.34,85.06 L71.37,85.05 L71.38,93.33 L85.53,93.36 C88.27,93.68 89.44,95.23 89.06,98 C88.73,100.04 87.29,101.13 84.75,101.25 L31.21,101.18 C30.17,101.03 29.35,100.55 28.75,99.73 C28.14,98.92 27.88,97.96 27.98,96.85 C28.21,94.64 29.46,93.47 31.74,93.35 L45.27,93.33 L45.27,85.05 L6.56,84.99 C4.74,84.78 3.2,83.99 1.95,82.61 C0.7,81.23 0.05,79.61 0,77.74 L0.03,7.18 L0.03,7.18 zM27.9,57.18 C28.03,56.42 27.88,55.73 27.44,55.1 C27.01,54.48 26.4,54.09 25.63,53.92 C24.86,53.78 24.16,53.91 23.53,54.3 C22.89,54.7 22.5,55.26 22.33,55.98 C22.17,56.84 22.29,57.59 22.71,58.25 C23.12,58.91 23.73,59.33 24.54,59.51 C25.33,59.66 26.05,59.51 26.68,59.06 C27.32,58.62 27.73,57.99 27.9,57.18 L27.9,57.18 zM67.02,49.28 C66.79,51.17 67.57,52.24 69.35,52.48 C70.13,52.57 70.82,52.39 71.42,51.93 C72.02,51.47 72.37,50.86 72.49,50.08 C72.58,49.28 72.4,48.58 71.94,47.98 C71.49,47.39 70.88,47.04 70.1,46.94 L70.08,46.94 C68.29,46.76 67.27,47.54 67.02,49.28 L67.02,49.28 zM45.63,33.7 C45.01,34.16 44.61,34.8 44.45,35.64 C44.32,36.41 44.48,37.12 44.93,37.78 C45.39,38.43 46.01,38.85 46.8,39.03 C47.49,39.16 48.16,39 48.81,38.55 C49.47,38.09 49.87,37.51 50.01,36.81 C50.36,34.78 49.62,33.58 47.78,33.21 C46.98,33.08 46.26,33.25 45.63,33.7 L45.63,33.7 zM8.29,8.57 L8.22,72.14 L109.06,72.08 L109.09,8.52 L107.07,8.52 L107.1,8.53 L8.29,8.57 L8.29,8.57 z"/>
 </g>
</svg>

