<?xml version="1.0" encoding="UTF-8"?>
<!DOCTYPE svg PUBLIC "-//W3C//DTD SVG 1.1//EN" "http://www.w3.org/Graphics/SVG/1.1/DTD/svg11.dtd">
<!-- Creator: FutureCorp VMX -->
<svg xmlns="http://www.w3.org/2000/svg" xml:space="preserve" shape-rendering="geometricPrecision" text-rendering="geometricPrecision" image-rendering="optimizeQuality" fill-rule="evenodd" clip-rule="evenodd" viewBox="0 0 485 424" enable-background="new 0 0 485 424" 
 xmlns:xlink="http://www.w3.org/1999/xlink">
 <g id="Layer_1">
  <metadata id="FutureCorpID_Layer"/>

  <path fill="#07767D" d="M455.3,0.19 C464.33,1.02 472.1,5.38 477.83,12.82 C481.18,17.17 483.51,22.86 483.98,27.82 L484.09,28.94 C484.32,30.96 484.32,30.96 484.29,60.86 L484.08,313.46 C484.07,321.28 483.35,324.55 480.36,330.27 C477.97,334.85 473.19,339.12 467.65,341.63 C462.66,343.88 460.63,344.16 449.66,344.16 L304.55,344.11 L313.58,390.59 L349.47,390.67 C358.83,391.25 365.97,397.74 367.18,406.77 C367.61,409.99 366.46,414.38 364.44,417.2 C362.22,420.31 358.96,422.51 355.4,423.28 L355.16,423.35 L129.25,423.37 C122.85,422.52 117.93,417.51 116.78,410.66 C115.87,405.22 118.32,398.84 122.78,395.05 C126.91,391.55 130.2,390.61 138.4,390.59 L170.55,390.51 L179.79,344.09 L26.61,344.03 C17.15,343.5 8.79,338.47 4.31,330.62 C1.13,325.04 -0,320.42 0,312.98 L0.09,28.11 C0.59,21.56 4.02,14.29 8.9,9.45 C15.18,3.21 23.08,0 32.13,0 L455.3,0.19 L455.3,0.19 zM67.44,107.6 L67.46,107.61 L44.12,107.58 L39.85,107.67 L39.53,107.71 C37.91,107.93 36.14,109.3 35.75,110.61 L35.62,111.1 C35.17,112.74 35.17,112.74 35.18,118.95 L35.2,127.29 C35.21,133.08 36.15,135.02 39.41,136 L43.11,136.48 L43.14,145.46 L44.02,145.37 L45.58,144.59 L46.76,143.64 L51.93,139.82 C56.8,136.22 56.8,136.22 59.55,136.28 L60.94,136.31 L63.63,136.32 L70.77,136.21 L71.2,136.15 C74.2,135.73 75.85,133.72 75.84,130.51 L75.82,114.55 C75.94,111.71 75.76,110.81 74.85,109.59 C73.45,107.85 72.07,107.48 67.44,107.6 L67.44,107.6 zM61.64,185.52 L61.64,185.53 L56.11,188.82 L35.58,176.97 L35.42,178.69 L35.22,182.64 L35.3,188.82 L35.28,189.31 C35.07,193.82 35.47,195.86 36.83,197.23 L37.17,197.66 C37.73,198.5 37.73,198.5 57.8,198.57 L68.15,198.6 C74.92,198.62 76.54,197.16 76.43,191.13 L76.23,179.36 L76.25,176.84 L61.64,185.52 L61.64,185.52 zM48.52,45.24 L48.53,45.24 C47.42,43.33 47.12,42.94 46.27,42.23 C43.89,40.28 40.35,40.35 37.92,42.42 C35.76,44.25 34.89,46.78 35.3,50 C36.01,55.56 39.02,61.71 43.98,67.73 C47.6,72.12 54.57,77.38 60.27,80.02 C62.44,81.03 65.35,81.71 66.91,81.58 C69.8,81.26 72.59,79.45 74.1,76.92 C74.6,76.08 75.24,73.77 75.13,73.2 C74.68,71.37 74.26,70.94 70.77,68.68 C66.18,65.7 65.25,65.54 63.33,67.4 C60.85,69.8 60.75,69.86 59.43,69.82 C56.76,69.61 48.96,62.78 46.97,58.92 C45.85,56.75 46.11,55.59 48.18,53.68 C51.11,50.98 51.15,49.96 48.52,45.24 L48.52,45.24 zM55.86,169.43 L55.86,169.39 L49.52,169.4 C36.94,169.41 36.94,169.41 36.86,169.63 L36.78,169.74 L36.45,170.01 C35.81,170.52 35.81,170.52 35.61,172.04 L35.5,172.84 L56.14,184.57 L76.06,172.76 L75.86,171.42 C75.59,170.58 74.83,169.69 74.2,169.48 L55.86,169.43 L55.86,169.43 zM68.87,252.45 L68.88,252.46 C67.89,251.82 66.38,251.06 64.98,250.52 C59.26,248.3 54.68,248.08 48.04,249.71 C43.63,250.8 39.09,254.04 37.04,257.57 C35.83,259.67 35.35,262.31 35.89,263.93 C36.44,265.32 37.3,266.14 38.47,266.38 L64.76,266.5 C73.7,266.54 73.71,266.54 74.65,264.97 L74.74,264.83 C76.64,261.67 73.77,255.63 68.87,252.45 L68.87,252.45 zM56.25,225.28 L56.25,225.3 C52.77,225.24 50.53,225.99 48.12,228.02 C45.93,229.86 44.69,232.75 44.77,235.88 C44.83,238.71 46.25,241.59 48.45,243.35 C50.75,245.19 52.77,245.81 56.27,245.76 C60.38,245.7 64.08,243.25 65.78,239.46 C66.9,236.96 67.05,235.25 66.35,233.11 C64.81,228.45 60.91,225.42 56.25,225.28 L56.25,225.28 zM463.83,23.57 L463.84,23.56 C462.48,22.24 460.13,21.04 458.29,20.74 L101.96,20.64 L101.96,297.75 L457.28,297.76 C459.82,297.67 462.5,296.32 464.33,294.2 C466.6,291.58 467.28,289.31 467.28,284.31 L467.45,37.48 C467.46,29.62 466.62,26.43 463.83,23.57 L463.83,23.57 z"/>
  <path fill="#07767D" d="M66.38,115.16 L66.41,115.15 C67.35,115.41 68.14,116.14 68.42,117.01 C68.75,118.06 67.72,119.4 66.42,119.62 L50.48,119.57 L47.95,119.63 C45.12,119.68 43.93,118.9 44.15,117.14 C44.45,115.24 46,114.79 51.76,114.94 L63.74,114.93 C64.82,114.92 65.55,114.99 66.38,115.16 L66.38,115.16 z"/>
  <path fill="#07767D" d="M61.61,123.7 L61.6,123.69 C62.79,123.83 63.78,125.01 63.62,126.09 C63.31,127.71 62.68,128.12 60.54,128.13 L55.55,128.15 C48.92,128.17 47.49,128.17 46.35,128.12 C45.71,128.09 45.33,128.04 45.11,127.96 C44.95,127.9 44.88,127.84 44.76,127.66 C44.68,127.53 44.64,127.47 44.57,127.39 C44.01,126.76 43.93,125.8 44.38,125 C44.45,124.9 44.49,124.81 44.58,124.63 C44.96,123.88 44.96,123.88 51.1,123.81 L61.61,123.7 L61.61,123.7 z"/>
  <path fill="#07767D" d="M174.96,47.04 L174.91,47.04 C177.64,47.14 181.87,47.81 185.4,48.7 C201.28,52.71 215.01,64.91 220.95,80.28 C223.82,87.71 224.83,96.19 223.79,104.19 C222.53,114.01 219.01,122.47 213.01,130.11 C209.64,134.41 204.59,138.92 199.94,141.79 C193.52,145.74 186.78,148.11 179.73,148.89 C175.32,149.37 167.66,149.24 164.05,148.62 C157.88,147.56 155.51,146.91 151.66,145.22 C141.34,140.7 133.74,133.75 127.85,123.47 C125.3,119 123.34,113.61 122.39,108.44 C121.34,102.68 121.19,100.23 121.55,94.38 C121.86,89.31 122.72,85.29 124.58,80.32 C126.96,73.94 131.45,67.07 136.5,62.08 C140.07,58.54 146.29,54.13 150.58,52.09 C154.51,50.23 155.93,49.75 162.53,48.06 L162.93,47.95 C163.76,47.74 163.76,47.74 165.01,47.65 L165.84,47.58 L167.37,47.33 C169.1,47.01 171.76,46.91 174.96,47.04 L174.96,47.04 zM137.92,70.19 L137.93,70.2 C136.12,72.33 134.99,73.96 133.75,76.22 C129.44,84.09 127.88,90.15 127.92,98.73 C127.95,105.25 129.5,112.44 131.91,117.29 L132.8,119.09 C134.5,122.51 134.5,122.51 136.68,125.54 L137.75,127.01 L138.65,125.15 C140.61,121.45 145.62,116.98 151.09,114.05 C153.57,112.72 158.44,110.86 160.28,110.53 C161.12,110.43 161.19,110.42 161.65,110.32 L162.45,110.14 L163.22,109.98 L163.84,109.92 C164.86,109.81 164.86,109.81 165.52,109.65 L165.86,109.56 C167.24,109.22 176.07,109.19 178.48,109.52 C184.27,110.32 186.62,110.95 191.84,113.12 C196.2,114.94 203.27,120.36 204.95,123.18 L205.8,124.59 L206.21,125.21 C206.83,126.13 206.83,126.13 206.81,126.22 L206.81,126.26 C206.77,126.56 206.78,126.62 206.91,126.75 C207.15,127.04 207.51,126.87 207.99,126.26 C213.24,119.54 216.43,111.67 217.37,103.09 L217.57,101.34 C217.94,97.93 217.94,97.93 217.58,94.8 L217.41,93.24 C216.16,82.45 210.77,72.29 202.48,65.12 C197.97,61.22 194.8,59.31 188.87,56.93 C183.6,54.81 179.58,53.99 173.31,53.76 C165.45,53.48 155.61,56.26 148.67,60.73 C143.84,63.84 141.79,65.64 137.92,70.19 L137.92,70.19 z"/>
  <path fill="#07767D" d="M186.47,244.92 C188.95,245.08 189.16,245.18 189.9,246.59 L190.28,247.31 L189.13,248.94 L189,249.04 C187.98,249.83 187.98,249.83 184.53,249.83 L135.94,249.73 C133.89,249.47 132.54,248.09 133.02,246.76 C133.36,245.84 134.41,245.05 135.56,244.86 L180.31,244.85 C182.77,244.85 185.97,244.89 186.42,244.91 L186.47,244.92 L186.47,244.92 z"/>
  <path fill="#07767D" d="M175.88,184.54 L175.92,184.55 C179.6,184.66 181.54,185.7 183.62,188.67 C184.94,190.55 185.26,192.7 185.16,199 L185.18,210.03 C185.19,212.11 184.6,213.9 183.19,216.12 C182.16,217.65 179.64,219.1 177.7,219.29 C177.11,219.35 172.47,219.42 168.08,219.44 L162.33,219.35 L158.14,219.4 L144.11,231.86 L142.59,230.22 L142.52,230 C142.4,229.58 142.4,229.58 142.39,224.21 L142.38,219.54 L139.83,219.02 C135.88,217.3 134.45,214.65 134.59,209.33 L134.62,195.17 C134.64,190.17 135.82,187.47 138.81,185.63 C140.41,184.65 140.99,184.56 145.96,184.56 L175.88,184.54 L175.88,184.54 zM148.61,199.32 L148.48,199.31 C147.1,199.28 145.6,200.19 145.07,201.37 C144.4,203.16 144.74,204.97 145.99,206.18 L148.57,207.39 L149.18,207.08 L149.28,207.03 C151.48,205.97 152.05,204.82 151.75,202.04 C151.56,200.75 150.07,199.46 148.61,199.32 L148.61,199.32 zM160.54,199.39 L160.54,199.37 C159.7,199.24 158.59,199.38 158.01,199.69 C156.54,200.57 156.37,200.83 156.01,202.84 C155.58,204.67 156.81,206.57 158.81,207.13 C160.86,207.63 162.84,206.19 163.46,203.72 C163.8,202 162.3,199.77 160.54,199.39 L160.54,199.39 zM171.91,199.31 L171.91,199.32 C169.29,198.98 167.47,200.63 167.45,203.36 C167.49,205.6 169.54,207.47 171.67,207.21 C173.36,206.9 174.68,205.73 174.92,204.32 C175.29,201.74 174.03,199.65 171.91,199.31 L171.91,199.31 z"/>
  <path fill="#07767D" d="M182.69,257.18 L182.67,257.19 C183.46,257.55 183.81,257.91 184.13,258.72 L184.41,259.49 L183.41,261.06 C183.34,261.12 183.3,261.17 183.24,261.27 C182.99,261.66 182.99,261.66 170.42,261.66 L145.08,261.65 C144.3,261.65 143.87,261.64 143.66,261.62 C143.5,261.6 143.47,261.59 143.48,261.54 C143.5,261.51 143.49,261.49 143.47,261.47 C141.87,260.19 141.78,260.01 142.03,258.61 C142.27,257.64 143.24,256.98 144.43,256.99 L181.42,257.01 C182.07,257.01 182.31,257.05 182.69,257.18 L182.69,257.18 z"/>
  <path fill="#07767D" d="M175.79,67.31 L175.78,67.29 C181.24,68.22 186.04,71.5 189,76.33 C194.18,84.79 192.55,95.49 185.16,101.56 C181.21,104.81 177.79,106.08 172.99,106.09 C169,106.09 167.37,105.77 164.43,104.4 C158.65,101.7 155.06,96.94 153.71,90.21 C153.15,87.38 153.23,85.24 154.04,81.89 C155.37,76.43 158.63,72.22 163.81,69.3 C166.04,68.04 167.52,67.58 170.84,67.09 C172.27,66.88 173.18,66.92 175.79,67.31 L175.79,67.31 z"/>
  <path fill="#07767D" d="M270.3,244.9 L270.31,244.89 L273.69,244.89 L274.34,246.58 C274.82,247.97 273.51,249.5 271.63,249.75 L221.5,249.66 C219.35,249.65 218.99,249.53 218.08,248.52 L217.47,247.1 L218.15,245.71 C218.22,245.63 218.27,245.57 218.34,245.44 C218.65,244.9 218.65,244.9 230.82,244.9 L270.3,244.9 L270.3,244.9 z"/>
  <path fill="#07767D" d="M261.72,182.21 C261.86,182.52 261.86,182.52 261.93,183.35 L261.98,183.82 L262.01,184.08 C262.06,184.58 262.06,184.58 264.18,184.56 L265.22,184.55 C267.51,184.53 268.76,185.34 269.71,187.46 L269.83,187.74 C270.05,188.26 270.05,188.26 270.04,192.45 L269.95,226.22 C269.58,227.81 267.9,229.24 266.17,229.44 L231.94,229.46 C227.78,229.46 226.86,229.44 226.04,229.29 C225.22,229.14 224.92,228.95 224.15,228.06 L223.7,227.54 C222.87,226.59 222.87,226.59 222.89,219.36 L222.94,189.38 C223.21,187.32 224.19,185.75 225.71,184.96 L225.94,184.85 C226.58,184.52 226.58,184.52 229.62,184.57 L230.7,184.59 C231.41,184.57 231.49,184.53 231.55,184.02 L231.52,183.29 C231.53,182.1 231.81,181.56 232.75,180.98 C233.23,180.68 233.54,180.52 234.07,180.3 L234.54,181 C235.47,182.39 235.47,182.39 235.49,183.19 L235.51,183.92 C235.49,184.6 235.49,184.6 240.8,184.59 L256.03,184.55 C256.99,184.52 257.17,184.49 257.15,184.31 C257.15,184.24 257.15,184.2 257.17,184.16 L257.18,184.15 C257.2,184.12 257.22,183.97 257.43,182.58 C257.65,181.34 257.99,181.1 259.85,180.87 C260.92,180.76 261.13,180.9 261.65,182.06 L261.72,182.21 L261.72,182.21 zM264.72,193.97 L264.67,194.01 L227.14,193.92 L227.14,224.76 L265.9,224.75 L265.9,193.97 L264.72,193.97 L264.72,193.97 zM234.01,183.37 L234.02,183.37 C233.91,183.14 233.68,182.96 233.49,182.96 C233.37,182.96 233.27,183.01 233.2,183.12 L233.11,183.24 C232.94,183.46 232.94,183.46 232.51,186.82 L232.29,188.51 L233.65,188.55 C234.85,188.43 234.86,188.4 234.73,185.32 L234.01,183.37 L234.01,183.37 zM259.97,182.64 L259.88,182.64 C259,182.71 258.74,183.2 258.69,184.85 L258.68,186.01 C258.65,188.47 258.65,188.47 259.42,188.5 L259.81,188.52 L259.93,188.51 C260.17,188.48 260.17,188.48 260.3,187.38 L260.37,186.81 C260.47,183.21 260.42,182.69 259.97,182.64 L259.97,182.64 z"/>
  <path fill="#07767D" d="M267.13,257.02 C268.17,257.22 269.07,258.75 268.8,259.85 C268.36,261.21 267.51,261.65 265.35,261.65 L226.32,261.53 C225.32,261.23 224.53,259.85 224.82,258.93 C225.49,257.04 225.72,256.95 229.99,256.96 L267.13,257.02 L267.13,257.02 z"/>
  <path fill="#07767D" d="M237.68,198.78 L237.78,198.74 L238.35,198.74 L238.33,205.65 L232.53,205.66 L232.51,198.75 L235.76,198.7 C236.11,198.7 236.46,198.69 236.81,198.69 C237.2,198.69 237.31,198.7 237.51,198.75 L237.68,198.78 L237.68,198.78 z"/>
  <path fill="#07767D" d="M237.82,210.43 L237.81,210.5 C237.92,210.51 237.99,210.51 238.18,210.51 C238.17,213.39 238.18,212.67 238.17,215.55 L238.17,217.4 L232.52,217.4 L232.5,210.47 L237.82,210.43 L237.82,210.43 z"/>
  <path fill="#07767D" d="M373.64,68.03 L373.71,68 C377.17,68.41 379.53,71.35 379.24,74.88 C379,77.88 376.79,80 373.5,80.39 L242.97,80.37 C239.51,79.9 237.27,77.67 237.05,74.47 C236.9,71.11 239.37,68.13 242.47,67.97 L373.64,68.03 L373.64,68.03 z"/>
  <path fill="#07767D" d="M338.37,98.08 L338.36,98.08 C341.14,98.45 343.43,100.96 343.59,103.8 C343.65,106.59 340.97,109.23 337.84,109.47 L242.88,109.42 C239.58,109.06 237.08,106.58 237.19,103.78 C237.46,100.79 239.83,98.28 242.67,98 L333.46,97.95 C337.24,97.95 337.24,97.95 337.98,98.04 L338.37,98.08 L338.37,98.08 z"/>
  <path fill="#07767D" d="M245.33,210.47 L245.31,210.47 L247.11,210.41 C248.56,210.36 248.2,210.37 249.66,210.31 L249.54,217.13 C249.34,217.53 249.17,217.55 247.35,217.39 L246.44,217.38 C245.17,217.36 244.89,217.35 244.66,217.3 C244.53,217.28 244.44,217.24 244.39,217.19 C244.34,217.14 244.31,217.1 244.25,216.97 C244.21,216.88 244.19,216.83 244.16,216.77 C243.96,216.4 243.95,216.17 243.98,212.72 L244.01,210.51 L244.49,210.5 C244.97,210.49 244.85,210.49 245.33,210.47 L245.33,210.47 z"/>
  <path fill="#07767D" d="M249.03,198.75 C249.07,198.76 249.11,198.77 249.2,198.78 C249.36,198.81 249.42,198.83 249.47,198.88 C249.54,198.94 249.58,199.06 249.61,199.27 C249.66,199.64 249.67,200.11 249.66,202.28 L249.65,205.69 L244.51,205.56 L244.49,205.56 C244.3,205.49 244.23,205.45 244.17,205.37 C244.09,205.28 244.04,205.12 244.01,204.85 C243.96,204.38 243.95,203.81 243.98,201.13 L244.01,198.67 L249.03,198.75 L249.03,198.75 z"/>
  <path fill="#07767D" d="M260.68,198.84 L260.7,198.82 C260.88,198.93 260.97,199 261.03,199.12 C261.12,199.26 261.17,199.46 261.21,199.78 C261.27,200.35 261.28,201.09 261.27,204 L261.22,204.31 C261.15,204.79 261.12,204.95 261.06,205.1 C260.99,205.3 260.88,205.42 260.72,205.51 C260.42,205.65 260.06,205.67 258.41,205.66 L257.72,205.66 C256.54,205.65 256.29,205.64 256.08,205.59 C255.96,205.57 255.89,205.53 255.85,205.47 C255.81,205.42 255.79,205.37 255.75,205.23 L255.75,205.2 C255.74,205.2 255.74,205.07 255.73,204.84 L255.71,204.05 C255.69,203.58 255.68,203.11 255.67,202.64 L255.66,201.84 C255.64,200.54 255.64,200.54 255.69,200.17 L255.72,199.98 C255.77,199.55 255.81,199.36 255.89,199.22 C255.96,199.08 256.07,199 256.33,198.88 L256.45,198.82 C256.68,198.7 256.68,198.7 258.6,198.71 L259.41,198.71 L259.59,198.71 C260.13,198.7 260.25,198.7 260.36,198.71 C260.48,198.73 260.52,198.74 260.66,198.83 L260.68,198.84 L260.68,198.84 z"/>
  <path fill="#07767D" d="M354.65,244.83 L354.67,244.85 C357.01,244.7 357.84,245.1 358.44,246.66 C358.57,246.97 358.65,247.14 358.82,247.44 L358.73,247.57 C358.54,247.86 358.54,247.86 358.29,248.33 L358.14,248.63 C357.61,249.54 356.21,249.89 353.45,249.8 L346.82,249.8 C328.88,249.81 333.36,249.81 315.42,249.8 L306.37,249.8 C303.29,249.79 301.9,249.16 301.58,247.6 L301.54,247.39 C301.47,246.97 301.47,246.97 301.93,246.24 L302.17,245.85 C302.58,245.12 303.12,244.97 305.9,244.84 L351.69,244.92 L352.01,244.93 C352.71,244.95 352.71,244.95 353.9,244.88 L354.65,244.83 L354.65,244.83 z"/>
  <path fill="#07767D" d="M350.58,257.02 L350.59,257 C351.96,257.2 352.84,258.61 352.6,260.22 C352.4,261.26 351.55,261.67 349.62,261.66 L309.62,261.55 C308.25,261.19 307.54,260.06 307.84,258.72 C308.13,257.6 309.39,257 311.62,256.92 L320.4,256.93 C334.04,256.95 330.63,256.95 344.28,256.95 C349.43,256.95 349.43,256.95 350.31,257.01 L350.58,257.02 L350.58,257.02 z"/>
  <path fill="#07767D" d="M342.44,183.85 C349.98,183.77 351.08,184.14 352.29,187.17 L352.41,187.45 C352.64,187.96 352.64,187.96 352.63,194.05 L352.55,230.86 C352.07,233.28 349.95,234.88 346.98,235.09 L313.87,235.04 C311.03,234.75 309.08,233.13 308.59,230.65 L308.54,230.39 C308.45,229.9 308.45,229.9 308.46,223.49 L308.54,188.42 C309.28,185.23 311.16,183.83 314.57,183.93 L314.84,183.94 C315.46,183.96 315.46,183.96 316.47,183.94 L317.07,183.92 L321.31,183.97 C322.25,183.97 322.25,183.97 323.39,183.8 L324.13,183.69 L324.36,183.2 C324.94,181.98 324.94,181.98 325.4,181.49 L325.66,181.22 C327.47,179.32 330.09,178.51 332.79,179.03 C334.99,179.45 336.93,181.12 337.92,183.45 L338.04,183.75 L342.44,183.85 L342.44,183.85 zM341.06,194.5 L341.12,194.46 L319.09,194.42 L319.09,193.03 C319.09,189.45 319.09,189.45 319.15,189.35 L319.18,189.29 C319.3,189.01 319.31,188.96 319.27,188.84 L319.25,188.81 C319.21,188.65 319.21,188.65 316.06,188.65 L315.56,188.65 C314.29,188.64 313.84,188.86 313.63,189.57 L313.45,229.82 L347.96,229.83 L347.96,188.46 L344.54,188.62 L344.1,188.66 L343.99,188.66 L343.45,188.65 C342.39,188.59 342.39,188.59 342.43,192.51 L342.46,194.5 L341.06,194.5 L341.06,194.5 zM331.96,182.99 L332,183 C331.75,182.97 331.74,182.97 331.4,182.98 C329.81,182.98 329.14,183.41 328.68,184.7 C328.34,185.85 328.88,187.35 329.82,187.87 C330.73,188.34 332.53,188.16 333.12,187.55 C334.06,186.42 334.1,185.83 333.34,184.18 C333.13,183.72 332.37,183.07 331.96,182.99 L331.96,182.99 z"/>
  <path fill="#07767D" d="M338.6,198.14 L340.59,200.29 C340.96,201.15 340.77,201.47 338.53,203.83 L329.64,213.18 L321.58,204.7 C321.08,203.77 321.27,202.44 322.01,201.75 C322.75,201.12 323.8,201.31 324.86,202.28 L329.63,206.6 L338.6,198.14 L338.6,198.14 z"/>
  <path fill="#07767D" d="M338.15,211.96 L339.54,213.35 C340.4,214.74 340.29,215.37 338.98,216.75 L333.11,222.92 C332.26,223.81 331.73,224.35 331.37,224.71 C331,225.07 330.78,225.27 330.63,225.36 C330.52,225.44 330.46,225.45 330.34,225.44 C330.26,225.43 330.21,225.43 330.15,225.44 C329.28,225.56 329.23,225.55 327.76,224.72 C326.68,224.1 325.09,222.66 323.65,220.97 C322.21,219.3 321.33,217.87 321.38,217.27 C321.48,216.59 322,215.73 322.51,215.41 L322.66,215.37 C323.61,215.06 323.61,215.06 326.28,217.59 L329.22,220.37 L338.15,211.96 L338.15,211.96 z"/>
  <path fill="#07767D" d="M438.27,244.93 C440.82,244.93 441.22,245.12 441.81,246.63 C442.21,247.64 441.34,249.07 440.04,249.54 L439.8,249.62 C439.35,249.78 439.35,249.78 436.29,249.77 L389.23,249.68 C387.92,249.5 386.68,248.46 386.53,247.42 C386.44,246.57 387.15,245.64 388.31,245.12 L388.52,245.02 C388.94,244.83 388.94,244.83 391.21,244.88 L392.39,244.91 L397.41,244.91 C402.82,244.9 408.23,244.9 413.64,244.9 L438.27,244.93 L438.27,244.93 z"/>
  <path fill="#07767D" d="M414.73,196.15 L414.75,196.24 L414.78,197.46 C414.88,201.13 414.83,201.98 414.46,202.95 C414.08,203.93 413.59,204.5 411.23,206.66 L410.19,207.62 C409.78,208 409.68,208.09 407.99,209.52 C406.33,210.92 406.08,211.34 406.43,212.08 C406.69,212.62 407.37,212.98 407.88,212.83 L407.96,212.82 C408.11,212.81 408.11,212.81 411.45,209.96 L414.1,207.7 C416.18,205.92 416.18,205.92 424.76,206.02 L439.09,206.2 L438.12,211.63 C436.36,217.89 432.71,222.52 426.78,226.04 C424.08,227.64 421.7,228.47 418.26,229 C414.59,229.57 412.44,229.5 408.46,228.71 C402.2,227.35 396.82,223.6 393.12,218.03 C389.9,213.17 388.59,206.79 389.63,200.98 C391.27,191.87 395.98,185.86 404.25,182.29 C406.73,181.22 409.84,180.57 412.33,180.61 L412.68,180.62 C413.51,180.63 413.51,180.63 414.28,180.56 L414.72,180.52 L414.73,196.15 L414.73,196.15 z"/>
  <path fill="#07767D" d="M435.45,257 L435.28,256.95 L435.63,256.95 L436.93,258.7 C437.23,259.76 436.96,260.36 435.75,261.34 L435.54,261.45 C435.15,261.66 435.15,261.66 430.55,261.65 L395.25,261.6 C394.2,261.32 393.62,260.22 393.79,258.83 C393.99,257.53 395.33,256.86 397.61,256.92 L435.45,257 L435.45,257 z"/>
  <path fill="#07767D" d="M430.99,43.45 L431.04,43.47 C436.27,44.37 440.54,46.38 444.52,49.8 C447.9,52.7 450.57,56.91 451.79,61.27 C453.66,67.99 452.79,74.69 449.22,81 C445.91,86.86 439.78,91.45 433.26,92.95 C422.97,95.33 413.07,91.7 407.13,83.38 C403.21,77.89 401.45,70.74 402.58,64.96 C403.3,61.29 403.78,59.78 405,57.32 C408.28,50.7 414.28,45.71 420.88,44.11 C424.69,43.18 427.9,42.97 430.99,43.45 L430.99,43.45 zM432,64.22 L431.99,64.22 L425.01,71.83 L424.19,71.23 C422.59,70.05 422.59,70.05 421.73,69.2 L421.31,68.79 C417.28,64.79 416.88,64.52 415.33,64.76 C413.98,65.02 412.42,66.44 412.02,67.77 C411.35,70.39 411.86,71.11 418.59,77.02 L420.37,78.58 C423.49,81.31 423.49,81.31 424.28,81.7 L424.69,81.9 L426.26,80.72 C426.86,80.27 426.86,80.26 432.9,74.14 L439.48,67.46 C443.44,63.44 443.46,63.42 443.67,62.15 C443.87,60.38 443.2,59.08 441.4,57.72 C439.79,56.59 438.55,56.92 436.68,59.01 L432,64.22 L432,64.22 z"/>
  <path fill="#07767D" d="M427.58,183.01 L427.6,183.01 C433.21,186.23 435.43,188.71 437.81,194.42 C438.56,196.36 439.02,198.41 439.17,200.56 L439.32,202.71 L417.67,202.68 L417.54,180.69 L418.14,180.61 C419.37,180.45 419.37,180.45 421.86,181.01 L423.25,181.31 C424.35,181.58 426.57,182.45 427.58,183.01 L427.58,183.01 z"/>
 </g>
</svg>

