<?xml version="1.0" encoding="UTF-8"?>
<!DOCTYPE svg PUBLIC "-//W3C//DTD SVG 1.1//EN" "http://www.w3.org/Graphics/SVG/1.1/DTD/svg11.dtd">
<!-- Creator: FutureCorp VMX -->
<svg xmlns="http://www.w3.org/2000/svg" xml:space="preserve" shape-rendering="geometricPrecision" text-rendering="geometricPrecision" image-rendering="optimizeQuality" fill-rule="evenodd" clip-rule="evenodd" viewBox="0 0 485 424" enable-background="new 0 0 485 424" 
 xmlns:xlink="http://www.w3.org/1999/xlink">
 <g id="Layer_1">
  <metadata id="FutureCorpID_Layer"/>

  <path fill="#075A65" d="M355.32,0.15 C412.45,0.16 398.17,0.16 455.3,0.2 C464.33,1.03 472.1,5.38 477.83,12.83 C481.18,17.18 483.51,22.87 483.97,27.83 C484.37,32.11 484.32,25.12 484.3,76.79 C484.26,208.92 484.27,175.89 484.2,308.02 C484.2,311.13 484.21,310.35 484.17,313.47 C484.09,321.28 483.35,324.55 480.36,330.27 C477.97,334.86 473.19,339.13 467.65,341.63 C462.67,343.88 460.65,344.17 449.66,344.16 L304.55,344.12 L313.58,390.6 L349.47,390.68 C358.83,391.26 365.97,397.75 367.18,406.78 C367.61,410 366.46,414.39 364.45,417.21 C362.23,420.31 358.97,422.51 355.4,423.29 C354.32,423.5 358.07,423.48 329.15,423.47 L129.25,423.38 C122.86,422.53 117.94,417.52 116.79,410.67 C115.87,405.22 118.33,398.84 122.79,395.06 C126.91,391.56 130.2,390.62 138.4,390.6 L170.55,390.52 L179.79,344.1 L26.61,344.04 C17.15,343.51 8.79,338.48 4.31,330.63 C1.13,325.05 -0,320.43 0,312.99 C0.04,150.21 0.03,190.91 0.09,28.12 C0.59,21.57 4.02,14.3 8.9,9.45 C15.19,3.21 23.09,0 32.13,0 C216.81,0.13 170.64,0.11 355.32,0.15 L355.32,0.15 L355.32,0.15 zM67.44,107.61 L67.46,107.62 L46.1,107.59 C39.74,107.59 40.68,107.57 39.53,107.72 C37.92,107.94 36.14,109.3 35.75,110.62 C35.13,112.98 35.18,112.07 35.19,120.79 L35.2,127.3 C35.21,133.08 36.15,135.03 39.41,136.01 L43.11,136.49 L43.14,145.47 C43.51,145.46 43.69,145.44 44.02,145.38 L45.58,144.6 L46.76,143.65 C48.31,142.54 47.92,142.82 49.46,141.68 C57.8,135.54 56.16,136.3 60.94,136.32 C71.13,136.35 69.67,136.37 71.2,136.15 C74.2,135.73 75.85,133.73 75.84,130.52 L75.82,114.56 C75.94,111.71 75.76,110.81 74.85,109.6 C73.45,107.86 72.07,107.49 67.44,107.61 L67.44,107.61 zM61.64,185.53 L61.64,185.54 L56.11,188.83 C44.37,182.06 47.31,183.75 35.58,176.98 C35.14,181.91 35.18,181.01 35.24,183.25 C35.36,188.56 35.35,187.7 35.28,189.32 C35.07,193.82 35.47,195.87 36.83,197.24 C38.33,198.67 33.85,198.47 68.15,198.61 C74.92,198.63 76.53,197.17 76.38,191.14 C76.18,183.1 76.2,185.14 76.25,176.85 C67.9,181.81 69.99,180.57 61.64,185.53 L61.64,185.53 zM48.52,45.25 L48.53,45.25 C47.41,43.32 47.12,42.94 46.27,42.24 C43.89,40.28 40.35,40.36 37.92,42.42 C35.76,44.26 34.89,46.78 35.3,50.01 C36.01,55.58 39.03,61.73 43.98,67.74 C47.61,72.14 54.59,77.4 60.27,80.04 C62.44,81.04 65.35,81.72 66.91,81.59 C69.8,81.27 72.59,79.46 74.1,76.92 C74.61,76.07 75.24,73.77 75.13,73.21 C74.68,71.38 74.27,70.95 70.77,68.68 C66.18,65.71 65.25,65.55 63.33,67.41 C60.86,69.8 60.75,69.87 59.43,69.83 C56.77,69.62 48.97,62.79 46.98,58.92 C45.85,56.75 46.12,55.59 48.18,53.69 C51.11,50.99 51.15,49.96 48.52,45.25 L48.52,45.25 zM55.86,169.44 L55.86,169.4 C34.53,169.42 37.26,169.37 36.78,169.75 C35.68,170.67 35.87,170.22 35.5,172.85 L56.14,184.58 L76.06,172.77 C76.05,172.23 76,171.92 75.86,171.43 C75.59,170.59 74.83,169.7 74.2,169.49 L55.86,169.44 L55.86,169.44 zM68.87,252.46 L68.88,252.47 C67.9,251.83 66.39,251.08 64.98,250.54 C59.26,248.31 54.69,248.09 48.05,249.73 C43.63,250.81 39.09,254.05 37.05,257.58 C35.83,259.68 35.35,262.32 35.89,263.94 C36.43,265.31 37.32,266.16 38.47,266.39 L63.93,266.5 C73.99,266.55 73.67,266.6 74.74,264.83 C76.64,261.68 73.78,255.64 68.87,252.46 L68.87,252.46 zM56.25,225.29 L56.25,225.31 C52.77,225.25 50.53,226 48.12,228.02 C45.93,229.86 44.7,232.75 44.78,235.89 C44.84,238.72 46.26,241.6 48.45,243.35 C50.76,245.2 52.78,245.82 56.27,245.77 C60.39,245.71 64.09,243.25 65.78,239.47 C66.9,236.97 67.05,235.26 66.34,233.12 C64.81,228.45 60.91,225.43 56.25,225.29 L56.25,225.29 zM463.83,23.58 L463.84,23.57 C462.49,22.25 460.14,21.05 458.29,20.75 C254.67,20.69 305.57,20.71 101.96,20.65 L101.96,297.76 C305,297.77 254.24,297.76 457.28,297.77 C459.83,297.68 462.51,296.32 464.34,294.21 C466.6,291.59 467.28,289.33 467.28,284.32 L467.46,37.49 C467.46,29.64 466.63,26.44 463.83,23.58 L463.83,23.58 z"/>
  <path fill="#075A65" d="M66.38,115.17 L66.41,115.16 C67.36,115.42 68.15,116.15 68.43,117.01 C68.76,118.06 67.73,119.41 66.42,119.63 L50.48,119.58 L47.95,119.63 C45.13,119.69 43.93,118.91 44.15,117.15 C44.45,115.25 46,114.8 51.76,114.95 L63.74,114.93 C64.84,114.93 65.57,115 66.38,115.17 L66.38,115.17 z"/>
  <path fill="#075A65" d="M61.61,123.71 L61.6,123.7 C62.79,123.84 63.78,125.01 63.62,126.1 C63.31,127.72 62.68,128.13 60.54,128.14 C43.12,128.19 45.4,128.29 44.57,127.4 C44.01,126.76 43.94,125.8 44.38,125.01 C45.18,123.74 43.8,123.91 54.1,123.79 L61.61,123.71 L61.61,123.71 z"/>
  <path fill="#075A65" d="M174.96,47.05 L174.91,47.05 C177.65,47.15 181.88,47.82 185.4,48.71 C201.28,52.72 215.01,64.91 220.95,80.29 C223.82,87.72 224.83,96.2 223.8,104.2 C222.53,114.02 219.01,122.48 213.02,130.12 C209.65,134.41 204.6,138.92 199.94,141.79 C193.52,145.75 186.78,148.12 179.73,148.9 C175.33,149.38 167.67,149.25 164.05,148.63 C157.91,147.57 155.53,146.92 151.66,145.22 C141.34,140.7 133.74,133.75 127.86,123.47 C125.3,119 123.34,113.61 122.39,108.45 C121.34,102.7 121.19,100.25 121.55,94.39 C121.86,89.3 122.73,85.28 124.58,80.32 C126.97,73.93 131.46,67.07 136.5,62.08 C140.06,58.56 146.28,54.15 150.59,52.11 C154.53,50.23 155.96,49.75 162.53,48.06 C163.96,47.7 163.5,47.77 165.73,47.6 C166.08,47.57 165.85,47.61 167.37,47.34 C169.11,47.02 171.78,46.92 174.96,47.05 L174.96,47.05 zM137.92,70.2 L137.93,70.21 C136.11,72.35 134.98,73.98 133.75,76.22 C129.45,84.09 127.88,90.15 127.93,98.74 C127.96,105.26 129.51,112.45 131.92,117.29 C134.87,123.23 134.03,121.84 137.75,127.02 C138.05,126.34 138.31,125.81 138.65,125.16 C140.61,121.46 145.62,116.99 151.09,114.06 C153.59,112.72 158.46,110.86 160.28,110.54 C161.27,110.42 161.22,110.42 161.81,110.29 C163.17,109.98 162.95,110.02 163.31,109.98 C165.08,109.79 164.71,109.85 165.86,109.57 C167.24,109.23 176.07,109.2 178.48,109.53 C184.26,110.32 186.61,110.95 191.84,113.13 C196.21,114.95 203.28,120.37 204.96,123.18 L205.8,124.6 C206.96,126.33 206.82,126.09 206.81,126.27 C206.77,126.58 206.79,126.63 206.91,126.76 C207.16,127.04 207.51,126.88 207.99,126.27 C213.25,119.54 216.43,111.67 217.37,103.1 C218.01,97.21 218.01,98.62 217.39,93.25 C216.16,82.45 210.77,72.29 202.48,65.12 C197.99,61.24 194.83,59.33 188.87,56.94 C183.61,54.82 179.59,54 173.31,53.78 C165.45,53.49 155.61,56.27 148.67,60.74 C143.85,63.84 141.8,65.64 137.92,70.2 L137.92,70.2 z"/>
  <path fill="#075A65" d="M186.47,244.93 C188.96,245.09 189.16,245.19 189.9,246.6 C190.05,246.88 190.13,247.04 190.28,247.32 L189.13,248.95 C187.94,249.87 188.13,249.84 184.16,249.83 L135.94,249.74 C133.89,249.48 132.54,248.1 133.03,246.77 C133.37,245.84 134.42,245.06 135.56,244.87 L180.31,244.86 C182.64,244.86 185.95,244.89 186.42,244.92 L186.47,244.93 L186.47,244.93 z"/>
  <path fill="#075A65" d="M175.88,184.55 L175.92,184.56 C179.61,184.67 181.55,185.71 183.63,188.67 C184.94,190.55 185.26,192.7 185.16,199.01 L185.18,210.04 C185.19,212.12 184.6,213.91 183.19,216.13 C182.17,217.65 179.65,219.11 177.7,219.3 C177.07,219.36 172.18,219.43 168.08,219.45 L162.33,219.36 L158.14,219.41 C150.12,226.53 152.13,224.75 144.11,231.87 L142.59,230.23 C142.38,229.37 142.41,230.64 142.39,221.36 L142.38,219.55 L139.83,219.03 C135.89,217.31 134.45,214.67 134.59,209.34 L134.63,195.18 C134.64,190.17 135.82,187.47 138.8,185.62 C140.42,184.65 141.02,184.57 145.96,184.56 C163.06,184.56 158.78,184.56 175.88,184.55 L175.88,184.55 zM148.61,199.33 L148.61,199.33 L148.48,199.32 C147.09,199.29 145.6,200.2 145.07,201.38 C144.4,203.16 144.74,204.97 145.99,206.19 L148.57,207.4 C148.86,207.24 148.99,207.18 149.28,207.04 C151.48,205.98 152.05,204.83 151.75,202.05 C151.56,200.76 150.08,199.47 148.61,199.33 L148.61,199.33 zM160.54,199.4 L160.54,199.38 C159.71,199.25 158.59,199.39 158.01,199.7 C156.55,200.57 156.38,200.82 156.01,202.85 C155.58,204.67 156.81,206.57 158.81,207.14 C160.87,207.64 162.84,206.19 163.46,203.73 C163.8,202.01 162.31,199.78 160.54,199.4 L160.54,199.4 zM171.91,199.32 L171.91,199.33 C169.29,198.99 167.47,200.64 167.45,203.37 C167.49,205.61 169.54,207.48 171.67,207.22 C173.36,206.91 174.68,205.74 174.92,204.33 C175.29,201.75 174.04,199.66 171.91,199.32 L171.91,199.32 z"/>
  <path fill="#075A65" d="M182.69,257.19 L182.67,257.2 C183.47,257.56 183.81,257.92 184.13,258.73 C184.24,259.03 184.3,259.2 184.41,259.5 L183.41,261.07 C182.63,261.75 185.43,261.66 163.78,261.67 C140.85,261.68 143.76,261.71 143.47,261.48 C141.88,260.2 141.78,260.02 142.03,258.62 C142.27,257.65 143.24,256.99 144.43,256.99 L181.42,257.02 C182.06,257.02 182.31,257.05 182.69,257.19 L182.69,257.19 z"/>
  <path fill="#075A65" d="M175.79,67.32 L175.78,67.3 C181.25,68.23 186.04,71.51 188.99,76.34 C194.18,84.8 192.55,95.5 185.17,101.57 C181.21,104.82 177.78,106.09 172.99,106.1 C169.02,106.1 167.38,105.78 164.44,104.4 C158.65,101.7 155.06,96.95 153.72,90.22 C153.15,87.38 153.24,85.23 154.05,81.9 C155.37,76.44 158.63,72.23 163.82,69.31 C166.06,68.04 167.55,67.58 170.84,67.1 C172.27,66.89 173.18,66.93 175.79,67.32 L175.79,67.32 z"/>
  <path fill="#075A65" d="M270.3,244.91 L270.31,244.9 C272.24,244.9 271.76,244.9 273.69,244.9 L274.34,246.59 C274.82,247.98 273.51,249.51 271.63,249.76 L221.5,249.66 C219.35,249.66 218.99,249.54 218.08,248.53 C217.77,247.81 217.85,247.99 217.54,247.27 C217.5,247.18 217.51,247.2 217.47,247.11 C217.86,246.32 217.76,246.51 218.15,245.72 C219.01,244.8 216.28,244.92 237.26,244.92 L270.3,244.91 L270.3,244.91 z"/>
  <path fill="#075A65" d="M261.65,182.07 L261.65,182.07 C261.89,182.61 261.84,182.36 261.98,183.83 C262.12,184.68 261.66,184.58 265.22,184.55 C267.52,184.53 268.77,185.35 269.71,187.47 C270.1,188.48 270.05,187.44 270.03,194.76 L269.95,226.23 C269.58,227.82 267.9,229.25 266.17,229.45 L233.09,229.46 C224.97,229.47 225.47,229.56 223.94,227.82 C222.8,226.45 222.88,227.32 222.9,217.54 L222.94,189.39 C223.21,187.32 224.2,185.76 225.72,184.98 C226.7,184.48 226.18,184.52 230.7,184.6 C231.42,184.58 231.49,184.53 231.55,184.03 L231.52,183.3 C231.53,182.11 231.81,181.57 232.75,180.98 C233.24,180.68 233.56,180.52 234.07,180.31 C235.65,182.67 235.45,182.21 235.51,183.59 C235.62,184.73 234.49,184.59 243.42,184.59 C258.93,184.59 256.96,184.65 257.17,184.17 C257.2,184.1 257.17,184.33 257.43,182.59 C257.65,181.35 257.99,181.11 259.85,180.88 C260.92,180.77 261.13,180.91 261.65,182.07 L261.65,182.07 zM264.72,193.98 L264.67,194.02 L227.14,193.93 C227.14,211.55 227.14,207.15 227.14,224.77 L265.9,224.76 C265.9,207.17 265.9,211.57 265.9,193.98 L264.72,193.98 L264.72,193.98 zM234.01,183.38 L234.02,183.38 C233.91,183.14 233.68,182.97 233.49,182.97 C233.37,182.96 233.27,183.02 233.2,183.13 C232.9,183.59 233.03,182.82 232.29,188.52 L233.65,188.56 C234.85,188.44 234.86,188.4 234.73,185.33 L234.01,183.38 L234.01,183.38 zM259.97,182.65 L259.88,182.65 C259,182.72 258.74,183.21 258.69,184.86 C258.67,188.94 258.52,188.41 259.81,188.53 C260.22,188.46 260.14,188.7 260.37,186.82 C260.47,183.22 260.42,182.7 259.97,182.65 L259.97,182.65 z"/>
  <path fill="#075A65" d="M267.13,257.03 C268.17,257.23 269.07,258.75 268.8,259.86 C268.36,261.22 267.51,261.66 265.35,261.65 C243.05,261.59 248.62,261.61 226.32,261.54 C225.33,261.24 224.53,259.86 224.82,258.94 C225.49,257.05 225.71,256.96 229.99,256.97 L267.13,257.03 L267.13,257.03 z"/>
  <path fill="#075A65" d="M237.68,198.79 L237.78,198.75 L238.35,198.75 L238.33,205.66 C235.02,205.66 235.85,205.66 232.53,205.67 C232.52,201.72 232.52,202.71 232.51,198.76 C237.81,198.67 237.07,198.67 237.68,198.79 L237.68,198.79 z"/>
  <path fill="#075A65" d="M237.82,210.44 L237.81,210.51 C237.95,210.52 238.04,210.52 238.18,210.52 C238.18,214.46 238.18,213.47 238.17,217.41 C234.94,217.41 235.75,217.41 232.52,217.41 L232.5,210.48 L237.82,210.44 L237.82,210.44 z"/>
  <path fill="#075A65" d="M373.64,68.04 L373.71,68.01 C377.17,68.42 379.53,71.35 379.24,74.89 C379,77.89 376.79,80.01 373.5,80.4 L350.78,80.41 C289.17,80.43 304.58,80.43 242.97,80.38 C239.51,79.91 237.27,77.68 237.05,74.48 C236.9,71.11 239.38,68.14 242.47,67.98 L373.64,68.04 L373.64,68.04 z"/>
  <path fill="#075A65" d="M338.37,98.09 L338.36,98.09 C341.14,98.46 343.43,100.96 343.59,103.81 C343.65,106.6 340.97,109.24 337.84,109.48 L242.88,109.43 C239.59,109.07 237.08,106.59 237.19,103.79 C237.46,100.79 239.84,98.29 242.67,98.01 L331.41,97.96 C338,97.96 337,97.94 338.37,98.09 L338.37,98.09 z"/>
  <path fill="#075A65" d="M245.33,210.48 L245.31,210.48 C247.79,210.39 247.17,210.42 249.66,210.32 L249.54,217.14 C249.34,217.54 249.17,217.56 247.35,217.4 C244.05,217.34 244.51,217.42 244.16,216.78 C243.96,216.41 243.95,216.18 243.99,212.73 L244.01,210.52 C244.76,210.5 244.57,210.51 245.33,210.48 L245.33,210.48 z"/>
  <path fill="#075A65" d="M249.03,198.76 L249.03,198.76 C249.73,198.91 249.67,198.42 249.66,203.39 L249.65,205.7 L244.51,205.57 C243.94,205.36 243.94,205.4 243.99,201.13 C244,200.18 244,199.63 244.01,198.68 C246.88,198.73 246.16,198.72 249.03,198.76 L249.03,198.76 z"/>
  <path fill="#075A65" d="M260.68,198.85 L260.7,198.83 C261.28,199.17 261.29,199.31 261.27,204.01 C260.99,205.79 261.23,205.68 257.85,205.66 C255.83,205.65 255.87,205.66 255.75,205.21 C255.74,205.18 255.67,203.03 255.67,202.65 C255.64,200.28 255.63,200.66 255.72,199.99 C255.81,199.21 255.88,199.1 256.33,198.89 C256.77,198.69 256.33,198.71 259.41,198.72 C260.48,198.7 260.43,198.69 260.68,198.85 L260.68,198.85 z"/>
  <path fill="#075A65" d="M354.65,244.84 L354.67,244.86 C357.01,244.71 357.84,245.1 358.45,246.66 C358.57,246.98 358.65,247.15 358.82,247.45 C358.49,247.94 358.59,247.77 358.14,248.64 C357.61,249.55 356.21,249.9 353.45,249.81 C326.55,249.83 333.27,249.83 306.37,249.8 C303.29,249.8 301.9,249.16 301.58,247.61 C301.47,246.87 301.39,247.12 302.17,245.86 C302.59,245.12 303.14,244.98 305.9,244.85 L351.69,244.93 C352.9,244.96 352.47,244.97 354.65,244.84 L354.65,244.84 z"/>
  <path fill="#075A65" d="M350.58,257.03 L350.59,257.01 C351.96,257.21 352.84,258.62 352.6,260.23 C352.4,261.26 351.56,261.67 349.62,261.66 L309.62,261.56 C308.25,261.2 307.54,260.06 307.84,258.73 C308.13,257.61 309.39,257.01 311.62,256.93 C330.29,256.96 325.62,256.96 344.28,256.96 C349.91,256.96 349.39,256.96 350.58,257.03 L350.58,257.03 z"/>
  <path fill="#075A65" d="M342.44,183.86 L342.44,183.86 C349.99,183.78 351.08,184.15 352.29,187.18 C352.69,188.22 352.64,186.77 352.62,197.3 C352.59,216.48 352.6,211.69 352.55,230.87 C352.07,233.28 349.96,234.89 346.98,235.1 L313.87,235.05 C311.03,234.76 309.08,233.13 308.59,230.66 C308.43,229.64 308.45,231.19 308.47,219.79 L308.54,188.43 C309.28,185.24 311.16,183.84 314.57,183.94 C315.62,183.97 315.27,183.97 317.07,183.93 C319.27,183.95 318.72,183.95 320.92,183.97 C322.48,183.98 322.02,184.01 324.13,183.7 C325.06,181.74 324.85,182.1 325.65,181.22 C327.47,179.32 330.09,178.51 332.8,179.01 C335,179.45 336.93,181.13 337.92,183.46 C337.98,183.61 337.98,183.61 338.04,183.76 L342.44,183.86 L342.44,183.86 zM341.06,194.51 L341.12,194.47 L319.09,194.43 C319.09,188.82 319.08,189.55 319.18,189.3 C319.3,189.02 319.31,188.97 319.27,188.85 C319.19,188.65 319.46,188.66 315.56,188.65 C314.29,188.65 313.84,188.87 313.63,189.58 L313.45,229.83 L347.96,229.84 C347.96,206.2 347.96,212.11 347.96,188.47 L344.54,188.63 C344.15,188.67 344.2,188.66 343.99,188.67 C342.19,188.68 342.41,187.84 342.46,194.51 L341.06,194.51 L341.06,194.51 zM331.96,183 L332,183.01 C331.75,182.98 331.74,182.98 331.4,182.98 C329.81,182.99 329.14,183.42 328.68,184.71 C328.34,185.86 328.88,187.36 329.82,187.88 C330.73,188.34 332.53,188.17 333.12,187.56 C334.06,186.43 334.1,185.84 333.34,184.19 C333.13,183.73 332.38,183.08 331.96,183 L331.96,183 z"/>
  <path fill="#075A65" d="M332.71,203.71 L332.71,203.71 L338.6,198.15 L340.59,200.3 C340.96,201.16 340.77,201.48 338.53,203.84 L329.64,213.19 L321.58,204.71 C321.08,203.77 321.28,202.44 322.01,201.76 C322.75,201.13 323.8,201.32 324.86,202.29 C327.59,204.76 326.91,204.14 329.63,206.61 L332.71,203.71 L332.71,203.71 z"/>
  <path fill="#075A65" d="M332.18,217.6 L332.18,217.6 L338.15,211.97 L339.54,213.36 C340.4,214.74 340.3,215.37 338.98,216.76 C329.63,226.59 330.89,225.34 330.15,225.45 C329.29,225.57 329.24,225.56 327.77,224.72 C325.4,223.38 321.28,218.57 321.38,217.28 C321.48,216.6 322,215.74 322.51,215.42 C323.67,215.06 323.46,214.93 326.7,218 C328.14,219.36 327.78,219.02 329.22,220.38 L332.18,217.6 L332.18,217.6 z"/>
  <path fill="#075A65" d="M438.27,244.94 C440.83,244.94 441.22,245.13 441.81,246.64 C442.21,247.65 441.34,249.08 440.04,249.55 C439.2,249.81 439.95,249.78 434.81,249.77 C408.76,249.73 415.27,249.74 389.23,249.69 C387.92,249.51 386.68,248.47 386.53,247.43 C386.44,246.57 387.16,245.64 388.31,245.12 C389.08,244.8 388.5,244.83 392.39,244.92 C406.22,244.88 402.76,244.88 416.58,244.9 L438.27,244.94 L438.27,244.94 z"/>
  <path fill="#075A65" d="M414.73,196.16 L414.75,196.25 C414.94,203.69 415.22,202.98 410.49,207.36 C409.75,208.03 410.11,207.73 407.99,209.52 C406.34,210.92 406.08,211.34 406.44,212.08 C406.7,212.63 407.38,212.98 407.88,212.84 C408.24,212.74 407.39,213.43 413.8,207.97 C416.3,205.84 415.75,205.92 425.9,206.05 L437.33,206.2 C437.58,206.21 438.83,206.21 439.09,206.21 L438.12,211.64 C436.36,217.9 432.71,222.53 426.78,226.05 C424.1,227.64 421.72,228.47 418.26,229 C414.6,229.57 412.45,229.51 408.46,228.72 C402.21,227.36 396.82,223.61 393.12,218.04 C389.9,213.18 388.59,206.8 389.63,200.99 C391.27,191.89 395.97,185.87 404.26,182.3 C406.75,181.22 409.86,180.58 412.33,180.62 C413.7,180.64 413.36,180.65 414.72,180.53 C414.73,189.46 414.73,187.23 414.73,196.16 L414.73,196.16 z"/>
  <path fill="#075A65" d="M435.45,257.01 L435.28,256.96 L435.63,256.96 L436.93,258.71 C437.23,259.77 436.96,260.37 435.75,261.35 C434.95,261.71 436.07,261.66 427.87,261.65 L395.25,261.61 C394.2,261.33 393.62,260.22 393.79,258.84 C393.99,257.54 395.33,256.87 397.61,256.93 L435.45,257.01 L435.45,257.01 z"/>
  <path fill="#075A65" d="M430.99,43.46 L431.04,43.48 C436.27,44.38 440.54,46.38 444.53,49.8 C447.91,52.71 450.57,56.92 451.79,61.28 C453.67,68.01 452.79,74.71 449.23,81.01 C445.91,86.87 439.78,91.46 433.27,92.97 C422.97,95.34 413.07,91.71 407.13,83.39 C403.22,77.91 401.45,70.76 402.59,64.97 C403.31,61.28 403.79,59.77 405,57.32 C408.28,50.71 414.27,45.72 420.88,44.12 C424.69,43.19 427.9,42.98 430.99,43.46 L430.99,43.46 zM432,64.23 L431.99,64.23 L425.01,71.84 C422.27,69.82 422.79,70.25 421.31,68.79 C417.28,64.8 416.88,64.53 415.33,64.77 C413.98,65.03 412.42,66.45 412.02,67.78 C411.35,70.39 411.86,71.11 418.6,77.02 C424.12,81.86 423.25,81.17 424.69,81.91 C425.15,81.57 425.49,81.32 425.94,80.97 C427.16,80.01 425.61,81.54 436.74,70.25 L439.48,67.47 C443.46,63.43 443.46,63.42 443.67,62.16 C443.87,60.38 443.2,59.08 441.4,57.73 C439.79,56.59 438.55,56.93 436.68,59.01 L432,64.23 L432,64.23 z"/>
  <path fill="#075A65" d="M427.58,183.02 L427.6,183.02 C433.21,186.24 435.43,188.72 437.81,194.43 C438.56,196.35 439.02,198.4 439.17,200.57 L439.32,202.72 L417.67,202.69 L417.54,180.7 C419.68,180.44 418.86,180.36 423.25,181.32 C424.33,181.58 426.56,182.45 427.58,183.02 L427.58,183.02 z"/>
 </g>
</svg>

