<?xml version="1.0" encoding="UTF-8"?>
<!DOCTYPE svg PUBLIC "-//W3C//DTD SVG 1.1//EN" "http://www.w3.org/Graphics/SVG/1.1/DTD/svg11.dtd">
<!-- Creator: FutureCorp VMX -->
<svg xmlns="http://www.w3.org/2000/svg" xml:space="preserve" shape-rendering="geometricPrecision" text-rendering="geometricPrecision" image-rendering="optimizeQuality" fill-rule="evenodd" clip-rule="evenodd" viewBox="0 0 905 824" enable-background="new 0 0 905 824" 
 xmlns:xlink="http://www.w3.org/1999/xlink">
 <g id="Layer_1">
  <metadata id="FutureCorpID_Layer"/>

  <path fill="#07767D" d="M811.62,602.64 L811.61,602.64 C812.86,602.32 813.33,601.45 813.33,599.46 C813.34,560.29 813.34,570.08 813.37,530.92 C813.37,527.44 813.21,526.9 812.06,526.42 C811.31,526.14 812.23,526.18 805.62,526.15 L804.03,526.14 L804.04,520.6 C813.78,520.55 812.38,520.49 813.82,521.01 C817.26,522.25 818.82,524.86 818.81,529.38 L818.73,601.33 C818.27,605.57 815.32,608.17 810.79,608.32 L756.44,608.3 C751.99,608 749.23,604.95 749.09,600.17 L749.13,527.63 C749.45,523.42 752.23,520.77 756.55,520.57 C760.73,520.59 759.68,520.58 763.86,520.6 L763.86,526.13 L757.07,526.14 C755.08,526.17 754.33,527.29 754.5,529.94 L754.52,596.51 C754.52,601.32 754.48,600.62 754.83,601.45 C755.41,602.65 755.76,602.75 759.32,602.75 C789.09,602.72 781.65,602.73 811.42,602.69 C811.54,602.66 811.51,602.67 811.62,602.64 L811.62,602.64 z"/>
  <path fill="#07767D" d="M802.74,546.72 L802.74,546.73 C805.63,543.6 805.42,543.78 806.07,543.86 C807.27,544.01 808.04,545.28 807.55,546.29 L800.01,554.66 C798.84,555.14 798.57,555.01 796.68,553.06 C794.78,551.11 795.25,551.6 793.36,549.65 C794.66,547.74 794.4,548.01 795.18,547.78 C796.04,547.58 796.17,547.66 798.08,549.61 L799.1,550.66 C801.18,548.41 800.66,548.97 802.74,546.72 L802.74,546.72 z"/>
  <path fill="#07767D" d="M802.64,565.74 L802.64,565.75 C805.6,562.61 805.3,562.87 805.92,562.93 C806.9,563.03 807.68,564.06 807.51,565.03 C807.4,565.5 808.42,564.33 800.36,573.22 C799.24,574.32 798.53,574.23 797.18,572.82 C793.06,568.56 793.41,569.02 793.58,568.16 C793.68,567.66 794.27,567.05 794.82,566.88 C795.84,566.61 795.97,566.68 797.91,568.68 L798.9,569.7 C801.04,567.44 800.5,568 802.64,565.74 L802.64,565.74 z"/>
  <path fill="#07767D" d="M802.62,584.98 L802.62,584.98 C805.82,581.62 805.45,581.94 806.07,582 C807.22,582.1 808.01,583.4 807.54,584.44 L799.89,592.8 C799.04,593.19 798.54,593.01 797.51,591.94 L793.38,587.71 L794.24,586.46 C794.85,585.58 796.08,585.65 797.02,586.63 C798.18,587.83 797.89,587.53 799.05,588.73 L802.62,584.98 L802.62,584.98 z"/>
  <path fill="#07767D" d="M792.92,515.29 L792.93,515.28 L793.5,517.36 C793.53,517.58 793.54,517.66 793.55,517.88 C799.96,517.87 799.04,517.78 800.02,518.49 C801.3,519.46 801.39,519.86 801.33,524.34 L801.35,526.58 C801.38,529.22 800.95,530.21 799.49,530.92 C798.89,531.18 802.39,531.15 774.99,531.15 C767.68,531.15 768.71,531.25 767.72,530.48 C766.51,529.5 766.53,529.66 766.58,523.54 L766.56,521.51 C766.53,518.98 767.72,517.84 770.37,517.85 L774.33,517.87 C774.39,516.56 774.31,516.88 774.86,515.61 C776.28,512.29 778.49,510.42 782.02,509.56 C784.14,509.05 786.27,509.35 788.47,510.49 C790.26,511.42 791.96,513.25 792.92,515.29 L792.92,515.29 zM784.04,516.04 C781.83,516.01 780.32,517.42 780.23,519.6 C780.18,521.6 781.72,523.25 783.75,523.39 C785.66,523.45 787.41,521.86 787.49,520.01 C787.55,517.59 786.3,516.14 784.08,516.04 L784.04,516.04 L784.04,516.04 z"/>
  <path fill="#07767D" d="M783.67,567.02 L783.65,567.02 C784.62,567.26 785.33,568.32 785.11,569.2 C784.72,570.46 784.2,570.74 782.21,570.74 C761,570.78 763.72,570.83 763.17,570.38 C762.34,569.59 762.21,568.66 762.81,567.81 C763.43,566.98 763.39,567 765.19,567.02 C767.97,566.95 767.28,566.97 770.07,566.91 C776.74,566.9 775.07,566.9 781.74,566.88 C782.95,566.87 783.17,566.89 783.67,567.02 L783.67,567.02 z"/>
  <path fill="#07767D" d="M783.35,586.02 L783.35,586.04 C784.4,586.22 785.19,587.08 785.15,588 C785.11,588.89 784.27,589.74 783.4,589.79 C781.02,589.88 764.29,589.84 763.86,589.76 C762.78,589.51 762.18,588.39 762.54,587.33 C763.03,586.15 763.65,585.91 766.01,586 L775.48,586.04 C780.54,585.91 782.54,585.9 783.35,586.02 L783.35,586.02 z"/>
  <path fill="#07767D" d="M783.66,547.92 L783.65,547.94 C784.32,548.1 784.78,548.55 785.06,549.29 C785.24,549.86 785.16,550.15 784.63,550.96 C784.46,551.21 784.36,551.34 784.18,551.57 L763.76,551.5 C762.76,551.26 762.2,550.17 762.54,549.09 C762.87,548.21 763.6,547.85 764.93,547.93 C775.09,547.86 772.55,547.88 782.71,547.83 C783.15,547.82 783.35,547.84 783.66,547.92 L783.66,547.92 z"/>
  <path fill="#07767D" d="M763.09,273.86 C762.67,280.38 759.13,284.11 752.47,285.06 C749.97,285.42 747.62,285.08 745.42,284.03 C739.6,281.25 737.36,276.72 738.71,270.44 C739.36,267.41 740.91,264.95 743.34,263.08 C745.78,261.21 748.52,260.38 751.55,260.58 C755.03,260.82 757.88,262.22 760.1,264.77 C762.33,267.33 763.32,270.36 763.09,273.86 L763.09,273.86 zM807.84,264.69 C810.59,261.54 813.99,260.18 818.04,260.59 L818.06,260.59 C822.93,261.13 826.33,263.61 828.25,268.02 C830.74,273.76 829.58,278.58 824.77,282.46 C822.61,284.21 820.12,285.12 817.28,285.19 C814.45,285.27 811.92,284.5 809.7,282.88 C806.83,280.78 805.17,277.96 804.74,274.42 C804.3,270.81 805.33,267.57 807.84,264.69 L807.84,264.69 zM755.01,289.76 C755.57,289.84 756.15,289.97 756.75,290.15 C756.2,290.66 755.6,291.43 754.93,292.44 C751.78,297.28 750.21,302.74 750.23,308.83 C750.25,314.34 750.13,317.23 749.87,317.51 C749.55,317.84 748.44,318 746.54,318 L731.08,317.97 C729.82,317.96 729.21,317.08 729.26,315.32 L729.33,306.08 C729.4,296.06 734.94,290.56 745.96,289.56 C749.19,289.27 752.2,289.33 754.98,289.75 L755.01,289.76 L755.01,289.76 zM756.4,308.34 C756.42,302.8 758.12,298 761.49,293.94 C766.15,288.33 773.35,285.48 783.09,285.4 C792.06,285.32 798.98,287.37 803.87,291.55 C808.89,295.84 811.39,301.6 811.38,308.84 L811.34,324.08 C811.19,324.95 810.68,325.42 809.8,325.49 L759.93,325.53 C758.49,325.54 757.62,325.46 757.3,325.3 C756.61,324.93 756.3,323.98 756.36,322.44 L756.4,308.34 L756.4,308.34 zM811.17,290.14 C811.79,289.96 812.58,289.81 813.52,289.67 L813.53,289.66 C815.6,289.38 817.84,289.31 820.26,289.44 C822.68,289.58 824.77,289.89 826.52,290.39 C834.71,292.71 838.75,298.46 838.65,307.63 L838.54,316.8 C838.34,317.54 837.8,317.93 836.93,317.97 L819.93,317.98 C818.81,317.98 818.05,317.76 817.65,317.31 C817.43,317.06 817.33,316.16 817.33,314.6 L817.37,307.14 C817.29,301.76 815.64,296.68 812.43,291.9 L811.17,290.14 L811.17,290.14 zM770.41,258.89 C773,253.72 777.16,250.89 782.89,250.39 C783.65,250.32 784.39,250.33 785.11,250.4 L785.15,250.41 C792,251.15 796.37,254.82 798.27,261.4 C799.37,265.2 799.04,268.83 797.29,272.29 C795.53,275.76 792.79,278.18 789.08,279.55 C785.48,280.88 781.96,280.88 778.51,279.56 C773.12,277.5 769.96,273.7 769.02,268.16 C768.47,264.92 768.93,261.83 770.41,258.89 L770.41,258.89 z"/>
  <path fill="#07767D" d="M154.88,389.99 L59.99,389.99 C60.97,390.94 62.74,392.5 65.28,394.65 L101.89,425.75 C104.43,427.9 105.79,429.03 105.98,429.13 C107.39,429.83 108.82,429.55 110.29,428.29 L154.88,389.99 L154.88,389.99 zM160.42,458.76 C158.89,460.19 157.01,460.96 154.78,461.06 L59.36,461.02 C57.36,460.83 55.66,460 54.25,458.52 C52.84,457.05 52.09,455.3 51.98,453.27 L51.93,395.48 L52.06,391.49 C52.84,386.91 55.73,384.54 60.72,384.4 L155.01,384.43 L155.16,384.45 L155.18,384.45 C160.29,384.92 162.9,387.88 163.02,393.34 L162.97,453.41 C162.8,455.55 161.95,457.33 160.42,458.76 L160.42,458.76 zM113.74,432.61 C110.2,435.66 106.52,435.94 102.7,433.44 L57.39,395.05 L57.38,451.82 L86.81,426.85 L90.81,430.47 L61.25,455.65 L154.53,455.65 L124.51,430.28 L128.66,426.64 L157.41,451.02 L157.41,394.96 L157.13,395.24 L113.74,432.61 L113.74,432.61 z"/>
  <path fill="#07767D" d="M784.81,694.94 C782.37,694.59 781.3,693.2 781.58,690.77 C781.7,689.75 782.15,688.95 782.91,688.38 C783.67,687.82 784.59,687.59 785.69,687.71 L785.7,687.71 C786.71,687.85 787.51,688.32 788.1,689.11 C788.68,689.91 788.92,690.83 788.79,691.89 C788.66,692.79 788.2,693.55 787.39,694.17 C786.58,694.79 785.72,695.05 784.81,694.94 L784.81,694.94 zM801.87,689.07 C802.46,689.86 802.71,690.76 802.61,691.77 C802.49,692.71 802.05,693.49 801.29,694.11 C800.52,694.74 799.66,695.02 798.71,694.95 C796.2,694.7 795.07,693.34 795.32,690.89 C795.56,688.5 796.97,687.45 799.54,687.71 L799.56,687.71 C800.51,687.83 801.28,688.29 801.87,689.07 L801.87,689.07 zM800.97,664.06 C812.06,664.57 820.5,668.93 826.28,677.14 C830.13,682.61 831.56,688.42 830.57,694.58 C829.73,699.76 827.26,704.39 823.16,708.47 L822.5,709.13 C823.1,711.68 823.7,713.82 824.31,715.55 L825.9,719.83 C826.39,721.15 826.2,722.14 825.32,722.81 C824.58,723.34 823.39,723.26 821.74,722.58 C817.57,720.85 813.46,718.99 809.43,717.01 L808.55,716.58 L804.69,717.46 C795.49,719.03 787.1,717.58 779.53,713.12 C772.13,708.76 767.68,702.9 766.19,695.55 C764.24,685.93 767.67,677.73 776.5,670.94 C777.56,670.13 778.74,669.36 780.04,668.64 L780.05,668.63 C786.2,665.22 793.17,663.69 800.97,664.06 L800.97,664.06 zM787.42,635.47 C792.23,637.67 796.3,640.72 799.64,644.63 C803.91,649.62 806.37,655.15 807.02,661.21 L807.14,662.36 L802.44,661.82 L801.67,658.31 C801.35,657.26 800.94,656.13 800.44,654.93 L800.44,654.93 C798.1,649.39 794.22,644.97 788.8,641.65 C783.17,638.21 776.97,636.73 770.22,637.2 C761.3,637.84 754.07,641.39 748.52,647.88 C744.71,652.34 742.5,657.41 741.88,663.09 C741.64,665.35 741.67,667.55 741.97,669.68 C742.69,674.74 744.78,679.35 748.25,683.53 L749.09,684.49 C749.51,684.98 749.42,686.18 748.81,688.11 L747.21,693.15 L746.09,696.08 L748.22,695.67 C750.77,694.88 753.61,693.53 756.74,691.6 C757.72,691.01 758.9,690.96 760.3,691.46 C760.64,691.58 761,691.69 761.36,691.79 C760.77,694.15 760.48,695.53 760.47,695.92 C760.47,696 760.45,696.07 760.4,696.13 C760.36,696.19 760.3,696.22 760.23,696.23 C760.19,696.23 759.99,696.16 759.63,696.03 C759.11,695.83 758.27,696.1 757.11,696.82 C753.73,698.94 749.66,700.49 744.91,701.46 C742.95,701.85 741.72,701.98 741.2,701.85 C740.51,701.64 740.05,701.1 739.8,700.24 C739.68,699.74 740.06,698.5 740.95,696.5 C741.46,695.36 742.03,693.92 742.65,692.18 C743.27,690.45 743.82,688.79 744.29,687.2 L744.52,686.43 C742.71,683.99 741.49,682.21 740.88,681.07 C738.74,677.11 737.49,672.93 737.15,668.56 C736.94,665.96 737.02,663.45 737.4,661.02 C738.45,654.29 741.34,648.44 746.07,643.48 C752.52,636.71 760.56,632.99 770.17,632.3 C776.12,631.87 781.87,632.93 787.42,635.47 L787.42,635.47 zM795.59,668.88 C790.63,669.31 786.09,670.7 781.96,673.04 C780.51,673.87 779.16,674.83 777.9,675.93 C773.78,679.54 771.37,683.79 770.65,688.68 C770.24,691.51 770.49,694.27 771.41,696.95 C773.89,704.21 779.63,709.17 788.64,711.83 C794.52,713.57 800.38,713.73 806.22,712.3 C808.13,711.83 809.97,712.06 811.76,712.97 C814.84,714.55 817.56,715.82 819.93,716.79 L819.47,715.17 C818.67,712.62 818.13,710.81 817.86,709.75 C817.48,708.23 817.61,707.18 818.25,706.61 C820.12,704.91 821.49,703.45 822.36,702.21 C825.81,697.29 826.85,692.06 825.49,686.52 C823.44,678.18 817.46,672.66 807.57,669.94 C803.66,668.87 799.67,668.52 795.59,668.88 L795.59,668.88 zM810.48,688.34 C811.27,687.78 812.22,687.58 813.31,687.73 L813.34,687.73 C814.35,687.89 815.13,688.35 815.68,689.1 C816.24,689.85 816.46,690.75 816.32,691.79 C816.16,692.82 815.68,693.63 814.88,694.24 C814.07,694.85 813.16,695.08 812.14,694.93 C811.09,694.75 810.27,694.28 809.69,693.5 C809.11,692.71 808.89,691.8 809.04,690.74 C809.2,689.7 809.68,688.9 810.48,688.34 L810.48,688.34 z"/>
  <path fill="#07767D" d="M141.06,545.89 C141.66,546.14 142.03,546.61 142.15,547.28 C142.19,547.61 142.13,547.9 141.96,548.15 C141.84,548.32 141.57,548.64 141.16,549.11 L127.35,564.73 L127.62,566.87 C127.51,568.87 126.72,570.47 125.25,571.67 C123.78,572.87 122.05,573.34 120.05,573.07 C118.08,572.81 116.54,571.92 115.43,570.42 C114.32,568.91 113.95,567.21 114.33,565.33 C115.03,561.87 117.14,560.06 120.67,559.89 L122.42,560.08 L122.5,560.1 L137.97,547.61 L137.96,547.6 C139.58,546.29 140.61,545.72 141.06,545.89 L141.06,545.89 zM77.32,577.26 C76.95,577.76 76.48,578.03 75.93,578.06 C75.57,578.08 74.7,578.08 73.31,578.08 L64.3,578.04 C63.11,578.04 62.48,578.03 62.41,578.01 C61.9,577.86 61.5,577.55 61.21,577.09 C60.93,576.62 60.84,576.12 60.93,575.59 C61.19,574.36 61.97,573.75 63.25,573.76 L74.44,573.81 L74.44,573.77 C76.41,573.7 77.52,574.32 77.75,575.64 C77.84,576.22 77.7,576.77 77.32,577.26 L77.32,577.26 zM105.39,603.94 C97.19,600.35 90.89,594.77 86.48,587.21 C82.87,581.01 81.03,574.44 80.99,567.51 C80.89,554.11 86.01,543.33 96.35,535.18 C104.84,528.48 114.23,525.67 124.51,526.75 C129.98,527.32 135.18,528.89 140.12,531.46 L140.13,531.46 C142.37,532.63 144.92,534.41 147.79,536.81 L148.62,537.51 L152.29,534.09 C151.69,533.5 151.29,533.01 151.08,532.61 C150.32,531.11 150.85,529.85 152.66,528.83 C153.84,528.2 155.04,528.51 156.27,529.77 C159.59,533.16 161.27,535.18 161.32,535.84 C161.39,537.25 160.64,538.3 159.06,539 C158.2,539.35 157.34,539.16 156.47,538.41 C156.15,538.13 155.84,537.84 155.56,537.53 L151.96,541.19 L154.73,545.05 C157.8,549.88 159.79,554.89 160.69,560.08 C162.68,571.46 160.08,581.89 152.89,591.36 C146.92,599.24 138.95,604.25 128.99,606.39 C120.93,608.11 113.07,607.3 105.39,603.94 L105.39,603.94 zM104.52,549.06 C104.39,549.66 103.99,550.11 103.32,550.42 C102.63,550.69 101.8,550.32 100.82,549.32 C99.92,548.39 99.53,547.6 99.63,546.93 C99.73,546.46 100.01,546.07 100.46,545.76 C100.92,545.45 101.34,545.36 101.74,545.49 L101.75,545.49 C102.08,545.63 102.61,546.07 103.32,546.82 L103.97,547.45 C104.47,547.93 104.65,548.46 104.52,549.06 L104.52,549.06 zM120.99,510.45 C122.49,510.44 123.7,510.42 124.64,510.39 L124.66,510.39 C127.78,510.3 129.8,510.83 130.72,511.97 C131.47,512.93 131.76,514.56 131.6,516.85 C131.43,519.26 130.21,520.51 127.92,520.61 C125.66,520.7 122.65,520.73 118.89,520.7 C115.14,520.67 113.04,520.6 112.6,520.49 C110.77,519.96 109.85,518.49 109.86,516.07 C109.86,513.73 110.33,512.16 111.26,511.36 C112.05,510.68 114.08,510.37 117.36,510.43 C118.27,510.45 119.48,510.46 120.99,510.45 L120.99,510.45 zM119.58,596.1 C119.34,595.82 119.24,594.36 119.26,591.73 C119.35,591.18 119.61,590.75 120.05,590.45 C120.49,590.14 120.96,590.06 121.47,590.21 L121.59,590.26 C122.38,590.63 122.77,591.55 122.75,593.01 C122.72,594.97 122.45,596.13 121.92,596.48 C121.55,596.71 121.16,596.79 120.72,596.71 C120.29,596.64 119.91,596.44 119.58,596.1 L119.58,596.1 zM150.73,552.14 C145.03,540.42 135.51,534.36 122.19,533.95 L122.21,533.97 C117.84,533.84 113.74,534.46 109.92,535.81 C104.79,537.63 100.39,540.51 96.72,544.46 C91.48,550.1 88.59,556.75 88.05,564.42 C87.71,569.23 88.54,574.26 90.54,579.5 C90.88,580.4 91.43,581.53 92.18,582.88 C92.93,584.22 93.66,585.38 94.35,586.34 C99.05,592.83 105.58,597.06 113.93,599.03 C124.58,601.55 134.22,599.1 142.85,591.67 C149.61,585.86 153.35,578.51 154.07,569.62 C154.56,563.54 153.45,557.72 150.73,552.14 L150.73,552.14 zM75.29,564.28 C75.05,565.26 74.39,565.76 73.31,565.75 L55.09,565.71 C54.57,565.57 54.17,565.26 53.89,564.78 C53.61,564.3 53.54,563.79 53.66,563.25 C53.97,562.11 55.29,561.54 57.61,561.54 L72.37,561.55 C72.85,561.59 73.26,561.63 73.6,561.7 L73.61,561.7 C74.22,561.83 74.69,562.14 75,562.62 C75.32,563.11 75.42,563.66 75.29,564.28 L75.29,564.28 zM61.32,550.97 C61.89,550.11 63.02,549.74 64.73,549.86 L74.71,549.85 C75.25,549.85 75.71,549.88 76.08,549.94 L76.11,549.95 C76.72,550.05 77.2,550.35 77.55,550.85 C77.91,551.37 78.03,551.93 77.9,552.54 C77.64,553.6 76.9,554.13 75.7,554.13 L64.25,554.13 C63.54,554.13 63.06,554.12 62.82,554.1 C62.48,554.07 62.18,553.96 61.92,553.77 C61.47,553.41 61.19,552.97 61.07,552.45 C60.96,551.92 61.04,551.43 61.32,550.97 L61.32,550.97 zM103.46,586.47 L102.85,587.14 C102.06,588.01 101.22,588.15 100.33,587.54 C99.53,586.95 99.37,586.21 99.84,585.31 C99.94,585.15 100.28,584.77 100.88,584.17 C101.82,583.22 102.59,582.8 103.19,582.92 L103.23,582.92 C103.72,583.06 104.1,583.36 104.36,583.84 C104.63,584.32 104.68,584.78 104.51,585.24 C104.43,585.43 104.08,585.84 103.46,586.47 L103.46,586.47 zM138.58,586.62 C137.89,585.92 137.49,585.39 137.39,585 C137.25,584.43 137.41,583.91 137.87,583.46 C138.32,583 138.87,582.82 139.5,582.91 L139.5,582.9 C139.8,582.97 140.43,583.49 141.39,584.49 C142.19,585.31 142.48,586.06 142.28,586.74 C142.13,587.12 141.84,587.43 141.42,587.65 C140.99,587.88 140.58,587.95 140.2,587.85 C139.81,587.73 139.27,587.32 138.58,586.62 L138.58,586.62 zM95.16,568.36 C92.67,568.51 91.42,567.93 91.43,566.62 C91.5,565.4 92.35,564.82 93.99,564.87 L95.31,564.88 C95.54,564.88 95.74,564.89 95.91,564.92 L95.92,564.93 C96.36,565 96.73,565.23 97.01,565.64 C97.3,566.04 97.4,566.47 97.32,566.93 C97.13,567.81 96.41,568.29 95.16,568.36 L95.16,568.36 zM121.4,537.28 C122.34,537.46 122.79,538.19 122.76,539.46 C122.7,541.52 122.46,542.72 122.04,543.04 C121.7,543.28 121.31,543.38 120.88,543.34 C120.45,543.31 120.07,543.14 119.75,542.85 C119.38,542.5 119.2,541.6 119.23,540.16 C119.26,538.9 119.39,538.15 119.63,537.91 C120.16,537.4 120.75,537.18 121.38,537.27 L121.4,537.28 L121.4,537.28 zM117.41,523.23 C117.43,523.09 117.45,522.97 117.48,522.86 C117.5,522.75 117.53,522.69 117.56,522.66 C117.64,522.57 119.27,522.53 122.45,522.55 C122.95,522.6 123.26,522.67 123.39,522.75 C123.53,522.83 123.65,523 123.74,523.24 C123.84,523.48 123.86,523.66 123.8,523.77 C123.69,523.96 122.6,524.08 120.54,524.11 L118.58,524.15 C117.89,524.19 117.49,524.09 117.4,523.83 C117.38,523.79 117.37,523.72 117.38,523.6 C117.38,523.49 117.39,523.36 117.41,523.23 L117.41,523.23 zM146.98,568.38 C145.46,568.39 144.73,567.78 144.79,566.54 C144.9,565.48 145.54,564.95 146.71,564.93 C148.36,564.92 149.27,564.92 149.46,564.95 L149.45,564.96 C149.9,565.05 150.26,565.28 150.52,565.67 C150.77,566.05 150.86,566.48 150.77,566.95 C150.54,567.93 149.72,568.4 148.33,568.36 L146.98,568.38 L146.98,568.38 z"/>
  <path fill="#07767D" d="M762.8,443.81 L762.79,452.93 L753.03,452.89 L752.98,443.82 L755.42,443.82 L755.43,443.83 L762.8,443.81 L762.8,443.81 zM770.24,453.01 L770.28,443.82 L779.24,443.84 L779.22,443.82 L779.98,443.82 L780,452.87 L770.24,453.01 L770.24,453.01 zM809.55,377.44 L809.56,377.44 C811.6,377.72 812.61,378.97 812.6,381.2 L812.56,391.88 C812.45,392.82 811.99,393.57 811.17,394.13 C810.36,394.69 809.45,394.89 808.46,394.71 C806.48,394.32 805.54,393.05 805.63,390.92 C805.65,390.53 805.63,389.1 805.58,386.65 C805.47,381.76 805.96,378.91 807.05,378.11 C807.81,377.56 808.65,377.34 809.55,377.44 L809.55,377.44 zM761.92,388.97 C761.92,391.41 761.57,393.02 760.85,393.82 C760.33,394.36 759.67,394.68 758.86,394.77 C758.04,394.86 757.28,394.7 756.57,394.29 C755.33,393.53 754.75,391.51 754.83,388.21 L754.85,381.69 C754.86,378.93 755.99,377.47 758.25,377.32 C760.55,377.23 761.77,378.56 761.91,381.31 L761.92,388.97 L761.92,388.97 zM779.45,413.1 L780,413.09 L780.03,422.35 L770.28,422.33 L770.26,413.17 L779.45,413.1 L779.45,413.1 L779.45,413.1 zM779.67,428.5 L779.96,428.5 L780.02,437.66 L770.27,437.69 L770.27,428.48 L779.7,428.51 L779.67,428.5 L779.67,428.5 zM762.43,428.51 L762.74,428.51 L762.78,437.68 L753.06,437.67 L753.09,428.51 L762.43,428.5 L762.43,428.51 L762.43,428.51 zM787.53,413.2 L796.71,413.05 L796.72,413.05 L797.31,413.04 L797.26,422.35 L787.51,422.33 L787.53,413.2 L787.53,413.2 zM753.02,422.35 L753.02,413.02 L762.03,413.17 L762.02,413.19 L762.83,413.2 L762.77,422.35 L753.02,422.35 L753.02,422.35 zM814.53,422.33 L804.85,422.37 L804.88,413.19 L813.71,413.08 L813.71,413.05 L814.54,413.04 L814.53,422.33 L814.53,422.33 zM827.66,465.45 C825.78,467.17 823.46,468.06 820.7,468.15 L746.1,468.1 C743.6,467.9 741.51,466.92 739.83,465.16 C738.15,463.4 737.24,461.25 737.12,458.7 L737.07,397.94 C737.06,393.87 737.37,391.18 737.99,389.87 C739.61,386.44 742.47,384.66 746.56,384.52 L750.99,384.54 C751.51,384.54 752.02,384.52 752.53,384.49 L752.58,392.01 C752.81,393.76 753.55,395.12 754.81,396.1 C756.08,397.08 757.57,397.44 759.28,397.18 C762.68,396.67 764.36,394.49 764.33,390.64 L764.3,387.99 L764.44,384.54 L803.24,384.54 L803.31,392.13 C803.78,395.6 805.83,397.29 809.47,397.2 L809.54,397.19 C813.08,397.01 814.92,394.93 815.05,390.97 L815.02,384.6 C818.46,384.5 820.77,384.5 821.94,384.6 C827.72,385.11 830.69,388.26 830.84,394.04 L830.8,458.96 C830.59,461.57 829.54,463.74 827.66,465.45 L827.66,465.45 zM813.86,443.85 L814.53,443.85 L814.54,452.97 L804.85,453.03 L804.89,443.83 L813.88,443.8 L813.86,443.85 L813.86,443.85 zM797.3,443.83 L797.27,452.88 L787.54,453.01 L787.51,443.82 L796.39,443.8 L796.47,443.83 L797.3,443.83 L797.3,443.83 zM804.87,428.5 L813.97,428.49 L813.95,428.51 L814.52,428.51 L814.54,437.66 L804.85,437.69 L804.87,428.5 L804.87,428.5 zM787.54,428.48 L796.8,428.51 L796.79,428.5 L797.27,428.5 L797.29,437.68 L787.51,437.68 L787.54,428.48 L787.54,428.48 zM744.17,404.75 L744.15,456.83 C744.23,459.48 745.65,460.81 748.39,460.81 L818.94,460.87 C821.67,460.87 823.22,459.88 823.61,457.91 L823.61,404.7 L821.14,404.7 L821.16,404.7 L744.17,404.75 L744.17,404.75 z"/>
  <path fill="#07767D" d="M122.01,663.6 L121.96,663.6 C160.59,664.62 155.6,664.33 156.89,665.65 C158.73,667.69 158.38,668.93 155.23,671.48 C140.92,683.09 144.5,680.19 130.18,691.8 L139.54,721.92 C139.61,723.3 139.08,724.35 137.99,725.01 C136.96,725.57 134.45,725.21 133.06,724.29 L107.39,707.34 L81.15,724.72 C79.3,725.7 76.95,725.57 75.92,724.41 C74.68,722.91 74.73,722.23 76.52,716.89 L84.34,690.85 L57.42,669.85 C57.02,669.27 56.88,668.35 56.96,666.88 C57.01,665.98 57.09,665.47 57.34,664.61 L92.82,663.61 L97.43,650.38 C100.15,641.91 103.3,632.78 103.73,632.14 C104.92,630.35 106.49,629.63 108.08,630.14 C110.13,630.94 109.98,630.67 112.45,637.74 C117.63,652.52 116.33,648.82 121.55,663.59 L122.01,663.6 L122.01,663.6 z"/>
  <path fill="#07767D" d="M37.93,127.73 C29.73,127.73 25.05,130.3 22.3,136.35 C20.56,140.16 19.92,150.97 20.84,160.73 C21.67,169.43 25.97,174.2 33.74,175.03 L864.76,175.45 C878.5,175.21 883.71,170.46 883.99,157.94 C884.21,148.22 883.9,141.78 883.06,138.64 C881.16,131.52 876.09,128.37 866.53,128.36 L37.93,127.73 L37.93,127.73 zM84.48,42.54 L84.52,42.55 C82.22,42.35 80.1,42.46 77.67,42.9 C63.69,45.45 55.35,58.4 58.47,72.69 C60.78,83.25 69.25,90.57 80.27,91.53 C93.73,92.7 105.1,83.03 106.39,69.32 C107.7,55.42 98.29,43.92 84.48,42.54 L84.48,42.54 zM161.56,42.47 L161.55,42.47 C152.93,41.58 144.04,45.63 139.2,52.66 C134.1,60.08 133.4,70.5 137.47,78.6 C141.45,86.53 149.58,91.48 158.8,91.61 C172.64,91.81 183.78,80.64 183.49,66.85 C183.22,53.66 174.46,43.92 161.56,42.47 L161.56,42.47 zM237.7,42.45 L237.76,42.46 C224.35,41.52 212.91,51.4 211.92,64.77 C210.84,79.46 220.1,90.43 234.47,91.48 C248.15,92.48 259.37,82.65 260.4,68.76 C261.43,54.87 251.63,43.51 237.7,42.45 L237.7,42.45 zM862.03,0 C877.11,0.77 888.62,7.69 896.57,20.78 C902.7,30.87 904.97,41.68 904.93,60.55 L903.5,772.84 C902.16,798.25 888.93,817.39 869.52,821.99 L868.07,822.4 C865.54,823.22 865.54,823.22 809.68,823.13 L44.54,821.85 C31.15,821.83 21.13,817.33 12.58,807.49 C5.17,798.97 0.68,786.97 -0,773.9 L0.07,46.73 C1.76,17.69 20.32,0.32 49.69,0.31 L862.03,0 L862.03,0 zM21.7,238.08 C21.7,230.62 27.75,224.58 35.2,224.58 L869.73,224.58 C877.19,224.58 883.23,230.62 883.23,238.08 L883.23,733.21 C883.23,740.67 877.19,746.71 869.73,746.71 L35.2,746.71 C27.75,746.71 21.7,740.67 21.7,733.21 L21.7,238.08 L21.7,238.08 z"/>
  <path fill="#07767D" d="M388.26,587.62 L415.78,403.32 L501.05,403.32 L528.59,587.84 L529.98,588.16 C539.87,591.01 544.81,594.16 544.81,597.61 L544.81,614.48 L371.11,614.48 L371.11,597.61 C371.11,594.17 376.05,591.02 385.94,588.16 L388.26,587.62 L388.26,587.62 zM436.49,581.56 L457.96,580.73 L480.33,581.61 L480.33,569.85 C480.33,563.26 478.19,557.64 473.91,552.98 C469.62,548.31 464.45,545.98 458.4,545.98 C452.35,545.98 447.19,548.31 442.91,552.97 C438.63,557.63 436.49,563.26 436.49,569.85 L436.49,581.56 L436.49,581.56 zM501.06,316.05 L501.06,349.55 L509.36,349.55 C510,349.55 510.53,349.77 510.97,350.22 C511.41,350.66 511.63,351.2 511.63,351.84 L511.63,360.92 C511.63,361.56 511.41,362.09 510.97,362.53 C510.54,362.97 510,363.19 509.36,363.19 L501.09,363.19 L501.09,385.78 L513.27,385.78 C513.9,385.78 514.43,386.01 514.88,386.45 C515.32,386.9 515.54,387.44 515.54,388.07 L515.54,397.16 C515.54,397.79 515.32,398.33 514.88,398.76 C514.44,399.2 513.9,399.42 513.27,399.42 L403.07,399.42 C402.43,399.42 401.89,399.2 401.44,398.76 C401,398.32 400.78,397.79 400.78,397.16 L400.78,388.07 C400.78,387.44 401,386.9 401.45,386.45 C401.89,386.01 402.44,385.78 403.07,385.78 L415.22,385.78 L415.22,363.19 L407.36,363.19 C406.73,363.19 406.18,362.97 405.74,362.53 C405.29,362.09 405.07,361.55 405.07,360.92 L405.07,351.84 C405.07,351.21 405.29,350.67 405.74,350.22 C406.19,349.77 406.73,349.55 407.36,349.55 L415.26,349.55 L415.26,316.05 L400.78,316.05 L451.43,278.21 C450.71,277.01 450.35,275.66 450.35,274.16 C450.35,271.96 451.13,270.08 452.69,268.52 C454.26,266.96 456.14,266.18 458.35,266.18 C460.57,266.18 462.45,266.96 464.01,268.51 C465.57,270.07 466.35,271.95 466.35,274.16 C466.35,275.75 465.95,277.17 465.15,278.42 L515.54,316.05 L501.06,316.05 L501.06,316.05 zM469.55,449.29 C470.57,449.29 471.45,448.93 472.17,448.21 C472.9,447.49 473.26,446.63 473.26,445.61 L473.26,430.81 C473.26,429.79 472.9,428.91 472.17,428.19 C471.45,427.47 470.57,427.11 469.55,427.11 L447.25,427.11 C446.23,427.11 445.35,427.47 444.63,428.19 C443.9,428.91 443.54,429.79 443.54,430.81 L443.54,445.61 C443.54,446.63 443.91,447.49 444.63,448.21 C445.36,448.93 446.23,449.29 447.25,449.29 L469.55,449.29 L469.55,449.29 zM365.38,329.9 L337.93,320.72 L337.93,307.09 L409.75,329.9 L365.38,329.9 L365.38,329.9 zM551.11,336.5 L578.38,345.68 L578.38,359.29 L506.95,336.5 L551.11,336.5 L551.11,336.5 zM446.84,349.55 C446.84,342.03 447.94,335.6 450.15,330.27 C451.92,326.01 453.98,323.46 456.33,322.6 L456.33,316.05 L422.12,316.05 L422.12,349.55 L446.84,349.55 L446.84,349.55 zM494.19,349.55 L494.19,316.05 L459.98,316.05 L459.98,322.6 C462.34,323.45 464.4,326.01 466.16,330.26 C468.37,335.58 469.48,342.01 469.48,349.55 L494.19,349.55 L494.19,349.55 zM551.11,329.9 L506.95,329.9 L578.38,307.09 L578.38,320.72 L551.11,329.9 L551.11,329.9 zM409.75,336.5 L337.93,359.29 L337.93,345.68 L365.38,336.5 L409.75,336.5 L409.75,336.5 z"/>
  <path fill="#07767D" d="M396.22,706.53 L396.22,706.54 C393.48,709.49 389.88,711.31 386.08,711.65 C385.17,711.73 386.16,711.72 376.1,711.72 C375.25,711.72 375.46,711.72 374.62,711.72 L374.67,688.91 L382.12,688.91 L383.55,679.61 L374.66,679.61 L374.67,673.62 C374.68,670.39 376.35,668.72 379.67,668.57 C382.12,668.57 381.51,668.57 383.95,668.57 L383.97,660.65 C381.64,660.29 382.21,660.36 379.97,660.17 C374.83,659.73 371.7,660.34 369.03,662.3 C366.2,664.38 364.74,667.6 364.59,672.09 C364.57,675.45 364.58,674.61 364.57,677.96 C364.56,679.3 364.55,679.06 364.65,679.61 C359.95,679.61 361.12,679.61 356.42,679.61 C356.42,684.93 356.42,683.6 356.42,688.91 C361.09,688.91 359.92,688.91 364.59,688.91 C364.6,701.95 364.6,698.69 364.6,711.72 L351.32,711.69 C344.07,711.23 338.14,705.93 336.78,698.72 C336.48,697.17 336.51,700.1 336.56,678.2 L336.6,662.3 C336.89,658.65 338.54,655.18 341.24,652.49 C344.2,649.56 347.82,648.04 352.15,647.91 L385.57,647.94 C392.43,648.32 398.42,653.46 399.95,660.27 C400.33,661.98 400.28,660.74 400.28,668.9 L400.3,696.91 C400.11,700.41 398.63,703.9 396.22,706.53 L396.22,706.53 z"/>
  <path fill="#07767D" d="M471.69,649.25 L471.69,649.24 C473.41,649.47 473.59,649.51 474.35,649.75 L474.94,649.92 C476.27,650.29 477.34,650.76 479.01,651.69 C479.52,651.97 480.83,652.92 481.12,653.22 C481.23,653.34 481.17,653.29 481.56,653.58 C481.99,653.91 484.28,656.27 484.57,656.69 C484.86,657.11 484.79,657.01 485.1,657.37 L485.68,658.21 C486.19,659.14 486.06,658.91 486.56,659.85 C487.06,660.77 487.63,662.35 487.88,663.51 L488.15,664.48 C488.22,664.75 488.22,664.68 488.15,665 L488.36,665.82 C488.4,666.16 488.4,665.46 488.4,670.68 L488.38,695.81 C488.35,696.1 488.38,695.97 488.21,696.7 C488.17,696.87 488.17,696.79 488.17,697.24 C488.17,697.43 487.67,699.24 487.47,699.78 C486.69,701.86 486.87,701.46 486.2,702.62 C486.08,702.86 486.11,702.8 486,703.05 L485.22,704.28 L483.97,705.84 C482.17,707.71 482.01,707.85 480.81,708.72 C479.62,709.58 478.63,710.12 476.84,710.87 C476.08,711.2 474.34,711.67 473.48,711.78 C473.05,711.84 473.2,711.81 472.44,711.96 C471.97,712.04 472.3,712.03 470.16,712.03 L442.84,712.01 L440.61,711.64 C439.02,711.23 437.06,710.48 436.09,709.91 C435.15,709.34 435.38,709.48 434.44,708.91 C433.57,708.35 432.72,707.62 431.63,706.53 C430.51,705.4 430.69,705.6 430.33,705.14 C430.26,705.05 430.3,705.09 430.07,704.89 L428.35,702.42 C428.2,702.04 427.92,701.52 427.56,700.94 C427.55,700.92 426.98,699.42 426.9,699.22 C426.61,698.4 426.2,696.79 426.19,696.44 C426.09,695.91 426.12,696.04 426.02,695.51 C425.95,695.08 425.95,696.39 425.96,686.32 C425.97,674.35 425.96,677.34 425.97,665.36 C426.09,664.78 426.06,664.93 426.18,664.35 C426.2,664.23 426.2,664.29 426.18,663.96 C426.18,663.89 426.15,664.02 426.42,663.01 L426.54,662.52 C426.69,661.86 427.12,660.67 427.44,660.01 C427.46,659.97 427.45,660.01 427.52,659.71 L428.05,658.69 C428.51,657.93 428.39,658.12 428.86,657.36 C429.75,655.93 431.14,654.38 432.46,653.32 C433.97,652.11 434.64,651.67 435.95,651.03 C436.99,650.51 438.33,649.99 438.93,649.86 C439.2,649.8 439.07,649.84 439.82,649.62 C440.18,649.51 439.93,649.55 441.57,649.32 C442.43,649.19 440.43,649.21 455.56,649.22 C464.74,649.22 462.44,649.22 471.62,649.24 L471.69,649.25 L471.69,649.25 zM470.39,654.24 L470.43,654.24 L470.39,654.23 L443.56,654.22 C443.06,654.27 443.19,654.26 442.69,654.31 C441.81,654.35 442.02,654.32 441.26,654.48 C440.2,654.7 440.38,654.65 440.01,654.79 C438.62,655.27 437.81,655.69 436.44,656.63 C435.4,657.34 434.72,657.97 433.86,659.05 C433.22,659.84 433.32,659.7 432.81,660.59 L432.34,661.43 C431.4,663.55 431.17,664.43 430.97,666.78 L430.93,691.9 C430.92,693.66 431.04,695.17 431.25,695.95 L431.38,696.84 L431.65,697.36 C431.79,697.82 431.73,697.66 432.05,698.43 C432.42,699.33 432.36,699.19 432.46,699.36 L432.99,700.27 C433.24,700.72 433.84,701.58 434.05,701.76 L434.29,701.97 L435.42,703.15 C436.34,704.07 436.14,703.89 436.83,704.43 C437.79,705.19 440.26,706.41 441.13,706.55 C441.58,706.62 441.47,706.59 441.88,706.72 C443.14,706.88 442.83,706.84 444.09,707.01 L469.61,707.05 C470.74,707.05 472.39,706.89 473.02,706.72 C473.28,706.65 473.21,706.67 473.47,706.6 L474.08,706.48 C474.82,706.3 476.41,705.59 477.04,705.16 C477.63,704.76 477.52,704.83 477.81,704.66 C478.26,704.4 479.55,703.28 479.9,702.86 L480.42,702.21 C480.93,701.65 480.83,701.78 481.11,701.3 C481.61,700.46 481.49,700.67 481.99,699.82 L482.64,698.27 C482.73,698 482.71,698.06 482.8,697.79 C482.99,697.02 482.94,697.22 483.14,696.45 C483.2,696.04 483.19,696.14 483.25,695.73 L483.38,694.52 C483.4,680.01 483.39,683.64 483.42,669.13 C483.42,667.6 483.31,666.01 483.15,665.42 C483.08,665.17 483.1,665.23 483.03,664.99 C482.95,664.58 482.97,664.69 482.89,664.28 C482.68,663.87 482.71,663.94 482.69,663.82 C482.62,663.39 482.64,663.46 482.59,663.36 C482.49,663.19 482.47,663.16 482.42,663.03 L482.09,662.19 L481.33,660.89 C480.9,660.15 481.1,660.42 479.96,659.03 C479.31,658.24 477.78,656.87 477.13,656.49 C476.74,656.27 476.8,656.3 476.71,656.24 C475.95,655.68 475.36,655.4 473.7,654.8 C473.1,654.59 471.96,654.35 471.46,654.33 C470.62,654.29 470.77,654.3 470.39,654.24 L470.39,654.24 z"/>
  <path fill="#07767D" d="M458.46,664.42 L458.46,664.41 C459.16,664.42 458.95,664.4 459.93,664.6 L460.41,664.67 C460.82,664.73 462.74,665.32 463.2,665.52 C463.66,665.72 463.54,665.67 464,665.87 C464.58,666.12 465.76,666.82 466.33,667.26 C466.41,667.32 466.35,667.28 466.73,667.52 C467.23,667.83 468.85,669.37 469.33,670 L469.72,670.4 L470.67,671.72 C470.96,672.12 470.86,671.95 471.36,672.88 C471.72,673.54 471.66,673.42 471.77,673.72 L472.48,675.58 C472.56,675.85 472.53,675.77 472.67,676.1 C472.76,676.45 472.75,676.37 472.76,676.64 C472.9,677.12 472.86,677 473,677.48 C473.06,677.7 473.06,677.6 473.06,678.22 C473.13,678.86 473.11,678.7 473.18,679.35 L473.18,681.92 C473.1,682.4 473.11,682.24 473.1,683.01 C473.09,683.28 473.13,683.1 472.81,684.27 C472.77,684.56 472.78,684.49 472.74,684.78 L472.37,685.96 L471.75,687.58 L470.77,689.32 L469.92,690.53 L469.37,691.19 C468.92,691.79 467.94,692.72 467.07,693.39 C465.53,694.58 465.72,694.46 464.66,694.95 L463.47,695.57 C462.96,695.76 463.09,695.71 462.58,695.89 L462.01,696.1 C461.93,696.12 461.97,696.11 461.7,696.16 L461.16,696.37 C460.68,696.45 460.8,696.43 460.32,696.52 L460,696.6 C459.68,696.68 459.82,696.67 459.01,696.69 C458.82,696.69 458.91,696.68 458.44,696.76 C457.76,696.88 456.46,696.86 455.74,696.73 C455.6,696.7 455.72,696.71 454.85,696.68 C454.64,696.67 454.76,696.69 454.01,696.52 C453.74,696.48 453.81,696.49 453.53,696.46 L452.8,696.21 C452.57,696.15 452.62,696.17 452.39,696.11 L450.93,695.61 C450.24,695.25 450.41,695.34 449.72,694.97 L449.34,694.81 C448.76,694.55 446.9,693.16 446.15,692.42 C445.24,691.52 445.43,691.72 444.84,691.01 C444.13,690.15 444.25,690.32 444,689.88 L443.64,689.4 L442.85,688.05 C442.59,687.61 441.98,686.04 441.82,685.4 C441.78,685.23 441.8,685.28 441.68,685.01 L441.28,683.25 L441.16,681.21 C441.15,680.34 441.15,680.56 441.15,679.69 C441.22,679.09 441.2,679.24 441.27,678.63 C441.31,678.34 441.31,678.43 441.27,677.99 C441.26,677.92 441.22,678.11 441.59,676.69 C441.62,676.3 441.59,676.42 441.77,675.9 C442.22,674.5 442.53,673.73 443.03,672.83 L443.5,671.96 C444.07,671.19 443.94,671.37 444.44,670.63 L445.49,669.46 C446.04,668.88 445.8,669.11 447.17,667.87 C447.52,667.56 447.42,667.63 447.9,667.34 L448.42,666.98 C449.58,666.15 451.17,665.42 452.74,664.99 L453.52,664.77 C454.02,664.67 453.9,664.7 454.4,664.6 C455.39,664.4 455.04,664.42 456.9,664.43 L458.46,664.42 L458.46,664.42 zM457.49,669.41 L457.48,669.4 C456.77,669.39 456.22,669.42 455.81,669.5 C454.95,669.66 455.17,669.62 454.3,669.79 C453.17,670.04 451.68,670.77 450.63,671.58 C449.43,672.5 449.64,672.33 449.2,672.79 C448.69,673.32 447.88,674.48 447.43,675.34 L446.82,676.73 C446.8,676.83 446.79,676.86 446.78,676.93 C446.46,677.95 446.5,677.82 446.49,677.86 C446.47,678.23 446.48,678.16 446.44,678.29 C446.2,679.1 446.23,678.95 446.26,679.53 C446.27,679.79 446.27,679.73 446.29,679.99 L446.13,680.61 C446.32,681.19 446.3,681.07 446.29,681.46 C446.25,682.37 446.24,682.2 446.37,682.61 L446.51,683.52 C446.72,683.91 446.69,683.83 446.75,684.07 C446.88,684.66 446.78,684.4 447.46,685.91 L447.91,686.72 L448.21,687.09 C448.7,687.87 448.52,687.65 449.5,688.62 C450.41,689.51 450.28,689.39 450.4,689.47 C450.68,689.65 450.61,689.61 450.89,689.78 C451.33,690.15 451.86,690.46 452.44,690.7 C453.46,691.12 453.31,691.05 453.49,691.22 C453.79,691.22 453.72,691.21 453.98,691.3 C454.54,691.49 455.28,691.65 455.82,691.68 C456.48,691.71 456.37,691.7 456.59,691.73 C457.35,691.84 457.23,691.83 457.43,691.79 C457.93,691.69 457.87,691.7 458.04,691.69 C458.95,691.65 459.55,691.57 460.09,691.4 C460.33,691.32 460.27,691.34 460.51,691.25 C460.82,691.22 460.79,691.23 460.93,691.15 C461.27,690.95 461.2,690.98 461.4,690.91 C462.32,690.54 462.14,690.62 462.66,690.32 C462.97,690.15 462.89,690.19 463.2,690.02 C463.56,689.75 463.47,689.82 463.82,689.55 C463.91,689.51 463.63,689.79 465.8,687.59 L466.53,686.59 C466.64,686.31 466.61,686.36 466.7,686.26 C466.78,686.16 466.68,686.38 467.35,684.7 C467.92,683.28 467.85,683.47 467.87,683.32 C467.91,682.88 467.9,682.96 467.94,682.79 C468.08,682.16 468.06,682.27 468.07,682.04 C468.07,681.02 468.07,681.19 468.13,680.9 C468.25,680.49 468.24,680.56 468.18,680.42 C468.07,680.17 468.1,680.38 468.04,679.01 C468.01,678.48 467.96,678.23 467.59,676.99 C467.51,676.6 467.51,676.61 467.46,676.52 L467.29,676.24 C467.01,675.43 466.81,675.01 466.5,674.59 L466.24,674.22 C465.38,672.97 465.53,673.17 465.22,672.85 C464.66,672.26 463.57,671.39 462.88,670.99 C461.63,670.27 460.35,669.77 459.53,669.68 C459.26,669.65 459.31,669.66 459.18,669.63 C457.93,669.39 458.18,669.42 457.49,669.41 L457.49,669.41 z"/>
  <path fill="#07767D" d="M473.89,659.58 L473.85,659.57 C474.74,659.64 475.67,660.05 476.47,660.73 C477.37,661.49 477.96,663.13 477.78,664.35 C477.66,665.15 477.39,665.89 477.08,666.24 L476.77,666.68 C476.28,667.33 475.13,667.98 474.29,668.08 C473.46,668.19 473.04,668.17 472.29,668.03 C471.48,667.85 470.39,667.06 469.9,666.32 C469.38,665.51 469.26,665.22 469.23,664.73 L469.12,664.27 C469.06,663.96 469.07,663.9 469.21,663.21 C469.23,663.09 469.23,663.14 469.23,662.89 C469.27,662.2 470.09,660.95 470.88,660.41 C471.87,659.72 472.73,659.49 473.89,659.58 L473.89,659.58 z"/>
  <path fill="#07767D" d="M565.06,649.61 L565.07,649.61 C569.12,649.75 571.06,650.2 573.31,651.5 C577.13,653.71 579.29,657.36 579.65,662.21 C579.8,664.16 579.78,663.18 579.78,669.02 C579.75,687.45 579.76,682.84 579.73,701.28 C579.58,704.82 579.05,706.93 577.79,708.99 C575.57,712.63 572.12,714.73 567.74,715.14 C565.5,715.35 569.14,715.33 542.26,715.29 L528.03,715.27 C523.84,715.09 521.42,714.31 518.92,712.31 C516.16,710.1 514.55,706.97 514.22,703.14 C514.03,700.89 514.05,704.29 514.05,679.31 C514.05,661.03 514.02,663.11 514.34,660.75 C515.15,654.8 519.88,650.35 525.99,649.78 C528.33,649.56 524.49,649.59 552.9,649.61 L565.06,649.61 L565.06,649.61 zM550.79,667.99 L550.8,667.99 C547.9,667.9 542.07,667.98 537.63,668.16 L535.2,668.26 C531.23,668.42 529.44,669.03 528.2,670.62 C527.05,672.09 526.75,673.47 526.56,678.28 C526.34,683.52 526.35,685.01 526.58,688.16 C526.86,692.04 527.47,693.83 528.86,694.97 C530.24,696.1 531.74,696.44 536.21,696.64 C544.24,696.99 542.58,696.95 549.37,696.94 L558,696.62 C562.57,696.45 564.42,695.87 565.75,694.18 C566.77,692.9 567.34,689.67 567.41,684.81 C567.45,682.21 567.33,678.16 567.13,675.61 C566.76,670.84 565.26,669.05 561.17,668.48 C558.4,668.32 559.09,668.36 556.32,668.2 C553.16,668.08 553.95,668.11 550.79,667.99 L550.79,667.99 z"/>
  <path fill="#07767D" d="M549.3,680.13 L549.3,680.13 C551.57,681.45 551,681.12 553.27,682.44 L542.74,688.6 C542.77,681.58 542.76,683.33 542.78,676.31 C546.51,678.49 545.58,677.95 549.3,680.13 L549.3,680.13 z"/>
  <path fill="#07767D" d="M67.75,299.1 L67.75,299.1 C67.35,298.17 67.25,297.48 67.25,295.86 C67.26,290.39 67.26,291.76 67.26,286.29 C67.39,284.43 67.96,283.2 69.15,282.19 C69.9,281.56 70.54,281.27 71.74,281.02 C72.01,278.94 71.93,279.39 72.24,277.9 C73.3,272.71 75.86,267.49 79.39,263.31 C81.92,260.31 84.38,258.16 87.65,256.09 C92.26,253.16 97.22,251.41 103.09,250.65 C104.5,250.47 104.49,250.47 106.5,250.38 C107.66,250.33 107.24,250.33 109.48,250.4 C112.01,250.48 114.12,250.76 116.78,251.37 C120.84,252.28 124.76,253.93 128.07,256.12 C132.22,258.85 135.46,262.19 138.26,266.61 C138.77,267.42 139.21,268.21 139.81,269.4 C141.13,271.98 142.11,274.72 142.73,277.51 C142.94,278.49 143.16,279.77 143.25,280.67 C143.25,280.7 143.29,281 143.29,281.03 C144.25,281.24 144.06,281.18 144.57,281.41 C146.39,282.2 147.46,283.81 147.66,286.03 C147.7,286.46 147.69,285.8 147.69,290.71 C147.69,298.08 147.71,297.09 147.56,297.9 C147.16,300.01 145.63,301.6 143.56,302.03 L142.98,302.13 L142.76,304.15 C142.24,307.24 140.93,309.93 139,311.9 C136.29,314.64 132.69,315.96 127.8,316.01 C126.88,316.02 127.11,316.01 126.2,316.03 L125.85,316.6 C125.23,317.39 124.47,317.69 123.11,317.67 C122.56,317.66 122.77,317.66 121.66,317.69 C120.71,317.68 120.95,317.68 120,317.67 C117.96,317.66 118.01,317.67 117.45,317.43 C116.41,316.99 115.71,315.97 115.61,314.76 C115.47,313.06 116.35,311.62 117.83,311.16 C118.35,311 118.05,311.02 120.87,311.02 C124.54,311.02 124.08,311 124.62,311.19 C125.19,311.39 125.65,311.75 125.99,312.25 L126.15,312.49 L129.2,312.43 C132.85,312.24 135.75,310.79 137.51,308.28 C138.63,306.68 139.35,304.5 139.46,302.38 L139.49,301.85 L138.75,301.43 C137.84,300.72 137.31,299.76 137.24,298.66 L137.23,293.4 C137.22,282.81 137.2,284.21 137.35,283.64 C137.57,282.81 138.14,282.02 138.88,281.53 C139.02,281.44 138.99,281.46 139.12,281.37 L138.89,279.94 C138.16,275.53 136.5,271.5 133.89,267.8 C130.85,263.48 126.71,259.97 122.17,257.87 C118.43,256.14 114.56,255.17 110.31,254.89 C106.7,254.65 103.65,254.88 100.08,255.66 C95.77,256.59 91.83,258.31 88.45,260.72 C84.42,263.59 81.29,267.16 79.04,271.43 C77.54,274.27 76.41,277.82 75.99,280.96 L75.95,281.42 C76.65,281.9 76.52,281.79 76.85,282.16 C77.61,283 77.81,283.72 77.8,285.54 C77.78,292.8 77.79,290.99 77.76,298.24 C77.76,300.15 76.67,301.56 74.85,302.02 C74.22,302.17 72.11,302.17 71.31,302.02 C69.78,301.72 68.39,300.58 67.75,299.1 L67.75,299.1 z"/>
  <path fill="#07767D" d="M133.32,323.04 L133.32,323.04 C139.12,326.35 142.78,331.73 143.68,338.28 C143.84,339.39 143.9,340.44 143.89,341.77 C143.89,343.89 143.9,343.56 143.77,344.13 C143.34,345.9 141.88,347.19 140.24,347.23 L105.4,347.25 C104,347.25 104.35,347.25 102.95,347.25 L75.83,347.27 C74.3,347.27 73.94,347.2 73.19,346.78 C71.92,346.06 71.16,344.72 71.11,343.12 C71.08,341.81 71.11,340.3 71.2,339.34 C71.53,335.8 72.52,332.87 74.29,330.13 C76.46,326.8 79.96,324 84.19,322.23 C86.8,321.13 89.69,320.37 93.44,319.78 L94.85,319.56 C95,320.04 94.95,319.92 95.21,320.4 C96.2,322.17 98.21,323.16 100.95,323.23 L114.69,323.21 C117.39,323.06 119.3,321.88 120.12,319.87 C120.17,319.75 120.2,319.67 120.24,319.55 C120.72,319.56 120.6,319.56 121.07,319.57 C123.19,319.61 126.43,320.24 128.97,321.09 C130.61,321.65 131.86,322.21 133.32,323.04 L133.32,323.04 z"/>
  <path fill="#07767D" d="M109.6,266.36 L109.6,266.36 L109.03,266.63 L109.06,272.1 C113.1,272.1 112.09,272.1 116.14,272.1 C117.83,272.06 121.65,272.11 122.24,272.17 C124.31,272.4 126.07,272.98 127.83,274.03 C130.92,275.87 133.24,278.73 134.32,282.05 C134.8,283.52 135.04,285 135.04,286.47 L135.04,295 C135.04,295.59 135.04,295.44 135.04,296.04 L135.05,297.86 C135.06,300.88 134.89,302.3 134.29,304.21 C133.58,306.49 132.25,308.76 130.72,310.29 C130.66,310.35 130.61,310.39 130.55,310.45 L127.12,310.75 L126.47,310.16 C125.69,309.6 124.92,309.39 123.65,309.38 L119.52,309.38 L118.01,309.41 C115.7,309.71 113.89,311.82 113.88,314.23 L113.84,314.97 C102.79,314.96 105.55,314.97 94.5,314.95 C89.26,314.66 84.56,311.68 82,307.03 C80.54,304.37 79.96,301.94 79.97,298.47 C79.98,291.48 79.97,293.22 80.05,286.24 C80.09,282.08 82.17,277.86 85.46,275.24 C88.16,273.09 91.14,272.06 94.59,272.08 L99.37,272.1 C100.17,272.11 99.97,272.1 100.77,272.12 L101.86,272.09 L106.09,272.1 L106.1,266.61 C105.55,266.4 105.67,266.46 105.26,266.18 C103.78,265.2 103.08,263.4 103.53,261.67 C104,259.8 105.73,258.46 107.62,258.48 C109.54,258.5 111.19,259.85 111.64,261.78 C112.05,263.51 111.26,265.36 109.72,266.29 C109.67,266.32 109.65,266.33 109.6,266.36 L109.6,266.36 zM121.08,281.53 L93.63,281.54 C91.74,281.54 90.21,282.04 88.83,283.11 C87,284.54 85.95,286.58 85.84,288.95 L85.8,292.43 C85.81,293.39 85.81,293.15 85.82,294.12 C85.8,295.65 85.81,296.57 85.86,297.18 C86.04,299.42 87.04,301.49 88.69,303.01 C90.11,304.34 91.87,305.1 93.84,305.25 L119.24,305.27 C121.4,305.27 121.72,305.25 122.62,305.05 C125.81,304.32 128.33,301.66 129.02,298.29 C129.22,297.36 129.23,297.14 129.23,295.46 C129.23,287.95 129.24,288.98 129.15,288.2 C128.96,286.5 128,284.64 126.75,283.54 C125.05,282.06 123.56,281.53 121.08,281.53 L121.08,281.53 z"/>
  <path fill="#07767D" d="M96.86,288.63 L96.86,288.63 C98.68,288.86 99.92,290.44 99.82,292.37 C99.71,294.23 98.12,295.65 96.29,295.52 C94.55,295.4 93.2,293.91 93.19,292.1 C93.19,290.61 94.19,289.19 95.55,288.76 C96.01,288.62 96.41,288.58 96.86,288.63 L96.86,288.63 z"/>
  <path fill="#07767D" d="M114.17,316.74 C114.49,317.51 114.41,317.36 114.72,317.77 C115.39,318.64 116.07,319.11 117.11,319.42 L117.48,319.53 L117.04,320.09 C116.31,320.84 115.3,321.2 113.93,321.2 C106.26,321.19 108.18,321.19 100.51,321.18 C98.54,321 97.16,319.59 97.19,317.77 L97.18,317.35 L97.21,316.77 L114.17,316.74 L114.17,316.74 z"/>
  <path fill="#07767D" d="M112.78,298.85 C113.12,298.92 113.25,299.18 113.15,299.58 C112.79,301.05 111.25,302.58 109.61,303.11 C108.11,303.6 106.62,303.55 105.22,302.96 C103.67,302.3 102.44,300.96 102.05,299.51 C101.95,299.13 102.16,298.87 102.6,298.84 L112.78,298.85 L112.78,298.85 z"/>
  <path fill="#07767D" d="M119.07,288.63 L119.06,288.63 C120.78,288.85 122.05,290.35 122.04,292.15 C122.04,293.03 121.69,293.9 121.09,294.52 C119.97,295.66 118.36,295.87 117.01,295.05 C115.66,294.23 115.06,292.52 115.58,290.98 C116.1,289.41 117.54,288.44 119.07,288.63 L119.07,288.63 z"/>
 </g>
</svg>

